<svg xmlns="http://www.w3.org/2000/svg" width="47" height="7" viewBox="0 0 47 7" fill="none">
  <path d="M46.9136 3.43728L41.845 0.672868L41.9853 6.44467L46.9136 3.43728ZM1.01215 5.05308L2.44695 5.0182L2.42265 4.0185L0.987851 4.05337L1.01215 5.05308ZM5.31655 4.94846L8.18615 4.87871L8.16186 3.879L5.29225 3.94875L5.31655 4.94846ZM11.0558 4.80896L13.9254 4.73922L13.9011 3.73951L11.0315 3.80926L11.0558 4.80896ZM16.795 4.66947L19.6646 4.59972L19.6403 3.60002L16.7707 3.66976L16.795 4.66947ZM22.5342 4.52998L25.4038 4.46023L25.3795 3.46052L22.5099 3.53027L22.5342 4.52998ZM28.2734 4.39048L31.143 4.32074L31.1187 3.32103L28.2491 3.39078L28.2734 4.39048ZM34.0126 4.25099L36.8822 4.18124L36.8579 3.18154L33.9883 3.25128L34.0126 4.25099ZM39.7518 4.1115L42.6214 4.04175L42.5971 3.04204L39.7275 3.11179L39.7518 4.1115Z" fill="#0E4366"/>
</svg>