<svg xmlns="http://www.w3.org/2000/svg" width="69" height="71" viewBox="0 0 69 71" fill="none">
  <path d="M3.97131 35.4516C3.97131 29.1956 5.85788 23.0801 9.39252 17.8785C12.9272 12.6768 17.9511 8.62263 23.829 6.22857C29.7069 3.83451 36.1748 3.20811 42.4147 4.42859C48.6547 5.64907 54.3864 8.66162 58.8851 13.0853C63.3839 17.5089 66.4476 23.145 67.6888 29.2808C68.93 35.4165 68.2929 41.7764 65.8582 47.5562C63.4235 53.3359 59.3005 58.276 54.0105 61.7517C48.7206 65.2273 42.5012 67.0824 36.1391 67.0824C27.6116 67.0696 19.4372 63.733 13.4074 57.8038C7.37755 51.8747 3.98431 43.8367 3.97131 35.4516ZM67.5366 35.4516C67.5366 29.3454 65.6952 23.3763 62.2452 18.2992C58.7952 13.2221 53.8915 9.26496 48.1544 6.92822C42.4172 4.59149 36.1042 3.98016 30.0137 5.17142C23.9232 6.36268 18.3286 9.30304 13.9376 13.6208C9.54658 17.9385 6.55625 23.4396 5.34477 29.4285C4.13328 35.4174 4.75509 41.6249 7.1315 47.2663C9.50791 52.9077 13.5322 57.7295 18.6955 61.1219C23.8588 64.5143 29.9292 66.3251 36.1391 66.3251C44.4622 66.3123 52.4408 63.0554 58.3262 57.2683C64.2116 51.4812 67.5236 43.6358 67.5366 35.4516Z" fill="#319AC7"/>
  <path d="M0.121584 35.4497C0.121585 26.0478 3.91983 17.0311 10.6808 10.383C17.4418 3.73489 26.6116 -1.6409e-06 36.1731 -1.20718e-06L36.1731 8.34677C31.5867 8.34242 27.0717 9.46418 23.0378 11.6103C19.004 13.7564 15.579 16.859 13.0735 20.6365C10.568 24.4139 9.0613 28.7467 8.69018 33.2417C8.31906 37.7368 9.09522 42.2519 10.9483 46.3773C12.8013 50.5027 15.6725 54.1078 19.3015 56.8656C22.9305 59.6235 27.2022 61.4466 31.7293 62.1698C36.2564 62.893 40.8955 62.4932 45.2256 61.0068C49.5558 59.5204 53.44 56.9944 56.5258 53.6579L62.7856 59.2976C57.882 64.5597 51.4772 68.2437 44.4093 69.8678C37.3414 71.4918 29.9395 70.9803 23.1722 68.4C16.4048 65.8197 10.5871 61.2909 6.48022 55.4061C2.37334 49.5213 0.168543 42.5546 0.154341 35.4175L0.121584 35.4497Z" fill="#319AC7"/>
  <path d="M11.8357 35.4647C11.8357 48.6622 22.7161 59.361 36.1377 59.361C49.5593 59.361 60.4397 48.6622 60.4397 35.4647C60.4397 22.2671 49.5593 11.5684 36.1377 11.5684C22.7161 11.5684 11.8357 22.2671 11.8357 35.4647Z" fill="#319AC7"/>
  <path d="M21.6008 33.803L21.6008 37.2006L26.4074 37.8376C26.6207 38.6592 26.9439 39.4498 27.3687 40.1887C27.8459 40.967 28.4186 41.6852 29.0742 42.3273L27.1826 46.6501L30.1907 48.3793L33.1057 44.5873C33.5645 44.7105 34.0305 44.8067 34.5011 44.8755C34.9246 44.8982 35.349 44.8982 35.7725 44.8755C36.2011 44.8993 36.6308 44.8993 37.0595 44.8755C37.5044 44.8061 37.9445 44.7098 38.3774 44.5873L41.3545 48.44L44.3625 46.7109L42.4708 42.297C43.1243 41.6927 43.6833 40.9977 44.1299 40.2341C44.5961 39.4813 44.9413 38.6628 45.1533 37.8073L49.9443 37.2764L49.9443 33.803L45.1842 33.2569C45.0061 32.4171 44.6976 31.6089 44.2695 30.8604C43.7879 30.0589 43.1986 29.3243 42.5174 28.6762L44.3625 24.3534L41.3545 22.6242L38.4859 26.3858C38.0692 26.2401 37.6379 26.1384 37.1991 26.0825C36.7158 26.021 36.2289 25.9906 35.7416 25.9914C35.2954 25.991 34.8498 26.0214 34.408 26.0825C33.9675 26.1412 33.5322 26.2326 33.1057 26.3556L30.1907 22.6242L27.1826 24.3534L29.0433 28.6458C27.7171 29.8737 26.7895 31.4563 26.3763 33.1962L21.6008 33.7574M33.1212 35.4563C33.1162 35.1127 33.1822 34.7715 33.3155 34.4535C33.4487 34.1355 33.6463 33.8471 33.8964 33.6058C34.1403 33.3615 34.4323 33.1684 34.7548 33.038C35.0773 32.9076 35.4236 32.8428 35.7725 32.8474C36.1233 32.8454 36.471 32.9115 36.7955 33.0419C37.12 33.1723 37.4148 33.3643 37.6629 33.607C37.9109 33.8496 38.1073 34.1381 38.2406 34.4555C38.3739 34.773 38.4415 35.1131 38.4395 35.4563C38.4442 35.7977 38.3779 36.1364 38.2446 36.4519C38.1113 36.7674 37.9139 37.053 37.6642 37.2916C37.4175 37.5362 37.1227 37.7296 36.7976 37.8599C36.4725 37.9902 36.1238 38.0549 35.7725 38.05C35.0693 38.05 34.395 37.7767 33.8978 37.2903C33.4005 36.8039 33.1212 36.1442 33.1212 35.4563ZM31.3536 35.4563C31.3443 36.0212 31.4538 36.5819 31.6751 37.1037C31.8965 37.6255 32.2251 38.0974 32.6405 38.4899C33.2567 39.1061 34.0467 39.5287 34.9095 39.7039C35.7724 39.879 36.6689 39.7987 37.4849 39.4732C38.3008 39.1476 38.9992 38.5916 39.4908 37.8762C39.9824 37.1607 40.2448 36.3183 40.2448 35.4563C40.2448 34.5943 39.9824 33.7518 39.4908 33.0363C38.9992 32.3209 38.3008 31.7649 37.4849 31.4394C36.6689 31.1139 35.7724 31.0336 34.9095 31.2088C34.0467 31.3839 33.2567 31.8065 32.6405 32.4227C32.2205 32.8182 31.8891 33.2947 31.6676 33.8222C31.446 34.3497 31.3391 34.9165 31.3536 35.4866L31.3536 35.4563ZM19.8332 32.271L24.9654 31.634C25.1666 31.0128 25.4316 30.4131 25.7562 29.8442C26.0846 29.2564 26.48 28.7069 26.9346 28.206L24.8569 23.6102L30.6093 20.3794L33.7104 24.3686C34.036 24.3686 34.3615 24.2775 34.7026 24.2472C35.0438 24.2169 35.3694 24.2472 35.695 24.2472C36.0206 24.2472 36.2997 24.2472 36.6408 24.2472C36.9819 24.2472 37.3386 24.2472 37.7417 24.3686L40.8428 20.3794L46.5332 23.6102L44.5485 28.1605C44.9952 28.6818 45.3946 29.24 45.7424 29.829C46.0774 30.3863 46.3528 30.9758 46.5642 31.5884L51.6809 32.2558L51.6809 38.7174L46.5332 39.3393C46.3179 39.9504 46.0428 40.5396 45.7114 41.0987C45.3654 41.6336 44.9766 42.1408 44.5485 42.6155L46.5642 47.4541L40.8738 50.6849L37.6952 46.5591C37.3654 46.6454 37.0279 46.7013 36.6874 46.7261C36.3773 46.7261 36.0671 46.7261 35.7725 46.7261C35.4779 46.7261 35.2143 46.7261 34.9042 46.7261C34.5343 46.6911 34.1668 46.6353 33.8034 46.5591L30.7024 50.6242L24.8569 47.3631L26.888 42.7217C26.4545 42.2101 26.0606 41.6676 25.7096 41.0987C25.3767 40.5605 25.1112 39.985 24.9188 39.3847L19.7557 38.7629L19.8332 32.271Z" fill="white"/>
</svg>