<svg width="107" height="110" viewBox="0 0 107 110" fill="none" xmlns="http://www.w3.org/2000/svg">
<path d="M6.75891 54.7113C6.75891 45.0566 9.67039 35.6188 15.1253 27.5913C20.5802 19.5637 28.3335 13.307 37.4047 9.61232C46.4759 5.91764 56.4575 4.95093 66.0874 6.83446C75.7173 8.71799 84.563 13.3672 91.5057 20.194C98.4485 27.0209 103.177 35.7189 105.092 45.1881C107.008 54.6572 106.024 64.4722 102.267 73.3919C98.5097 82.3117 92.1467 89.9356 83.9829 95.2994C75.8191 100.663 66.221 103.526 56.4024 103.526C43.2423 103.506 30.6269 98.3571 21.3213 89.2068C12.0157 80.0566 6.77898 67.6517 6.75891 54.7113ZM104.857 54.7113C104.857 45.2878 102.016 36.076 96.6912 28.2406C91.3669 20.4052 83.7993 14.2983 74.9453 10.6921C66.0913 7.08586 56.3487 6.14242 46.9494 7.98085C37.55 9.81928 28.9162 14.3571 22.1396 21.0205C15.3631 27.6839 10.7482 36.1736 8.87852 45.416C7.00888 54.6585 7.9685 64.2385 11.6359 72.9446C15.3034 81.6508 21.5139 89.0921 29.4823 94.3275C37.4507 99.563 46.8189 102.357 56.4024 102.357C69.2473 102.338 81.5604 97.3115 90.6431 88.3804C99.7258 79.4493 104.837 67.3417 104.857 54.7113Z" fill="#0E4366"/>
<path d="M0.818121 54.7084C0.818121 40.1988 6.67984 26.2836 17.1138 16.0237C27.5478 5.76394 41.6994 -2.53235e-06 56.4553 -1.86301e-06L56.4553 12.8813C49.3772 12.8746 42.4094 14.6058 36.1841 17.9178C29.9588 21.2298 24.6731 26.018 20.8064 31.8476C16.9397 37.6772 14.6145 44.3638 14.0418 51.301C13.469 58.2381 14.6669 65.2061 17.5266 71.5727C20.3863 77.9393 24.8174 83.5029 30.4179 87.759C36.0184 92.0151 42.6109 94.8287 49.5974 95.9447C56.5839 97.0608 63.7432 96.4439 70.4258 94.15C77.1084 91.856 83.1027 87.9576 87.865 82.8086L97.5256 91.5122C89.958 99.6329 80.0737 105.318 69.166 107.825C58.2583 110.331 46.8353 109.542 36.3914 105.56C25.9475 101.578 16.9692 94.5884 10.6312 85.5066C4.29319 76.4248 0.890592 65.6733 0.868673 54.6588L0.818121 54.7084Z" fill="#0E4366"/>
<path d="M18.8959 54.7315C18.8959 75.0989 35.6872 91.6099 56.4004 91.6099C77.1136 91.6099 93.9049 75.0989 93.9049 54.7315C93.9049 34.3641 77.1136 17.853 56.4004 17.853C35.6872 17.853 18.8959 34.3641 18.8959 54.7315Z" fill="#0E4366"/>
<path d="M33.9657 52.1669L33.9657 57.4103L41.3836 58.3934C41.7127 59.6614 42.2116 60.8815 42.8672 62.0218C43.6036 63.2229 44.4875 64.3313 45.4993 65.3222L42.58 71.9935L47.2222 74.6621L51.7208 68.81C52.429 69.0001 53.1481 69.1487 53.8743 69.2548C54.5279 69.2898 55.183 69.2898 55.8365 69.2548C56.498 69.2915 57.1611 69.2915 57.8226 69.2548C58.5093 69.1476 59.1886 68.9991 59.8565 68.81L64.451 74.7558L69.0931 72.0872L66.1738 65.2754C67.1823 64.3428 68.045 63.2702 68.7342 62.0919C69.4538 60.9301 69.9865 59.6669 70.3135 58.3467L77.7074 57.5273L77.7074 52.1669L70.3613 51.3242C70.0864 50.0281 69.6104 48.7808 68.9496 47.6257C68.2065 46.3888 67.297 45.2551 66.2456 44.2549L69.0931 37.5836L64.451 34.915L60.0241 40.7202C59.381 40.4953 58.7153 40.3383 58.0381 40.252C57.2922 40.1572 56.5409 40.1103 55.7888 40.1116C55.1003 40.111 54.4125 40.1579 53.7308 40.252C53.0509 40.3427 52.379 40.4837 51.7208 40.6735L47.2222 34.915L42.58 37.5836L45.4515 44.208C43.4048 46.103 41.9734 48.5453 41.3357 51.2305L33.9657 52.0966M51.7448 54.7184C51.737 54.1881 51.839 53.6616 52.0446 53.1708C52.2502 52.68 52.5552 52.235 52.9412 51.8625C53.3175 51.4856 53.7682 51.1875 54.2659 50.9863C54.7636 50.7851 55.298 50.685 55.8365 50.6921C56.3779 50.689 56.9145 50.7911 57.4153 50.9923C57.9161 51.1935 58.371 51.4899 58.7539 51.8644C59.1367 52.2389 59.4398 52.6841 59.6455 53.174C59.8512 53.6638 59.9555 54.1888 59.9523 54.7184C59.9596 55.2452 59.8573 55.7679 59.6516 56.2549C59.4459 56.7418 59.1412 57.1826 58.7559 57.5507C58.3751 57.9283 57.9202 58.2267 57.4185 58.4278C56.9168 58.6289 56.3787 58.7287 55.8365 58.7211C54.7513 58.7211 53.7106 58.2994 52.9433 57.5487C52.1759 56.798 51.7448 55.78 51.7448 54.7184ZM49.0169 54.7184C49.0026 55.5902 49.1715 56.4555 49.5132 57.2608C49.8548 58.0661 50.3619 58.7943 51.003 59.4C51.954 60.351 53.1731 61.0033 54.5047 61.2735C55.8363 61.5438 57.2199 61.4198 58.4791 60.9175C59.7384 60.4151 60.8162 59.5571 61.5748 58.4529C62.3334 57.3488 62.7385 56.0488 62.7385 54.7184C62.7385 53.3881 62.3334 52.0879 61.5748 50.9837C60.8162 49.8796 59.7384 49.0215 58.4791 48.5192C57.2199 48.0168 55.8363 47.893 54.5047 48.1633C53.1731 48.4336 51.954 49.0858 51.003 50.0368C50.3548 50.647 49.8434 51.3825 49.5015 52.1966C49.1595 53.0106 48.9945 53.8853 49.0169 54.7651L49.0169 54.7184ZM31.2378 49.8026L39.1582 48.8195C39.4688 47.8609 39.8777 46.9355 40.3786 46.0574C40.8855 45.1503 41.4956 44.3022 42.1972 43.5292L38.9907 36.4366L47.8683 31.4507L52.6541 37.607C53.1566 37.607 53.659 37.4666 54.1854 37.4197C54.7119 37.3729 55.2144 37.4197 55.7169 37.4197C56.2194 37.4197 56.6501 37.4197 57.1765 37.4197C57.703 37.4197 58.2534 37.4198 58.8755 37.607L63.6613 31.4507L72.4431 36.4366L69.3803 43.4591C70.0695 44.2636 70.6859 45.125 71.2227 46.0339C71.7397 46.894 72.1648 47.8039 72.491 48.7492L80.3875 49.7792L80.3874 59.7511L72.4431 60.7109C72.1109 61.6539 71.6863 62.5632 71.1749 63.4262C70.6409 64.2517 70.0408 65.0344 69.3803 65.767L72.491 73.2342L63.7092 78.2202L58.8038 71.8531C58.2947 71.9862 57.7739 72.0725 57.2484 72.1107C56.7698 72.1107 56.2912 72.1107 55.8365 72.1107C55.3819 72.1107 54.9751 72.1107 54.4965 72.1107C53.9256 72.0567 53.3585 71.9706 52.7977 71.8531L48.0119 78.1266L38.9907 73.0938L42.1254 65.9309C41.4564 65.1414 40.8485 64.3041 40.3068 63.4262C39.793 62.5956 39.3832 61.7075 39.0864 60.7811L31.1182 59.8214L31.2378 49.8026Z" fill="#F2F8FA"/>
</svg>
