<svg width="110" height="110" viewBox="0 0 110 110" fill="none" xmlns="http://www.w3.org/2000/svg">
<path d="M57.6872 103.033C47.4867 103.033 37.5152 100.012 29.0338 94.3512C20.5524 88.6905 13.9418 80.6446 10.0382 71.2312C6.13467 61.8177 5.11363 51.4595 7.10364 41.4662C9.09366 31.473 14.0053 22.2936 21.2182 15.0889C28.431 7.88417 37.6208 2.97768 47.6252 0.989897C57.6297 -0.997883 67.9999 0.0223322 77.4239 3.9215C86.8479 7.82067 94.9025 14.4237 100.57 22.8956C106.237 31.3674 109.262 41.3277 109.262 51.5167C109.248 65.1755 103.81 78.2708 94.1404 87.929C84.4714 97.5872 71.3613 103.019 57.6872 103.033ZM57.6872 1.23353C47.7309 1.23353 37.9981 4.18256 29.7198 9.70775C21.4415 15.2329 14.9894 23.0861 11.1793 32.2742C7.36925 41.4622 6.37231 51.5724 8.31468 61.3264C10.257 71.0804 15.0514 80.04 22.0915 87.0722C29.1316 94.1044 38.1012 98.8935 47.8661 100.834C57.631 102.774 67.7528 101.778 76.9512 97.9722C86.1495 94.1664 94.0116 87.7215 99.543 79.4525C105.074 71.1834 108.027 61.4618 108.027 51.5167C108.013 38.185 102.705 25.4034 93.2671 15.9765C83.8296 6.54954 71.0338 1.24742 57.6872 1.23353Z" fill="#0E4366"/>
<path d="M57.6839 109.2C45.3266 109.175 33.3027 105.195 23.3762 97.8433C13.4497 90.4918 6.14284 80.1561 2.52816 68.3526C-1.08651 56.5492 -0.818983 43.8992 3.29148 32.2587C7.40193 20.6183 15.1391 10.6 25.3675 3.67383L32.9869 14.9324C25.1544 20.217 19.2257 27.872 16.0725 36.7724C12.9192 45.6727 12.7076 55.3487 15.4689 64.378C18.2301 73.4074 23.8184 81.3138 31.4125 86.9348C39.0065 92.5559 48.2057 95.5952 57.6576 95.6059L57.6839 109.2Z" fill="#0E4366"/>
<path d="M57.6839 109.2C45.3266 109.175 33.3027 105.195 23.3762 97.8433C13.4497 90.4918 6.14284 80.1561 2.52816 68.3526C-1.08651 56.5492 -0.818983 43.8992 3.29148 32.2587C7.40193 20.6183 15.1391 10.6 25.3675 3.67383L32.9869 14.9324C25.1544 20.217 19.2257 27.872 16.0725 36.7724C12.9192 45.6727 12.7076 55.3487 15.4689 64.378C18.2301 73.4074 23.8184 81.3138 31.4125 86.9348C39.0065 92.5559 48.2057 95.5952 57.6576 95.6059L57.6839 109.2Z" fill="#0E4366"/>
<path d="M57.7072 90.4348C79.226 90.4348 96.6705 73.01 96.6705 51.5153C96.6705 30.0206 79.226 12.5957 57.7072 12.5957C36.1883 12.5957 18.7438 30.0206 18.7438 51.5153C18.7438 73.01 36.1883 90.4348 57.7072 90.4348Z" fill="#0E4366"/>
<path d="M47.9464 57.8742H66.3943C68.5745 56.3667 70.3648 54.3466 71.6129 51.9855C72.8105 49.6715 73.4289 47.0932 73.4133 44.4786C73.4133 40.1379 71.7171 35.975 68.6978 32.9057C65.6786 29.8364 61.5837 28.1122 57.3139 28.1122C53.044 28.1122 48.9491 29.8364 45.9298 32.9057C42.9106 35.975 41.2143 40.1379 41.2143 44.4786C41.1987 47.0932 41.8171 49.6715 43.0147 51.9855C44.2075 54.3366 45.9447 56.3575 48.0768 57.8742M46.7721 62.3306C43.7326 60.4741 41.188 57.8872 39.3618 54.7972C37.5801 51.6264 36.6488 48.0354 36.6612 44.3837C36.6736 40.7321 37.6293 37.1479 39.4325 33.9897C41.2357 30.8314 43.8233 28.2099 46.9362 26.3877C50.0491 24.5656 53.5781 23.6064 57.1702 23.6064C60.7624 23.6064 64.2915 24.5656 67.4045 26.3877C70.5174 28.2099 73.1049 30.8314 74.9082 33.9897C76.7114 37.1479 77.667 40.7321 77.6795 44.3837C77.6919 48.0354 76.7606 51.6264 74.9789 54.7972C73.1961 57.8909 70.6971 60.4951 67.6989 62.3836L46.7721 62.3306ZM46.3286 70.8985V66.4421H68.2729V70.8985H46.3286ZM57.3139 80.3948C56.6062 80.4091 55.9027 80.2804 55.2443 80.0163C54.5859 79.7522 53.9855 79.3579 53.4781 78.8562C52.4393 77.8549 51.8143 76.4892 51.7299 75.0365H62.8716C62.7977 76.4919 62.171 77.8614 61.1234 78.8562C60.6083 79.3775 59.9917 79.7835 59.3132 80.0485C58.6348 80.3134 57.9092 80.4314 57.1833 80.3948H57.3139Z" fill="#F2F8FA"/>
</svg>
