<svg xmlns="http://www.w3.org/2000/svg" width="71" height="71" viewBox="0 0 71 71" fill="none">
  <path d="M37.38 66.763C30.7703 66.763 24.3091 64.8052 18.8133 61.1372C13.3176 57.4692 9.03408 52.2557 6.50468 46.156C3.97527 40.0564 3.31366 33.3444 4.60314 26.8691C5.89262 20.3937 9.07527 14.4457 13.749 9.77723C18.4227 5.10875 24.3775 1.92946 30.8601 0.641428C37.3428 -0.646603 44.0624 0.0144707 50.1689 2.54104C56.2754 5.0676 61.4946 9.3462 65.1667 14.8358C68.8389 20.3253 70.799 26.7793 70.799 33.3815C70.79 42.2321 67.2661 50.7175 61.0008 56.9758C54.7355 63.2341 46.2405 66.754 37.38 66.763ZM37.38 0.799296C30.9286 0.799296 24.622 2.7102 19.2578 6.29038C13.8937 9.87056 9.71294 14.9592 7.24409 20.9128C4.77525 26.8665 4.12926 33.4176 5.38786 39.738C6.64647 46.0583 9.75307 51.8639 14.3149 56.4206C18.8767 60.9773 24.6888 64.0805 31.0162 65.3377C37.3436 66.5949 43.9023 65.9496 49.8626 63.4835C55.8229 61.0175 60.9173 56.8413 64.5015 51.4832C68.0857 46.1251 69.9987 39.8257 69.9987 33.3815C69.9897 24.7429 66.5502 16.4607 60.4349 10.3523C54.3197 4.24394 46.0283 0.8083 37.38 0.799296Z" fill="#0E4366"/>
  <path d="M37.3777 70.7588C29.3705 70.7425 21.5793 68.1634 15.1472 63.3998C8.71506 58.6363 3.98041 51.939 1.63819 44.2906C-0.704033 36.6423 -0.530681 28.4454 2.13279 20.9027C4.79627 13.3599 9.80975 6.86838 16.4375 2.38037L21.3747 9.67567C16.2994 13.0999 12.4578 18.0602 10.4146 23.8274C8.37131 29.5946 8.23422 35.8644 10.0234 41.7152C11.8127 47.566 15.4337 52.6891 20.3545 56.3314C25.2752 59.9737 31.2361 61.9431 37.3607 61.9501L37.3777 70.7588Z" fill="#0E4366"/>
  <path d="M37.3777 70.7588C29.3705 70.7425 21.5793 68.1634 15.1472 63.3998C8.71506 58.6363 3.98041 51.939 1.63819 44.2906C-0.704033 36.6423 -0.530681 28.4454 2.13279 20.9027C4.79627 13.3599 9.80975 6.86838 16.4375 2.38037L21.3747 9.67567C16.2994 13.0999 12.4578 18.0602 10.4146 23.8274C8.37131 29.5946 8.23422 35.8644 10.0234 41.7152C11.8127 47.566 15.4337 52.6891 20.3545 56.3314C25.2752 59.9737 31.2361 61.9431 37.3607 61.9501L37.3777 70.7588Z" fill="#0E4366"/>
  <path d="M37.393 58.5994C51.3367 58.5994 62.6403 47.3086 62.6403 33.3805C62.6403 19.4525 51.3367 8.16162 37.393 8.16162C23.4493 8.16162 12.1458 19.4525 12.1458 33.3805C12.1458 47.3086 23.4493 58.5994 37.393 58.5994Z" fill="#0E4366"/>
  <path d="M31.0682 37.501H43.022C44.4347 36.5242 45.5948 35.2153 46.4035 33.6853C47.1796 32.1859 47.5802 30.5152 47.5702 28.821C47.5702 26.0084 46.471 23.3109 44.5146 21.3221C42.5582 19.3333 39.9049 18.216 37.1381 18.216C34.3714 18.216 31.7179 19.3333 29.7615 21.3221C27.8051 23.3109 26.706 26.0084 26.706 28.821C26.6959 30.5152 27.0966 32.1859 27.8726 33.6853C28.6455 35.2088 29.7712 36.5183 31.1527 37.501M30.3073 40.3887C28.3378 39.1857 26.689 37.5095 25.5056 35.5072C24.3511 33.4526 23.7476 31.1257 23.7557 28.7595C23.7637 26.3934 24.383 24.0709 25.5514 22.0245C26.7199 19.978 28.3965 18.2793 30.4136 17.0986C32.4307 15.9179 34.7174 15.2964 37.045 15.2964C39.3726 15.2964 41.6595 15.9179 43.6766 17.0986C45.6937 18.2793 47.3703 19.978 48.5388 22.0245C49.7072 24.0709 50.3265 26.3934 50.3345 28.7595C50.3425 31.1257 49.7391 33.4526 48.5846 35.5072C47.4294 37.5119 45.8101 39.1993 43.8674 40.423L30.3073 40.3887ZM30.0199 45.9404V43.0528H44.2393V45.9404H30.0199ZM37.1381 52.0938C36.6796 52.1031 36.2237 52.0197 35.7971 51.8485C35.3704 51.6774 34.9814 51.4219 34.6526 51.0969C33.9795 50.448 33.5746 49.5631 33.5198 48.6218H40.7394C40.6915 49.5649 40.2854 50.4522 39.6066 51.0969C39.2728 51.4346 38.8733 51.6977 38.4337 51.8694C37.994 52.0411 37.5239 52.1175 37.0535 52.0938H37.1381Z" fill="#F2F8FA"/>
</svg>