<svg width="500" height="524" viewBox="0 0 500 524" fill="none" xmlns="http://www.w3.org/2000/svg">
<path d="M134.272 141.696C120.243 141.696 106.53 137.541 94.8662 129.756C83.2022 121.971 74.111 110.906 68.7426 97.9604C63.3743 85.0146 61.9701 70.7694 64.7069 57.0262C67.4436 43.2831 74.1984 30.6592 84.1178 20.7509C94.0372 10.8427 106.675 4.09504 120.434 1.36135C134.193 -1.37233 148.454 0.0307123 161.415 5.39303C174.375 10.7553 185.452 19.8361 193.245 31.487C201.039 43.1379 205.199 56.8357 205.199 70.8481C205.18 89.6323 197.701 107.642 184.404 120.924C171.106 134.206 153.077 141.677 134.272 141.696ZM134.272 1.69641C120.579 1.69641 107.194 5.75205 95.8096 13.3505C84.4249 20.949 75.5518 31.7491 70.312 44.3849C65.0721 57.0207 63.7011 70.9248 66.3723 84.3389C69.0436 97.753 75.6369 110.075 85.3188 119.746C95.0008 129.417 107.336 136.003 120.765 138.671C134.194 141.339 148.114 139.97 160.764 134.736C173.414 129.502 184.227 120.639 191.834 109.267C199.441 97.8947 203.501 84.525 203.501 70.8481C203.482 52.5138 196.182 34.9359 183.203 21.9716C170.224 9.00723 152.627 1.71551 134.272 1.69641Z" fill="#0E4366"/>
<path d="M134.267 150.177C117.273 150.143 100.737 144.669 87.0856 134.559C73.4342 124.449 63.3855 110.235 58.4145 94.002C53.4434 77.7693 53.8113 60.3726 59.4642 44.364C65.1171 28.3555 75.7576 14.578 89.8242 5.05273L100.303 20.5361C89.5311 27.8036 81.3777 38.3312 77.0412 50.5714C72.7047 62.8115 72.4137 76.1184 76.2111 88.5359C80.0085 100.953 87.6938 111.827 98.1375 119.557C108.581 127.287 121.232 131.467 134.231 131.482L134.267 150.177Z" fill="#0E4366"/>
<path d="M134.267 150.177C117.273 150.143 100.737 144.669 87.0856 134.559C73.4342 124.449 63.3855 110.235 58.4145 94.002C53.4434 77.7693 53.8113 60.3726 59.4642 44.364C65.1171 28.3555 75.7576 14.578 89.8242 5.05273L100.303 20.5361C89.5311 27.8036 81.3777 38.3312 77.0412 50.5714C72.7047 62.8115 72.4137 76.1184 76.2111 88.5359C80.0085 100.953 87.6938 111.827 98.1375 119.557C108.581 127.287 121.232 131.467 134.231 131.482L134.267 150.177Z" fill="#0E4366"/>
<path d="M134.299 124.37C163.893 124.37 187.883 100.407 187.883 70.8463C187.883 41.2858 163.893 17.3223 134.299 17.3223C104.705 17.3223 80.715 41.2858 80.715 70.8463C80.715 100.407 104.705 124.37 134.299 124.37Z" fill="#0E4366"/>
<path d="M120.876 79.5914H146.246C149.244 77.5182 151.706 74.7402 153.423 71.493C155.07 68.3107 155.92 64.765 155.899 61.1692C155.899 55.1997 153.566 49.4747 149.414 45.2536C145.262 41.0326 139.63 38.6613 133.758 38.6613C127.886 38.6613 122.255 41.0326 118.102 45.2536C113.95 49.4747 111.617 55.1997 111.617 61.1692C111.596 64.765 112.446 68.3107 114.093 71.493C115.734 74.7264 118.123 77.5056 121.055 79.5914M119.261 85.7201C115.081 83.167 111.581 79.6093 109.07 75.3598C106.619 70.9992 105.339 66.0606 105.356 61.0387C105.373 56.0168 106.687 51.0877 109.167 46.7443C111.647 42.401 115.205 38.7958 119.486 36.2898C123.767 33.7839 128.621 32.4648 133.561 32.4648C138.501 32.4648 143.354 33.7839 147.635 36.2898C151.916 38.7958 155.475 42.401 157.955 46.7443C160.435 51.0877 161.749 56.0168 161.766 61.0387C161.783 66.0606 160.502 70.9992 158.052 75.3598C155.6 79.6144 152.163 83.1959 148.04 85.7929L119.261 85.7201ZM118.651 97.503V91.3744H148.83V97.503H118.651ZM133.758 110.563C132.785 110.582 131.818 110.405 130.912 110.042C130.007 109.679 129.181 109.137 128.483 108.447C127.055 107.07 126.195 105.192 126.079 103.194H141.402C141.3 105.195 140.438 107.079 138.997 108.447C138.289 109.164 137.441 109.722 136.508 110.087C135.575 110.451 134.577 110.613 133.579 110.563H133.758Z" fill="#F2F8FA"/>
<path d="M9.3095 394.007C9.30951 378.608 13.8705 363.556 22.4159 350.752C30.9613 337.949 43.1072 327.97 57.3177 322.077C71.5281 316.184 87.1649 314.642 102.251 317.646C117.336 320.651 131.193 328.066 142.07 338.954C152.946 349.843 160.353 363.715 163.353 378.818C166.354 393.921 164.814 409.575 158.928 423.801C153.042 438.028 143.074 450.187 130.285 458.742C117.496 467.297 102.46 471.863 87.0785 471.863C66.4625 471.832 46.6999 463.619 32.1222 449.025C17.5445 434.431 9.34094 414.646 9.3095 394.007ZM162.986 394.007C162.986 378.977 158.534 364.285 150.193 351.788C141.852 339.291 129.997 329.551 116.127 323.799C102.257 318.047 86.9944 316.543 72.2699 319.475C57.5453 322.407 44.0199 329.644 33.4041 340.272C22.7883 350.9 15.5589 364.441 12.63 379.182C9.70109 393.923 11.2044 409.202 16.9496 423.088C22.6948 436.974 32.424 448.842 44.9068 457.192C57.3897 465.543 72.0655 469.999 87.0785 469.999C107.201 469.968 126.49 461.952 140.718 447.707C154.947 433.463 162.954 414.152 162.986 394.007Z" fill="#0E4366"/>
<path d="M0.0029324 394.003C0.00293342 370.861 9.18561 348.667 25.531 332.303C41.8764 315.939 64.0455 306.746 87.1614 306.746L87.1614 327.291C76.0732 327.28 65.1577 330.041 55.4055 335.324C45.6533 340.606 37.3729 348.243 31.3156 357.541C25.2583 366.839 21.6157 377.504 20.7184 388.568C19.8212 399.632 21.6977 410.746 26.1776 420.9C30.6575 431.054 37.5991 439.928 46.3725 446.716C55.1459 453.504 65.4733 457.992 76.4181 459.772C87.3628 461.552 98.5782 460.568 109.047 456.909C119.515 453.251 128.906 447.033 136.366 438.821L151.5 452.702C139.645 465.654 124.161 474.722 107.073 478.72C89.9859 482.717 72.0911 481.458 55.7302 475.107C39.3694 468.756 25.3044 457.609 15.3756 443.124C5.4468 428.639 0.116463 411.491 0.0821266 393.923L0.0029324 394.003Z" fill="#0E4366"/>
<path d="M28.3228 394.039C28.3228 426.524 54.6273 452.858 87.0755 452.858C119.524 452.858 145.828 426.524 145.828 394.039C145.828 361.555 119.524 335.221 87.0755 335.221C54.6273 335.221 28.3228 361.555 28.3228 394.039Z" fill="#0E4366"/>
<path d="M51.9305 389.949L51.9305 398.312L63.5509 399.88C64.0666 401.903 64.848 403.848 65.875 405.667C67.0286 407.583 68.4133 409.351 69.9984 410.931L65.4252 421.571L72.6974 425.828L79.7448 416.494C80.8541 416.797 81.9806 417.034 83.1183 417.203C84.1422 417.259 85.1683 417.259 86.1922 417.203C87.2284 417.262 88.2673 417.262 89.3035 417.203C90.3793 417.032 91.4433 416.796 92.4897 416.494L99.6871 425.977L106.959 421.721L102.386 410.856C103.966 409.369 105.317 407.658 106.397 405.779C107.524 403.926 108.359 401.911 108.871 399.806L120.454 398.499L120.454 389.949L108.946 388.605C108.515 386.538 107.77 384.549 106.734 382.706C105.57 380.734 104.146 378.925 102.499 377.33L106.959 366.69L99.6871 362.434L92.7522 371.693C91.7448 371.334 90.7019 371.083 89.641 370.946C88.4726 370.795 87.2956 370.72 86.1174 370.722C85.0388 370.721 83.9614 370.796 82.8934 370.946C81.8283 371.09 80.7759 371.315 79.7448 371.618L72.6974 362.434L65.4252 366.69L69.9235 377.255C66.7173 380.278 64.4749 384.173 63.4759 388.456L51.9305 389.837M79.7823 394.019C79.7701 393.173 79.9299 392.333 80.252 391.55C80.5741 390.768 81.0519 390.058 81.6566 389.464C82.246 388.863 82.952 388.387 83.7317 388.066C84.5115 387.745 85.3486 387.586 86.1922 387.597C87.0403 387.592 87.8809 387.755 88.6654 388.076C89.4499 388.397 90.1626 388.87 90.7623 389.467C91.362 390.064 91.8369 390.774 92.1591 391.555C92.4814 392.337 92.6448 393.174 92.6398 394.019C92.6512 394.859 92.4909 395.693 92.1687 396.469C91.8465 397.246 91.3691 397.949 90.7655 398.536C90.169 399.138 89.4564 399.614 88.6705 399.935C87.8845 400.256 87.0415 400.415 86.1922 400.403C84.4921 400.403 82.8619 399.73 81.6598 398.533C80.4576 397.336 79.7823 395.712 79.7823 394.019ZM75.5089 394.019C75.4865 395.409 75.7511 396.789 76.2863 398.074C76.8215 399.358 77.6159 400.52 78.6202 401.486C80.11 403.002 82.0198 404.043 84.1058 404.474C86.1918 404.905 88.3593 404.707 90.332 403.906C92.3047 403.105 93.993 401.736 95.1815 399.975C96.3699 398.214 97.0045 396.141 97.0045 394.019C97.0045 391.897 96.3699 389.823 95.1815 388.062C93.993 386.301 92.3047 384.933 90.332 384.131C88.3593 383.33 86.1918 383.133 84.1058 383.564C82.0198 383.995 80.11 385.035 78.6202 386.552C77.6047 387.525 76.8036 388.698 76.268 389.997C75.7324 391.295 75.4738 392.69 75.5089 394.093L75.5089 394.019ZM47.6571 386.178L60.0648 384.61C60.5513 383.081 61.1918 381.605 61.9766 380.205C62.7707 378.758 63.7264 377.406 64.8256 376.173L59.8024 364.86L73.7096 356.908L81.2068 366.727C81.9939 366.727 82.781 366.503 83.6057 366.428C84.4303 366.354 85.2176 366.428 86.0048 366.428C86.792 366.428 87.4667 366.428 88.2914 366.428C89.116 366.428 89.9783 366.429 90.9529 366.727L98.45 356.908L112.207 364.86L107.409 376.061C108.489 377.344 109.455 378.718 110.295 380.168C111.105 381.539 111.771 382.99 112.282 384.498L124.652 386.141L124.652 402.046L112.207 403.576C111.687 405.08 111.022 406.531 110.221 407.907C109.384 409.224 108.444 410.472 107.409 411.641L112.282 423.55L98.5251 431.503L90.8406 421.347C90.043 421.56 89.2272 421.697 88.4039 421.758C87.6542 421.758 86.9044 421.758 86.1922 421.758C85.4799 421.758 84.8427 421.758 84.093 421.758C83.1987 421.672 82.3102 421.535 81.4317 421.347L73.9345 431.353L59.8024 423.326L64.713 411.902C63.6649 410.643 62.7126 409.307 61.864 407.907C61.0592 406.582 60.4173 405.166 59.9522 403.688L47.4697 402.158L47.6571 386.178Z" fill="#F2F8FA"/>
<path d="M374.966 342.811C358.467 342.811 342.339 337.924 328.621 328.768C314.903 319.612 304.211 306.598 297.897 291.373C291.583 276.147 289.931 259.393 293.15 243.229C296.369 227.066 304.314 212.219 315.98 200.566C327.646 188.912 342.51 180.976 358.692 177.761C374.873 174.546 391.646 176.196 406.889 182.503C422.132 188.81 435.16 199.49 444.326 213.192C453.492 226.895 458.385 243.005 458.385 259.485C458.363 281.578 449.568 302.76 433.928 318.382C418.289 334.003 397.083 342.789 374.966 342.811ZM374.966 178.063C358.844 178.063 343.084 182.839 329.679 191.785C316.275 200.732 305.827 213.449 299.657 228.326C293.487 243.204 291.873 259.576 295.018 275.37C298.164 291.164 305.927 305.673 317.327 317.06C328.727 328.447 343.251 336.201 359.063 339.343C374.875 342.485 391.265 340.872 406.16 334.71C421.055 328.547 433.785 318.111 442.742 304.721C451.699 291.331 456.48 275.589 456.48 259.485C456.458 237.898 447.864 217.2 432.581 201.935C417.299 186.67 396.578 178.085 374.966 178.063Z" fill="#0E4366"/>
<path d="M334.254 343.004C356.391 353.848 381.924 355.464 405.237 347.496C428.55 339.529 447.732 322.63 458.564 300.518C469.396 278.406 470.991 252.892 462.997 229.588C455.003 206.285 438.076 187.101 415.939 176.256L406.712 195.091C423.849 203.485 436.952 218.336 443.14 236.375C449.328 254.414 448.093 274.165 439.708 291.281C431.323 308.398 416.474 321.479 398.428 327.647C380.382 333.815 360.617 332.564 343.481 324.169L334.254 343.004Z" fill="#0E4366"/>
<path d="M374.968 352.33C350.318 352.33 326.677 342.549 309.246 325.138C291.816 307.727 282.024 284.113 282.024 259.491C282.024 234.868 291.816 211.254 309.246 193.843C326.677 176.432 350.318 166.65 374.968 166.65V187.624C355.886 187.624 337.586 195.195 324.093 208.673C310.6 222.151 303.02 240.43 303.02 259.491C303.02 278.551 310.6 296.83 324.093 310.308C337.586 323.786 355.886 331.358 374.968 331.358V352.33Z" fill="#0E4366"/>
<path d="M375.014 319.532C408.213 319.532 435.126 292.649 435.126 259.488C435.126 226.326 408.213 199.443 375.014 199.443C341.815 199.443 314.902 226.326 314.902 259.488C314.902 292.649 341.815 319.532 375.014 319.532Z" fill="#0E4366"/>
<path d="M375.569 294.216C383.424 294.164 391.019 291.381 397.062 286.343C403.106 281.304 407.224 274.319 408.719 266.576C410.213 258.833 408.991 250.809 405.259 243.868C401.527 236.928 395.517 231.499 388.25 228.504C380.982 225.51 372.907 225.135 365.395 227.443C357.884 229.751 351.4 234.599 347.046 241.164C342.692 247.729 340.737 255.606 341.513 263.454C342.289 271.303 345.748 278.64 351.302 284.217C354.453 287.459 358.232 290.018 362.405 291.738C366.578 293.457 371.058 294.301 375.569 294.216ZM375.569 298.507C370.401 298.535 365.283 297.491 360.536 295.442C355.966 293.507 351.809 290.711 348.288 287.205C344.808 283.66 342.025 279.488 340.084 274.908C338.04 270.156 337.001 265.029 337.032 259.852C337.008 254.664 338.047 249.526 340.084 244.758C343.969 235.507 351.291 228.141 360.497 224.224C365.253 222.227 370.357 221.199 375.512 221.199C380.666 221.199 385.77 222.227 390.526 224.224C395.097 226.172 399.255 228.981 402.774 232.499C406.288 236.009 409.087 240.173 411.015 244.758C413.004 249.533 414.028 254.657 414.028 259.833C414.028 265.009 413.004 270.133 411.015 274.908C407.102 284.152 399.771 291.513 390.564 295.442C385.84 297.482 380.749 298.525 375.607 298.507H375.569ZM369.388 276.632L396.745 249.164L393.731 246.099L369.388 270.541L357.178 258.32L354.164 261.346L369.388 276.632Z" fill="#F2F8FA"/>
<path d="M109.554 183.228L106.25 189.598V193H104.29V189.598L100.972 183.228H103.184L105.284 187.694L107.37 183.228H109.554ZM115.221 193.098C114.306 193.098 113.466 192.883 112.701 192.454C111.935 192.025 111.329 191.432 110.881 190.676C110.433 189.911 110.209 189.047 110.209 188.086C110.209 187.134 110.433 186.28 110.881 185.524C111.329 184.759 111.935 184.161 112.701 183.732C113.466 183.303 114.306 183.088 115.221 183.088C116.145 183.088 116.985 183.303 117.741 183.732C118.506 184.161 119.108 184.759 119.547 185.524C119.995 186.28 120.219 187.134 120.219 188.086C120.219 189.047 119.995 189.911 119.547 190.676C119.108 191.432 118.506 192.025 117.741 192.454C116.975 192.883 116.135 193.098 115.221 193.098ZM115.221 191.348C115.809 191.348 116.327 191.217 116.775 190.956C117.223 190.685 117.573 190.303 117.825 189.808C118.077 189.313 118.203 188.739 118.203 188.086C118.203 187.433 118.077 186.863 117.825 186.378C117.573 185.883 117.223 185.505 116.775 185.244C116.327 184.983 115.809 184.852 115.221 184.852C114.633 184.852 114.11 184.983 113.653 185.244C113.205 185.505 112.855 185.883 112.603 186.378C112.351 186.863 112.225 187.433 112.225 188.086C112.225 188.739 112.351 189.313 112.603 189.808C112.855 190.303 113.205 190.685 113.653 190.956C114.11 191.217 114.633 191.348 115.221 191.348ZM123.609 183.228V189.276C123.609 189.939 123.782 190.447 124.127 190.802C124.472 191.147 124.958 191.32 125.583 191.32C126.218 191.32 126.708 191.147 127.053 190.802C127.398 190.447 127.571 189.939 127.571 189.276V183.228H129.545V189.262C129.545 190.093 129.363 190.797 128.999 191.376C128.644 191.945 128.164 192.375 127.557 192.664C126.96 192.953 126.292 193.098 125.555 193.098C124.827 193.098 124.164 192.953 123.567 192.664C122.979 192.375 122.512 191.945 122.167 191.376C121.822 190.797 121.649 190.093 121.649 189.262V183.228H123.609ZM136.479 193L134.323 189.192H133.399V193H131.439V183.228H135.107C135.863 183.228 136.507 183.363 137.039 183.634C137.571 183.895 137.967 184.255 138.229 184.712C138.499 185.16 138.635 185.664 138.635 186.224C138.635 186.868 138.448 187.451 138.075 187.974C137.701 188.487 137.146 188.842 136.409 189.038L138.747 193H136.479ZM133.399 187.722H135.037C135.569 187.722 135.965 187.596 136.227 187.344C136.488 187.083 136.619 186.723 136.619 186.266C136.619 185.818 136.488 185.473 136.227 185.23C135.965 184.978 135.569 184.852 135.037 184.852H133.399V187.722ZM145.703 183.228V193H143.743V183.228H145.703ZM151.056 183.228C152.082 183.228 152.983 183.429 153.758 183.83C154.542 184.231 155.144 184.805 155.564 185.552C155.993 186.289 156.208 187.148 156.208 188.128C156.208 189.108 155.993 189.967 155.564 190.704C155.144 191.432 154.542 191.997 153.758 192.398C152.983 192.799 152.082 193 151.056 193H147.64V183.228H151.056ZM150.986 191.334C152.012 191.334 152.806 191.054 153.366 190.494C153.926 189.934 154.206 189.145 154.206 188.128C154.206 187.111 153.926 186.317 153.366 185.748C152.806 185.169 152.012 184.88 150.986 184.88H149.6V191.334H150.986ZM159.635 184.81V187.26H162.925V188.814H159.635V191.404H163.345V193H157.675V183.214H163.345V184.81H159.635ZM171.118 191.138H167.226L166.582 193H164.524L168.038 183.214H170.32L173.834 193H171.762L171.118 191.138ZM170.586 189.57L169.172 185.482L167.758 189.57H170.586Z" fill="#0E4366"/>
<path d="M36.8246 507.723C35.9099 507.723 35.0699 507.508 34.3046 507.079C33.5392 506.65 32.9326 506.057 32.4846 505.301C32.0366 504.536 31.8126 503.672 31.8126 502.711C31.8126 501.759 32.0366 500.905 32.4846 500.149C32.9326 499.384 33.5392 498.786 34.3046 498.357C35.0699 497.928 35.9099 497.713 36.8246 497.713C37.7486 497.713 38.5886 497.928 39.3446 498.357C40.1099 498.786 40.7119 499.384 41.1506 500.149C41.5986 500.905 41.8226 501.759 41.8226 502.711C41.8226 503.672 41.5986 504.536 41.1506 505.301C40.7119 506.057 40.1099 506.65 39.3446 507.079C38.5792 507.508 37.7392 507.723 36.8246 507.723ZM36.8246 505.973C37.4126 505.973 37.9306 505.842 38.3786 505.581C38.8266 505.31 39.1766 504.928 39.4286 504.433C39.6806 503.938 39.8066 503.364 39.8066 502.711C39.8066 502.058 39.6806 501.488 39.4286 501.003C39.1766 500.508 38.8266 500.13 38.3786 499.869C37.9306 499.608 37.4126 499.477 36.8246 499.477C36.2366 499.477 35.7139 499.608 35.2566 499.869C34.8086 500.13 34.4586 500.508 34.2066 501.003C33.9546 501.488 33.8286 502.058 33.8286 502.711C33.8286 503.364 33.9546 503.938 34.2066 504.433C34.4586 504.928 34.8086 505.31 35.2566 505.581C35.7139 505.842 36.2366 505.973 36.8246 505.973ZM45.2128 497.853V503.901C45.2128 504.564 45.3854 505.072 45.7308 505.427C46.0761 505.772 46.5614 505.945 47.1868 505.945C47.8214 505.945 48.3114 505.772 48.6568 505.427C49.0021 505.072 49.1748 504.564 49.1748 503.901V497.853H51.1488V503.887C51.1488 504.718 50.9668 505.422 50.6028 506.001C50.2481 506.57 49.7674 507 49.1608 507.289C48.5634 507.578 47.8961 507.723 47.1588 507.723C46.4308 507.723 45.7681 507.578 45.1708 507.289C44.5828 507 44.1161 506.57 43.7708 506.001C43.4254 505.422 43.2528 504.718 43.2528 503.887V497.853H45.2128ZM58.0825 507.625L55.9265 503.817H55.0025V507.625H53.0425V497.853H56.7105C57.4665 497.853 58.1105 497.988 58.6425 498.259C59.1745 498.52 59.5712 498.88 59.8325 499.337C60.1032 499.785 60.2385 500.289 60.2385 500.849C60.2385 501.493 60.0518 502.076 59.6785 502.599C59.3052 503.112 58.7498 503.467 58.0125 503.663L60.3505 507.625H58.0825ZM55.0025 502.347H56.6405C57.1725 502.347 57.5692 502.221 57.8305 501.969C58.0918 501.708 58.2225 501.348 58.2225 500.891C58.2225 500.443 58.0918 500.098 57.8305 499.855C57.5692 499.603 57.1725 499.477 56.6405 499.477H55.0025V502.347ZM67.3072 499.435V501.885H70.5972V503.439H67.3072V506.029H71.0172V507.625H65.3472V497.839H71.0172V499.435H67.3072ZM78.6503 507.625L76.5363 504.335L74.6183 507.625H72.4063L75.4863 502.697L72.3643 497.853H74.6183L76.7323 501.129L78.6363 497.853H80.8483L77.7823 502.767L80.9043 507.625H78.6503ZM84.356 499.435V501.885H87.646V503.439H84.356V506.029H88.066V507.625H82.396V497.839H88.066V499.435H84.356ZM89.3712 502.725C89.3712 501.764 89.5858 500.905 90.0152 500.149C90.4538 499.384 91.0465 498.791 91.7932 498.371C92.5492 497.942 93.3938 497.727 94.3272 497.727C95.4192 497.727 96.3758 498.007 97.1972 498.567C98.0185 499.127 98.5925 499.902 98.9192 500.891H96.6652C96.4412 500.424 96.1238 500.074 95.7132 499.841C95.3118 499.608 94.8452 499.491 94.3132 499.491C93.7438 499.491 93.2352 499.626 92.7872 499.897C92.3485 500.158 92.0032 500.532 91.7512 501.017C91.5085 501.502 91.3872 502.072 91.3872 502.725C91.3872 503.369 91.5085 503.938 91.7512 504.433C92.0032 504.918 92.3485 505.296 92.7872 505.567C93.2352 505.828 93.7438 505.959 94.3132 505.959C94.8452 505.959 95.3118 505.842 95.7132 505.609C96.1238 505.366 96.4412 505.012 96.6652 504.545H98.9192C98.5925 505.544 98.0185 506.323 97.1972 506.883C96.3852 507.434 95.4285 507.709 94.3272 507.709C93.3938 507.709 92.5492 507.499 91.7932 507.079C91.0465 506.65 90.4538 506.057 90.0152 505.301C89.5858 504.545 89.3712 503.686 89.3712 502.725ZM102.525 497.853V503.901C102.525 504.564 102.698 505.072 103.043 505.427C103.389 505.772 103.874 505.945 104.499 505.945C105.134 505.945 105.624 505.772 105.969 505.427C106.315 505.072 106.487 504.564 106.487 503.901V497.853H108.461V503.887C108.461 504.718 108.279 505.422 107.915 506.001C107.561 506.57 107.08 507 106.473 507.289C105.876 507.578 105.209 507.723 104.471 507.723C103.743 507.723 103.081 507.578 102.483 507.289C101.895 507 101.429 506.57 101.083 506.001C100.738 505.422 100.565 504.718 100.565 503.887V497.853H102.525ZM117.005 497.853V499.435H114.401V507.625H112.441V499.435H109.837V497.853H117.005ZM120.395 497.853V507.625H118.435V497.853H120.395ZM126.868 507.723C125.953 507.723 125.113 507.508 124.348 507.079C123.582 506.65 122.976 506.057 122.528 505.301C122.08 504.536 121.856 503.672 121.856 502.711C121.856 501.759 122.08 500.905 122.528 500.149C122.976 499.384 123.582 498.786 124.348 498.357C125.113 497.928 125.953 497.713 126.868 497.713C127.792 497.713 128.632 497.928 129.388 498.357C130.153 498.786 130.755 499.384 131.194 500.149C131.642 500.905 131.866 501.759 131.866 502.711C131.866 503.672 131.642 504.536 131.194 505.301C130.755 506.057 130.153 506.65 129.388 507.079C128.622 507.508 127.782 507.723 126.868 507.723ZM126.868 505.973C127.456 505.973 127.974 505.842 128.422 505.581C128.87 505.31 129.22 504.928 129.472 504.433C129.724 503.938 129.85 503.364 129.85 502.711C129.85 502.058 129.724 501.488 129.472 501.003C129.22 500.508 128.87 500.13 128.422 499.869C127.974 499.608 127.456 499.477 126.868 499.477C126.28 499.477 125.757 499.608 125.3 499.869C124.852 500.13 124.502 500.508 124.25 501.003C123.998 501.488 123.872 502.058 123.872 502.711C123.872 503.364 123.998 503.938 124.25 504.433C124.502 504.928 124.852 505.31 125.3 505.581C125.757 505.842 126.28 505.973 126.868 505.973ZM141.682 507.625H139.722L135.284 500.919V507.625H133.324V497.839H135.284L139.722 504.559V497.839H141.682V507.625Z" fill="#0E4366"/>
<path d="M301.124 385.504C301.124 386.027 300.998 386.517 300.746 386.974C300.503 387.431 300.116 387.8 299.584 388.08C299.061 388.36 298.398 388.5 297.596 388.5H295.958V392.252H293.998V382.48H297.596C298.352 382.48 298.996 382.611 299.528 382.872C300.06 383.133 300.456 383.493 300.718 383.95C300.988 384.407 301.124 384.925 301.124 385.504ZM297.512 386.918C298.053 386.918 298.454 386.797 298.716 386.554C298.977 386.302 299.108 385.952 299.108 385.504C299.108 384.552 298.576 384.076 297.512 384.076H295.958V386.918H297.512ZM304.475 384.062V386.512H307.765V388.066H304.475V390.656H308.185V392.252H302.515V382.466H308.185V384.062H304.475ZM315.007 392.252L312.851 388.444H311.927V392.252H309.967V382.48H313.635C314.391 382.48 315.035 382.615 315.567 382.886C316.099 383.147 316.495 383.507 316.757 383.964C317.027 384.412 317.163 384.916 317.163 385.476C317.163 386.12 316.976 386.703 316.603 387.226C316.229 387.739 315.674 388.094 314.937 388.29L317.275 392.252H315.007ZM311.927 386.974H313.565C314.097 386.974 314.493 386.848 314.755 386.596C315.016 386.335 315.147 385.975 315.147 385.518C315.147 385.07 315.016 384.725 314.755 384.482C314.493 384.23 314.097 384.104 313.565 384.104H311.927V386.974ZM324.969 382.48V384.062H320.895V386.568H324.017V388.122H320.895V392.252H318.935V382.48H324.969ZM328.319 384.062V386.512H331.609V388.066H328.319V390.656H332.029V392.252H326.359V382.466H332.029V384.062H328.319ZM333.334 387.352C333.334 386.391 333.549 385.532 333.978 384.776C334.417 384.011 335.01 383.418 335.756 382.998C336.512 382.569 337.357 382.354 338.29 382.354C339.382 382.354 340.339 382.634 341.16 383.194C341.982 383.754 342.556 384.529 342.882 385.518H340.628C340.404 385.051 340.087 384.701 339.676 384.468C339.275 384.235 338.808 384.118 338.276 384.118C337.707 384.118 337.198 384.253 336.75 384.524C336.312 384.785 335.966 385.159 335.714 385.644C335.472 386.129 335.35 386.699 335.35 387.352C335.35 387.996 335.472 388.565 335.714 389.06C335.966 389.545 336.312 389.923 336.75 390.194C337.198 390.455 337.707 390.586 338.276 390.586C338.808 390.586 339.275 390.469 339.676 390.236C340.087 389.993 340.404 389.639 340.628 389.172H342.882C342.556 390.171 341.982 390.95 341.16 391.51C340.348 392.061 339.392 392.336 338.29 392.336C337.357 392.336 336.512 392.126 335.756 391.706C335.01 391.277 334.417 390.684 333.978 389.928C333.549 389.172 333.334 388.313 333.334 387.352ZM351.206 382.48V384.062H348.602V392.252H346.642V384.062H344.038V382.48H351.206ZM357.932 384.062V386.512H361.222V388.066H357.932V390.656H361.642V392.252H355.972V382.466H361.642V384.062H357.932ZM371.782 392.252H369.822L365.384 385.546V392.252H363.424V382.466H365.384L369.822 389.186V382.466H371.782V392.252ZM377.134 382.48C378.161 382.48 379.062 382.681 379.836 383.082C380.62 383.483 381.222 384.057 381.642 384.804C382.072 385.541 382.286 386.4 382.286 387.38C382.286 388.36 382.072 389.219 381.642 389.956C381.222 390.684 380.62 391.249 379.836 391.65C379.062 392.051 378.161 392.252 377.134 392.252H373.718V382.48H377.134ZM377.064 390.586C378.091 390.586 378.884 390.306 379.444 389.746C380.004 389.186 380.284 388.397 380.284 387.38C380.284 386.363 380.004 385.569 379.444 385C378.884 384.421 378.091 384.132 377.064 384.132H375.678V390.586H377.064ZM394.216 385.504C394.216 386.027 394.09 386.517 393.838 386.974C393.595 387.431 393.208 387.8 392.676 388.08C392.153 388.36 391.49 388.5 390.688 388.5H389.05V392.252H387.09V382.48H390.688C391.444 382.48 392.088 382.611 392.62 382.872C393.152 383.133 393.548 383.493 393.81 383.95C394.08 384.407 394.216 384.925 394.216 385.504ZM390.604 386.918C391.145 386.918 391.546 386.797 391.808 386.554C392.069 386.302 392.2 385.952 392.2 385.504C392.2 384.552 391.668 384.076 390.604 384.076H389.05V386.918H390.604ZM400.647 392.252L398.491 388.444H397.567V392.252H395.607V382.48H399.275C400.031 382.48 400.675 382.615 401.207 382.886C401.739 383.147 402.136 383.507 402.397 383.964C402.668 384.412 402.803 384.916 402.803 385.476C402.803 386.12 402.617 386.703 402.243 387.226C401.87 387.739 401.315 388.094 400.577 388.29L402.915 392.252H400.647ZM397.567 386.974H399.205C399.737 386.974 400.134 386.848 400.395 386.596C400.657 386.335 400.787 385.975 400.787 385.518C400.787 385.07 400.657 384.725 400.395 384.482C400.134 384.23 399.737 384.104 399.205 384.104H397.567V386.974ZM409.112 392.35C408.197 392.35 407.357 392.135 406.592 391.706C405.827 391.277 405.22 390.684 404.772 389.928C404.324 389.163 404.1 388.299 404.1 387.338C404.1 386.386 404.324 385.532 404.772 384.776C405.22 384.011 405.827 383.413 406.592 382.984C407.357 382.555 408.197 382.34 409.112 382.34C410.036 382.34 410.876 382.555 411.632 382.984C412.397 383.413 412.999 384.011 413.438 384.776C413.886 385.532 414.11 386.386 414.11 387.338C414.11 388.299 413.886 389.163 413.438 389.928C412.999 390.684 412.397 391.277 411.632 391.706C410.867 392.135 410.027 392.35 409.112 392.35ZM409.112 390.6C409.7 390.6 410.218 390.469 410.666 390.208C411.114 389.937 411.464 389.555 411.716 389.06C411.968 388.565 412.094 387.991 412.094 387.338C412.094 386.685 411.968 386.115 411.716 385.63C411.464 385.135 411.114 384.757 410.666 384.496C410.218 384.235 409.7 384.104 409.112 384.104C408.524 384.104 408.001 384.235 407.544 384.496C407.096 384.757 406.746 385.135 406.494 385.63C406.242 386.115 406.116 386.685 406.116 387.338C406.116 387.991 406.242 388.565 406.494 389.06C406.746 389.555 407.096 389.937 407.544 390.208C408.001 390.469 408.524 390.6 409.112 390.6ZM418.984 382.48C420.011 382.48 420.911 382.681 421.686 383.082C422.47 383.483 423.072 384.057 423.492 384.804C423.921 385.541 424.136 386.4 424.136 387.38C424.136 388.36 423.921 389.219 423.492 389.956C423.072 390.684 422.47 391.249 421.686 391.65C420.911 392.051 420.011 392.252 418.984 392.252H415.568V382.48H418.984ZM418.914 390.586C419.941 390.586 420.734 390.306 421.294 389.746C421.854 389.186 422.134 388.397 422.134 387.38C422.134 386.363 421.854 385.569 421.294 385C420.734 384.421 419.941 384.132 418.914 384.132H417.528V390.586H418.914ZM427.535 382.48V388.528C427.535 389.191 427.708 389.699 428.053 390.054C428.399 390.399 428.884 390.572 429.509 390.572C430.144 390.572 430.634 390.399 430.979 390.054C431.325 389.699 431.497 389.191 431.497 388.528V382.48H433.471V388.514C433.471 389.345 433.289 390.049 432.925 390.628C432.571 391.197 432.09 391.627 431.483 391.916C430.886 392.205 430.219 392.35 429.481 392.35C428.753 392.35 428.091 392.205 427.493 391.916C426.905 391.627 426.439 391.197 426.093 390.628C425.748 390.049 425.575 389.345 425.575 388.514V382.48H427.535ZM434.889 387.352C434.889 386.391 435.104 385.532 435.533 384.776C435.972 384.011 436.564 383.418 437.311 382.998C438.067 382.569 438.912 382.354 439.845 382.354C440.937 382.354 441.894 382.634 442.715 383.194C443.536 383.754 444.11 384.529 444.437 385.518H442.183C441.959 385.051 441.642 384.701 441.231 384.468C440.83 384.235 440.363 384.118 439.831 384.118C439.262 384.118 438.753 384.253 438.305 384.524C437.866 384.785 437.521 385.159 437.269 385.644C437.026 386.129 436.905 386.699 436.905 387.352C436.905 387.996 437.026 388.565 437.269 389.06C437.521 389.545 437.866 389.923 438.305 390.194C438.753 390.455 439.262 390.586 439.831 390.586C440.363 390.586 440.83 390.469 441.231 390.236C441.642 389.993 441.959 389.639 442.183 389.172H444.437C444.11 390.171 443.536 390.95 442.715 391.51C441.903 392.061 440.946 392.336 439.845 392.336C438.912 392.336 438.067 392.126 437.311 391.706C436.564 391.277 435.972 390.684 435.533 389.928C435.104 389.172 434.889 388.313 434.889 387.352ZM452.761 382.48V384.062H450.157V392.252H448.197V384.062H445.593V382.48H452.761Z" fill="#0E4366"/>
<path d="M99.4362 272.376L103.418 268.196L97.8069 266.837L99.4362 272.376ZM109.756 227.62L109.418 229.015L110.39 229.251L110.728 227.856L109.756 227.62ZM108.743 231.805L108.067 234.595L109.039 234.83L109.715 232.041L108.743 231.805ZM107.392 237.385L106.717 240.175L107.689 240.41L108.364 237.62L107.392 237.385ZM106.041 242.965L105.366 245.755L106.338 245.99L107.013 243.2L106.041 242.965ZM104.691 248.545L104.015 251.334L104.987 251.57L105.663 248.78L104.691 248.545ZM103.34 254.124L102.665 256.914L103.637 257.149L104.312 254.36L103.34 254.124ZM101.989 259.704L101.314 262.494L102.286 262.729L102.961 259.939L101.989 259.704ZM100.639 265.284L99.9633 268.074L100.935 268.309L101.611 265.519L100.639 265.284Z" fill="#0E4366"/>
<path d="M262.795 364.431L257.022 364.466L259.938 369.448L262.795 364.431ZM187.964 408.814L189.215 408.082L188.71 407.219L187.458 407.951L187.964 408.814ZM191.718 406.617L194.221 405.152L193.715 404.289L191.213 405.754L191.718 406.617ZM196.723 403.687L199.226 402.222L198.721 401.359L196.218 402.824L196.723 403.687ZM201.729 400.757L204.232 399.291L203.727 398.428L201.224 399.894L201.729 400.757ZM206.735 397.826L209.237 396.361L208.732 395.498L206.229 396.963L206.735 397.826ZM211.74 394.896L214.243 393.431L213.738 392.568L211.235 394.033L211.74 394.896ZM216.746 391.966L219.249 390.501L218.743 389.638L216.241 391.103L216.746 391.966ZM221.751 389.036L224.254 387.571L223.749 386.708L221.246 388.173L221.751 389.036ZM226.757 386.106L229.26 384.641L228.755 383.778L226.252 385.243L226.757 386.106ZM231.763 383.176L234.265 381.711L233.76 380.848L231.257 382.313L231.763 383.176ZM236.768 380.246L239.271 378.781L238.766 377.918L236.263 379.383L236.768 380.246ZM241.774 377.316L244.277 375.851L243.772 374.988L241.269 376.453L241.774 377.316ZM246.779 374.386L249.282 372.92L248.777 372.057L246.274 373.523L246.779 374.386ZM251.785 371.455L254.288 369.99L253.783 369.127L251.28 370.592L251.785 371.455ZM256.791 368.525L259.294 367.06L258.788 366.197L256.286 367.662L256.791 368.525Z" fill="#0E4366"/>
</svg>
