<svg xmlns="http://www.w3.org/2000/svg" width="80" height="80" viewBox="0 0 80 80" fill="none">
  <path d="M33.8733 64.2089C27.8603 64.2089 21.9824 62.4276 16.9827 59.0904C11.9831 55.7532 8.08631 51.0098 5.78523 45.4602C3.48414 39.9106 2.88204 33.8039 4.05513 27.9124C5.22821 22.021 8.12378 16.6094 12.3756 12.3619C16.6275 8.11435 22.0447 5.22178 27.9421 4.0499C33.8396 2.87802 39.9525 3.47946 45.5078 5.77819C51.0631 8.07692 55.8113 11.9697 59.152 16.9642C62.4926 21.9587 64.2757 27.8307 64.2757 33.8376C64.2679 41.8902 61.0623 49.6107 55.3625 55.3047C49.6626 60.9987 41.9341 64.2011 33.8733 64.2089ZM33.8733 4.15993C27.9976 4.15993 22.2539 5.90051 17.3685 9.16154C12.483 12.4226 8.6752 17.0576 6.42667 22.4805C4.17814 27.9033 3.58986 33.8705 4.73615 39.6274C5.88244 45.3843 8.71184 50.6724 12.8666 54.8229C17.0213 58.9734 22.3148 61.7999 28.0776 62.945C33.8404 64.0901 39.8137 63.5024 45.2422 61.2562C50.6706 59.0099 55.3104 55.2061 58.5747 50.3256C61.8391 45.4452 63.5814 39.7073 63.5814 33.8376C63.5735 25.969 60.4412 18.4249 54.8715 12.8609C49.3019 7.297 41.75 4.16774 33.8733 4.15993Z" fill="white"/>
  <path d="M19.0357 64.2793C27.1036 68.2319 36.4093 68.821 44.9056 65.9169C53.402 63.0128 60.3931 56.8534 64.3409 48.7938C68.2887 40.7341 68.8698 31.4344 65.9564 22.9404C63.0431 14.4465 56.8739 7.45402 48.806 3.5014L45.4434 10.3664C51.6887 13.4261 56.4643 18.8389 58.7195 25.4141C60.9747 31.9892 60.5248 39.1881 57.4689 45.427C54.4129 51.6659 49.0012 56.4338 42.4242 58.6819C35.8472 60.93 28.6437 60.474 22.3983 57.4143L19.0357 64.2793Z" fill="white"/>
  <path d="M33.874 67.6787C24.89 67.6787 16.2741 64.1135 9.92149 57.7674C3.56889 51.4213 0 42.8141 0 33.8394C0 24.8646 3.56889 16.2574 9.92149 9.91134C16.2741 3.56524 24.89 0 33.874 0V7.64451C26.9195 7.64451 20.2499 10.4043 15.3324 15.3168C10.4149 20.2293 7.65229 26.8921 7.65229 33.8394C7.65229 40.7867 10.4149 47.4494 15.3324 52.3619C20.2499 57.2744 26.9195 60.0342 33.874 60.0342V67.6787Z" fill="white"/>
  <path d="M33.8912 55.7239C45.9906 55.7239 55.7992 45.9254 55.7992 33.8383C55.7992 21.7512 45.9906 11.9526 33.8912 11.9526C21.7917 11.9526 11.9832 21.7512 11.9832 33.8383C11.9832 45.9254 21.7917 55.7239 33.8912 55.7239Z" fill="white"/>
  <path d="M34.093 46.4967C36.9559 46.4776 39.7239 45.4636 41.9264 43.627C44.1289 41.7903 45.63 39.2445 46.1746 36.4222C46.7192 33.5998 46.2737 30.6752 44.9137 28.1455C43.5537 25.6157 41.3632 23.6369 38.7146 22.5455C36.066 21.454 33.1228 21.3173 30.3852 22.1585C27.6475 22.9998 25.2845 24.767 23.6977 27.1599C22.111 29.5528 21.3984 32.4236 21.6812 35.2844C21.964 38.1451 23.2246 40.8193 25.2489 42.8523C26.3972 44.0338 27.7743 44.9667 29.2954 45.5935C30.8164 46.2203 32.4492 46.5277 34.093 46.4967ZM34.093 48.0606C32.2096 48.0709 30.3444 47.6906 28.6141 46.9436C26.9488 46.2384 25.4335 45.2193 24.1503 43.9414C22.8821 42.6492 21.8678 41.1286 21.1606 39.4591C20.4154 37.727 20.0366 35.8583 20.0481 33.9715C20.0395 32.0804 20.4181 30.2078 21.1606 28.4698C22.5761 25.098 25.2449 22.4131 28.6002 20.9853C30.3334 20.2575 32.1934 19.8828 34.0721 19.8828C35.9508 19.8828 37.8109 20.2575 39.5442 20.9853C41.2103 21.6952 42.7254 22.7191 44.0079 24.0015C45.2887 25.2809 46.3089 26.7986 47.0116 28.4698C47.7364 30.2103 48.1096 32.078 48.1096 33.9645C48.1096 35.851 47.7364 37.7187 47.0116 39.4591C45.5853 42.8285 42.9136 45.5114 39.5581 46.9436C37.8365 47.6872 35.981 48.0674 34.1069 48.0606H34.093ZM31.8403 40.0875L41.8108 30.0756L40.7122 28.9585L31.8403 37.8673L27.3904 33.4129L26.2918 34.516L31.8403 40.0875Z" fill="black"/>
</svg>