<svg width="123" height="123" viewBox="0 0 123 123" fill="none" xmlns="http://www.w3.org/2000/svg">
<path d="M52.2755 99.0912C42.9958 99.0912 33.9246 96.3423 26.2088 91.1921C18.493 86.0418 12.4792 78.7215 8.928 70.157C5.37681 61.5924 4.44761 52.1682 6.25799 43.0761C8.06837 33.984 12.537 25.6324 19.0988 19.0773C25.6605 12.5223 34.0207 8.05829 43.1221 6.24976C52.2235 4.44123 61.6573 5.36942 70.2306 8.91698C78.8039 12.4645 86.1317 18.4721 91.2872 26.18C96.4428 33.8879 99.1946 42.95 99.1946 52.2202C99.1825 64.6475 94.2354 76.5623 85.439 85.3497C76.6426 94.1371 64.7155 99.0792 52.2755 99.0912ZM52.2755 6.41956C43.2077 6.41956 34.3437 9.10575 26.8041 14.1384C19.2645 19.171 13.388 26.3241 9.91792 34.6931C6.44783 43.062 5.53995 52.271 7.30899 61.1554C9.07803 70.0399 13.4446 78.2008 19.8564 84.6061C26.2683 91.0115 34.4375 95.3735 43.3311 97.1408C52.2246 98.908 61.4431 98.001 69.8207 94.5344C78.1982 91.0679 85.3586 85.1976 90.3964 77.6657C95.4342 70.1338 98.123 61.2787 98.123 52.2202C98.1109 40.0768 93.2768 28.4343 84.6814 19.8476C76.0859 11.2609 64.4313 6.43162 52.2755 6.41956Z" fill="#0E4366"/>
<path d="M29.3771 99.2C41.8281 105.3 56.1892 106.209 69.3014 101.727C82.4136 97.2454 93.2027 87.7399 99.2953 75.3017C105.388 62.8635 106.285 48.5115 101.788 35.403C97.2924 22.2945 87.7717 11.5033 75.3208 5.40338L70.1313 15.998C79.7695 20.7199 87.1395 29.0733 90.6199 39.2205C94.1003 49.3677 93.406 60.4775 88.6899 70.1059C83.9737 79.7342 75.6219 87.0924 65.4719 90.5618C55.3218 94.0311 44.2048 93.3275 34.5666 88.6055L29.3771 99.2Z" fill="#0E4366"/>
<path d="M52.2766 104.446C38.412 104.446 25.1153 98.9444 15.3115 89.1506C5.50776 79.3569 0 66.0737 0 52.2232C0 38.3728 5.50776 25.0896 15.3115 15.2959C25.1153 5.50212 38.412 0 52.2766 0V11.7975C41.5441 11.7975 31.2511 16.0567 23.6621 23.6379C16.073 31.2192 11.8095 41.5017 11.8095 52.2232C11.8095 62.9448 16.073 73.2272 23.6621 80.8085C31.2511 88.3898 41.5441 92.649 52.2766 92.649V104.446Z" fill="#0E4366"/>
<path d="M52.3028 85.9971C70.9755 85.9971 86.1128 70.8753 86.1128 52.2217C86.1128 33.5681 70.9755 18.4463 52.3028 18.4463C33.63 18.4463 18.4928 33.5681 18.4928 52.2217C18.4928 70.8753 33.63 85.9971 52.3028 85.9971Z" fill="#0E4366"/>
<path d="M52.6147 71.7565C57.0329 71.7271 61.3047 70.1621 64.7037 67.3277C68.1028 64.4933 70.4193 60.5644 71.2598 56.2087C72.1003 51.8531 71.4127 47.3397 69.3139 43.4356C67.2151 39.5315 63.8345 36.4776 59.747 34.7933C55.6595 33.1089 51.1174 32.8979 46.8925 34.1961C42.6676 35.4944 39.0207 38.2217 36.5719 41.9146C34.1231 45.6074 33.0235 50.0379 33.4599 54.4529C33.8963 58.8678 35.8419 62.9947 38.9658 66.1321C40.738 67.9556 42.8632 69.3953 45.2106 70.3626C47.558 71.3299 50.0778 71.8043 52.6147 71.7565ZM52.6147 74.17C49.7081 74.1858 46.8295 73.599 44.1592 72.4461C41.5892 71.3579 39.2507 69.7851 37.2703 67.8129C35.3132 65.8187 33.748 63.472 32.6564 60.8956C31.5065 58.2224 30.9219 55.3386 30.9396 52.4267C30.9263 49.5083 31.5107 46.6183 32.6564 43.9362C34.8411 38.7325 38.9597 34.5889 44.1377 32.3855C46.8126 31.2624 49.6831 30.6841 52.5824 30.6841C55.4818 30.6841 58.3524 31.2624 61.0273 32.3855C63.5985 33.4811 65.9368 35.0612 67.916 37.0403C69.8926 39.0147 71.4672 41.357 72.5516 43.9362C73.6701 46.6222 74.246 49.5045 74.246 52.4159C74.246 55.3273 73.6701 58.2096 72.5516 60.8956C70.3504 66.0955 66.2272 70.2358 61.0488 72.4461C58.3919 73.5938 55.5284 74.1805 52.6361 74.17H52.6147ZM49.1381 61.8654L64.5253 46.4143L62.8299 44.6903L49.1381 58.4389L42.2707 51.5646L40.5753 53.267L49.1381 61.8654Z" fill="#F2F8FA"/>
</svg>
