<svg width="70" height="70" viewBox="0 0 70 70" fill="none" xmlns="http://www.w3.org/2000/svg">
<g filter="url(#filter0_d_2_228)">
<rect x="15" y="13" width="40" height="40" rx="6" fill="#3A6480" fill-opacity="0.08"/>
<path fill-rule="evenodd" clip-rule="evenodd" d="M32.8573 30.4742H35.9523V32.0159C36.3982 31.1292 37.5415 30.3325 39.259 30.3325C42.5515 30.3325 43.3332 32.0975 43.3332 35.3359V41.3334H39.9998V36.0734C39.9998 34.2292 39.554 33.1892 38.419 33.1892C36.8448 33.1892 36.1907 34.31 36.1907 36.0725V41.3334H32.8573V30.4742ZM27.1415 41.1917H30.4748V30.3325H27.1415V41.1917ZM30.9523 26.7917C30.9525 27.0711 30.8971 27.3477 30.7893 27.6055C30.6816 27.8633 30.5237 28.0971 30.3248 28.2934C29.9218 28.6939 29.3763 28.9181 28.8082 28.9167C28.241 28.9163 27.6968 28.6927 27.2932 28.2942C27.095 28.0973 26.9377 27.8632 26.8301 27.6054C26.7226 27.3476 26.667 27.071 26.6665 26.7917C26.6665 26.2275 26.8915 25.6875 27.294 25.2892C27.6972 24.8902 28.2417 24.6664 28.809 24.6667C29.3773 24.6667 29.9223 24.8909 30.3248 25.2892C30.7265 25.6875 30.9523 26.2275 30.9523 26.7917Z" fill="white"/>
</g>
<defs>
<filter id="filter0_d_2_228" x="0.6" y="0.6" width="68.8" height="68.8" filterUnits="userSpaceOnUse" color-interpolation-filters="sRGB">
<feFlood flood-opacity="0" result="BackgroundImageFix"/>
<feColorMatrix in="SourceAlpha" type="matrix" values="0 0 0 0 0 0 0 0 0 0 0 0 0 0 0 0 0 0 127 0" result="hardAlpha"/>
<feOffset dy="2"/>
<feGaussianBlur stdDeviation="7.2"/>
<feComposite in2="hardAlpha" operator="out"/>
<feColorMatrix type="matrix" values="0 0 0 0 0 0 0 0 0 0 0 0 0 0 0 0 0 0 0.1 0"/>
<feBlend mode="normal" in2="BackgroundImageFix" result="effect1_dropShadow_2_228"/>
<feBlend mode="normal" in="SourceGraphic" in2="effect1_dropShadow_2_228" result="shape"/>
</filter>
</defs>
</svg>
