<svg width="20" height="24" viewBox="0 0 20 24" fill="none" xmlns="http://www.w3.org/2000/svg">
<path d="M10 12C10.6875 12 11.2762 11.7648 11.7663 11.2944C12.2563 10.824 12.5008 10.2592 12.5 9.6C12.5 8.94 12.255 8.3748 11.765 7.9044C11.275 7.434 10.6867 7.1992 10 7.2C9.3125 7.2 8.72375 7.4352 8.23375 7.9056C7.74375 8.376 7.49917 8.9408 7.5 9.6C7.5 10.26 7.745 10.8252 8.235 11.2956C8.725 11.766 9.31333 12.0008 10 12ZM10 24C6.64583 21.26 4.14083 18.7152 2.485 16.3656C0.829167 14.016 0.000833333 11.8408 0 9.84C0 6.84 1.00542 4.45 3.01625 2.67C5.02708 0.89 7.355 0 10 0C12.6458 0 14.9742 0.89 16.985 2.67C18.9958 4.45 20.0008 6.84 20 9.84C20 11.84 19.1717 14.0152 17.515 16.3656C15.8583 18.716 13.3533 21.2608 10 24Z" fill="white"/>
</svg>
