<svg width="378" height="534" viewBox="0 0 378 534" fill="none" xmlns="http://www.w3.org/2000/svg">
<g filter="url(#filter0_d_52_32)">
<path d="M201.581 517.383L201.396 517.568C205.323 515.536 209.131 513.282 212.802 510.818C213.544 510.818 216.909 508.497 218.135 507.97L218.049 508.07C220.901 506.062 224.423 504.681 227.203 502.758C227.004 503.026 226.738 503.237 226.433 503.371C228.096 502.25 229.851 501.274 231.68 500.451C236.727 497.475 243.885 493.473 246.964 491.28L246.765 491.466C247.278 491.081 247.692 490.811 248.077 490.569L248.832 490.127L249.688 489.629C249.688 489.159 249.688 488.66 249.688 488.076V487.45V486.752C249.688 486.624 249.688 486.453 249.688 486.482C249.445 484.146 249.688 479.675 249.545 477.781L249.688 477.667V473.025V474.762C249.26 474.15 249.944 471.244 249.688 467.87C249.688 464.722 248.818 461.476 249.032 458.2C248.832 456.634 249.346 459.624 249.189 457.246C249.417 457.161 249.331 458.329 249.502 457.73C249.403 455.438 249.731 453.971 249.502 451.151L249.673 451.023C249.374 447.335 249.902 444.074 249.673 441.61C249.531 437.808 250.173 439.061 249.845 435.103L250.073 433.565C250.073 431.87 249.802 432.354 249.902 430.475C250.058 430.588 250.016 428.096 250.158 429.193C250.244 427.769 250.23 426.202 250.158 424.636C250.158 423.853 250.158 423.055 250.158 422.244V421.347H250.23L250.515 421.147C254.407 418.741 253.366 420.051 257.387 417.388L259.098 416.661C260.88 415.679 260.224 415.693 262.235 414.668C262.235 414.853 264.758 413.343 263.661 414.112C268.195 411.763 272.472 408.658 278.503 405.568C279.63 404.6 282.638 403.048 283.479 402.321C283.693 402.321 289.368 398.947 286.203 401.083C285.932 401.268 285.433 401.553 285.447 401.481L285.133 401.852C288.612 400.214 291.093 398.22 294.401 396.369C293.403 396.882 292.105 397.651 292.975 397.053L296.041 395.301L295.47 395.785L300.076 393.236L299.348 393.45C301.293 392.577 303.167 391.553 304.952 390.388C306.021 389.605 302.728 391.399 305.052 389.989L307.19 388.85L308.388 388.209L308.702 388.053L309.001 388.224C309.001 388.124 309.329 388.224 309.628 388.409C309.928 388.594 310.184 388.665 310.085 388.409C312.836 389.705 314.619 391.599 315.945 391.485C316.63 391.87 317.275 392.323 317.87 392.837L317.57 392.709C319.837 393.948 320.493 394.318 322.147 395.287C323.062 395.539 323.94 395.913 324.756 396.398C324.214 396.241 324.756 396.568 325.383 396.896C325.027 396.711 324.884 396.697 325.569 397.195C325.727 397.226 325.881 397.278 326.025 397.352C326.98 397.836 326.838 397.708 326.424 397.437C326.424 397.437 326.424 397.437 326.31 397.28C327.18 397.992 329.005 398.818 329.005 399.103C331.857 400.655 333.938 401.581 336.305 402.848C336.505 403.105 335.906 402.848 335.207 402.549L336.875 403.446C336.776 403.603 335.877 402.991 335.364 402.734C337.175 404.158 339.542 404.814 341.709 406.38L342.265 406.522L342.393 406.622C342.393 406.622 342.992 406.764 343.334 406.935C343.677 407.106 343.135 407.234 344.275 407.889C345.492 408.662 346.77 409.334 348.096 409.897C347.469 409.513 347.726 409.556 348.025 409.669C348.596 409.983 348.838 410.31 349.323 410.51V410.681C349.48 410.581 350.934 411.393 351.162 411.435C351.404 411.763 350.207 411.051 350.007 411.065L353.443 413.016C354.741 413.586 353.329 412.717 353.999 412.888C355.169 413.442 356.303 414.069 357.393 414.768L357.093 414.383C358.7 415.131 360.229 416.038 361.656 417.089C377.482 424.422 365.933 417.089 365.933 417.089C360.23 413.315 356.879 412.033 349.75 408.089C343.591 404.429 342.137 403.162 335.635 399.545C332.584 397.75 329.276 395.942 326.253 394.247C324.685 393.678 322.318 391.983 320.55 391.228L319.98 390.701C319.318 390.441 318.691 390.102 318.112 389.69C317.185 389.306 316.244 388.679 315.774 388.48L314.719 387.882H314.932C314.148 387.497 313.364 387.084 312.608 386.657C312.223 386.458 311.853 386.23 311.496 386.016L310.969 385.703L310.712 385.546L310.584 385.461L310.512 385.646L310.356 385.504V385.376V384.308V382.342C310.356 381.032 310.356 379.722 310.356 378.469C310.17 378.882 310.17 377.7 310.127 376.49L310.299 376.347C310.07 371.691 310.683 374.638 310.484 370.025L310.256 369.213C310.256 368.686 310.184 368.273 310.17 367.917C310.07 365.439 310.541 366.393 310.17 362.349C310.17 364.172 309.799 363.203 309.871 360.925L310.042 361.495C310.042 360.256 309.928 359.828 310.042 359.003C310.127 359.743 310.284 359.401 310.256 357.579L310.455 358.803L310.156 355.343C310.156 354.631 310.156 353.819 310.227 352.979C310.227 352.893 310.227 352.808 310.227 352.723C310.227 351.299 310.227 349.789 310.227 348.294C310.232 347.969 310.261 347.646 310.313 347.326C310.313 347.326 310.413 341.943 310.199 340.391C310.341 341.088 310.398 338.283 310.569 339.137C310.346 336.59 310.303 334.03 310.441 331.476V331.818C310.527 328.97 310.441 326.449 310.441 324.043C310.441 322.846 310.441 321.679 310.37 320.497C310.37 319.899 310.37 319.315 310.37 318.717C310.37 318.361 310.37 318.005 310.37 317.663L310.455 317.592L310.74 317.421L311.125 317.179C311.639 316.851 312.152 316.524 312.68 316.21C313.72 315.555 314.804 314.9 315.987 314.231C319.994 312.351 326.995 307.923 331.044 305.359C336.633 301.628 343.976 298.738 349.679 294.879C349.925 294.765 350.148 294.605 350.335 294.409L355.796 291.304C355.796 291.304 382.273 276.167 361 285.608L361.1 285.48C358.689 286.626 356.392 288 354.242 289.581C353.728 289.425 351.775 291.005 351.019 291.247C349.351 292.557 347.155 293.184 345.53 294.437C345.53 294.366 345.53 294.252 345.972 294.01C345.002 294.729 343.937 295.309 342.807 295.733C339.784 297.542 335.464 299.905 333.696 301.344L333.796 301.215C332.963 301.835 332.092 302.401 331.187 302.91C331.101 302.91 331.015 302.91 331.015 302.91C329.932 303.821 327.494 304.989 326.567 305.644L326.424 305.545L324.029 306.969L324.941 306.484C324.842 307.026 322.988 307.31 321.377 308.549C319.709 309.446 318.525 311.226 316.672 312.024C315.959 312.665 317.228 311.34 316.087 312.166C315.945 312.01 316.586 311.725 316.187 311.753C315.046 312.537 314.12 312.693 312.722 313.662L312.58 313.548C311.872 314.094 311.113 314.571 310.313 314.972L309.329 315.456L308.73 315.1L307.803 314.516C307.932 314.829 305.308 313.192 305.836 313.79C300.46 310.942 296.525 307.823 294.244 307.41C291.834 306.057 291.506 305.616 290.28 304.861L290.879 305.16C286.374 302.64 285.062 301.899 281.754 299.962C280.006 299.241 278.31 298.398 276.678 297.442C277.719 297.869 276.493 297.2 275.381 296.559C276.094 296.943 276.35 297.029 274.939 296.103C274.642 295.986 274.351 295.853 274.069 295.704C272.187 294.679 272.486 294.907 273.342 295.42C273.342 295.42 273.342 295.491 273.598 295.676C271.759 294.394 268.223 292.586 268.109 292.244C262.506 289.069 258.385 286.989 253.694 284.398C253.238 283.985 254.379 284.512 255.747 285.252L252.425 283.387C253.467 283.806 254.465 284.326 255.405 284.939C254.45 284.312 253.452 283.714 252.425 283.13C251.912 282.831 251.384 282.546 250.857 282.262L250.144 281.863V281.621V280.553V278.588C250.144 277.278 250.144 275.967 250.144 274.714C249.959 275.127 249.959 273.945 249.916 272.735L250.087 272.593C249.859 267.936 250.472 270.884 250.272 266.27L250.044 265.458C249.702 261.286 250.401 263.208 249.93 258.58C249.93 260.403 249.559 259.434 249.631 257.156L249.802 257.726C249.802 256.473 249.702 256.06 249.731 255.234C249.816 255.974 249.973 255.632 249.944 253.81L250.144 255.034L249.845 251.574C250.016 248.897 249.845 244.653 250.03 243.557C250.03 243.557 250.13 238.159 249.916 236.622C250.058 237.319 250.115 234.514 250.287 235.368C250.063 232.821 250.02 230.261 250.158 227.707V228.035C250.244 225.187 250.158 222.68 250.158 220.274C250.158 219.078 250.158 217.91 250.158 216.728C250.158 216.13 250.158 215.532 250.158 214.934V212.242L248.561 211.302L247.635 210.718C247.763 211.018 245.139 209.38 245.667 209.992L245.439 209.864C243.14 208.316 240.76 206.889 238.31 205.592C237.204 204.866 236.029 204.251 234.802 203.755L231.951 202.331C231.252 201.861 230.839 201.519 230.112 201.078L230.71 201.377C226.789 199.17 225.292 198.329 222.783 196.877C220.687 195.553 218.662 194.299 215.169 192.391C212.118 190.597 208.81 188.774 205.787 187.094C204.219 186.524 201.852 184.83 200.084 184.061L199.5 183.548C198.841 183.277 198.214 182.933 197.632 182.523H197.703C196.805 182.152 195.907 181.554 195.436 181.341L194.381 180.757H194.581L195.251 181.127C194.3 180.501 193.316 179.902 192.299 179.333L190.759 178.478L189.99 178.066C189.99 177.766 189.99 177.482 189.99 177.183V175.217C189.99 173.907 189.989 172.597 190.061 171.344C189.861 171.743 189.861 170.575 189.833 169.35L189.99 169.208C189.761 164.566 190.374 167.513 190.175 162.885L189.947 162.074C189.947 161.561 189.875 161.134 189.861 160.778C189.761 158.286 190.246 159.254 189.861 155.196C189.861 157.033 189.49 156.064 189.562 153.772L189.733 154.341C189.733 153.088 189.633 152.675 189.662 151.849C189.747 152.59 189.904 152.234 189.875 150.425L190.075 151.664L189.776 148.189C189.776 147.492 189.776 146.666 189.847 145.825C189.847 145.74 189.847 145.655 189.847 145.569C189.847 144.145 189.847 142.636 189.847 141.155C189.852 140.826 189.881 140.497 189.932 140.172C189.932 140.172 190.032 134.789 189.818 133.251C189.961 133.935 190.018 131.13 190.189 131.984C189.966 129.441 189.923 126.886 190.061 124.337V124.664C190.146 121.816 190.061 119.296 190.061 116.903C190.061 115.707 190.061 114.525 190.061 113.343C190.061 112.76 190.061 112.161 190.061 111.563V110.51H190.146L190.432 110.324L190.816 110.082L192.371 109.114C193.411 108.459 194.495 107.804 195.678 107.149C199.685 105.269 206.686 100.84 210.735 98.2772C216.324 94.5462 223.667 91.6554 229.37 87.7821C229.616 87.6681 229.839 87.5087 230.026 87.3122L235.487 84.2078C235.487 84.2078 261.964 69.0704 240.691 78.5117L240.791 78.3693C238.385 79.5266 236.09 80.8993 233.933 82.4705C233.419 82.3281 231.466 83.8945 230.71 84.1508V84.0796C229.042 85.3897 226.846 86.0305 225.221 87.2694C225.221 87.1982 225.221 87.0843 225.663 86.8565C224.691 87.5672 223.626 88.1421 222.498 88.5653C219.475 90.3881 215.155 92.7519 213.387 94.1902L213.487 94.0621C212.654 94.6773 211.782 95.2385 210.877 95.7424H210.706C209.623 96.6538 207.185 97.8072 206.258 98.4623L206.115 98.3769L203.72 99.8009L204.632 99.3025C204.533 99.8436 202.679 100.128 201.068 101.382C199.4 102.279 198.216 104.045 196.363 104.856C195.65 105.497 196.919 104.158 195.778 104.999C195.636 104.828 196.277 104.557 195.878 104.586C194.737 105.355 193.811 105.511 192.413 106.494L192.271 106.38C191.567 106.932 190.807 107.41 190.004 107.804L189.02 108.302L188.421 107.932L187.494 107.362C187.623 107.662 184.999 106.024 185.527 106.622C180.151 103.774 176.216 100.67 173.935 100.242C171.525 98.9038 171.197 98.4481 169.971 97.7076L170.57 98.0066C166.065 95.4719 164.753 94.7314 161.445 92.7947C159.7 92.0815 158.008 91.2439 156.383 90.2884C157.41 90.7156 156.184 90.0321 155.072 89.3912C155.799 89.79 156.041 89.8612 154.63 88.9356C154.402 88.8643 154.074 88.6935 153.76 88.5511C151.878 87.5258 152.177 87.7536 153.033 88.2663C153.033 88.2663 153.033 88.2662 153.289 88.5083C151.45 87.2409 147.914 85.4325 147.8 85.0764C142.197 81.9151 138.076 79.836 133.385 77.23C132.929 76.8313 134.07 77.3582 135.438 78.0845L132.116 76.2332C133.158 76.653 134.156 77.1728 135.096 77.7854C134.141 77.1446 133.143 76.5465 132.116 75.9626L130.548 75.1082L128.523 73.9833C128.907 73.2316 129.217 72.4447 129.45 71.6336C129.654 70.7511 129.609 69.8295 129.322 68.9707C129.707 68.8425 129.322 68.0308 129.493 67.7602C129.193 67.0625 129.735 66.3362 129.493 65.6384C129.493 65.6384 129.635 65.6384 129.65 65.8378C129.65 65.3536 129.507 64.6701 129.735 64.6416C129.8 63.4461 129.695 62.2474 129.421 61.0816C129.179 60.6543 129.422 60.5262 129.265 60.0563C129.022 59.5863 129.265 58.6322 129.122 58.3189H129.279V57.3933V57.7351C128.851 57.6212 129.536 57.0373 129.279 56.3111C129.279 55.6703 128.409 55.0294 128.623 54.3744C128.423 54.0611 128.937 54.645 128.78 54.175C129.008 54.175 128.922 54.4029 129.094 54.2747C128.994 53.819 129.322 53.52 129.165 52.9646H129.336C129.037 52.2241 129.564 51.5406 129.265 51.0849C129.122 50.3159 129.778 50.5722 129.436 49.7748L129.664 49.4757C129.664 49.134 129.393 49.2336 129.493 48.8492C129.65 48.8492 129.621 48.3792 129.749 48.5928C129.978 47.7526 129.436 46.8697 129.749 45.7448C129.479 45.5027 129.635 44.9473 129.436 44.7622C129.55 44.7622 129.436 43.6372 129.721 44.2638C129.721 44.2638 129.721 44.4204 129.721 44.4062L129.878 44.4916C130.191 43.8508 129.707 43.3239 129.764 42.6973C129.764 42.8825 129.764 43.1246 129.607 42.9679V42.3698L129.749 42.498L129.835 41.6151L129.664 41.7432C129.749 41.316 130.049 41.1594 129.792 40.6752C129.664 40.4616 129.564 41.0882 129.507 40.6752C129.667 39.9611 129.786 39.2385 129.863 38.5107C129.664 38.5819 129.664 38.3825 129.635 38.1832H129.792C129.564 37.4142 130.177 37.9126 129.978 37.1294L129.749 37.0012C129.407 36.3035 130.106 36.631 129.635 35.8478C129.635 36.1611 129.265 36.0044 129.336 35.6199L129.507 35.7196C129.507 35.506 129.407 35.4348 129.436 35.3066C129.521 35.4206 129.678 35.3066 129.65 35.0645L129.849 35.2639L129.55 34.6943C129.721 34.2386 129.55 33.5408 129.735 33.3557C129.735 33.3557 129.849 32.3874 129.593 32.1738C129.749 32.3731 129.806 31.832 129.992 31.9887C129.883 31.7954 129.816 31.5818 129.794 31.3612C129.772 31.1407 129.795 30.918 129.863 30.707C130.063 29.6248 129.607 28.8558 129.863 27.859C129.678 27.859 129.778 27.389 129.521 27.5172C129.279 26.5062 130.035 25.6802 129.265 25.31C129.265 24.8543 129.45 24.7688 129.479 24.541V24.6407C129.446 24.0573 129.446 23.4725 129.479 22.8891C129.407 22.5758 129.051 22.5189 129.136 21.9493C129.279 22.1344 129.25 21.9492 129.25 21.6929C129.25 21.8353 129.322 21.8781 129.421 21.5932C129.38 21.5495 129.35 21.4955 129.336 21.4366C129.336 21.0806 129.236 21.1376 129.222 21.3084C129.209 21.3021 129.194 21.2988 129.179 21.2988C129.164 21.2988 129.15 21.3021 129.136 21.3084C129.322 20.9382 129.136 20.2831 129.364 20.2262C129.364 19.1581 129.051 18.3892 128.951 17.5063C129.079 17.4066 129.193 17.606 129.25 17.8623V17.2357C129.436 17.2357 129.364 17.606 129.393 17.7911C129.692 17.0364 129.108 16.2389 129.393 15.356L129.25 15.1709C129.179 15.1709 129.079 14.9857 129.051 14.8433C129.022 14.7009 129.422 14.8433 129.407 14.4161C129.393 13.9889 129.336 13.4336 129.25 12.9921C129.25 13.2484 129.122 13.163 129.079 13.0633C129.037 12.9636 129.222 12.7073 129.151 12.5507H129.379C129.165 12.6361 129.151 11.9811 129.065 11.8956C129.222 11.7817 129.208 12.2374 129.322 12.2943C129.322 11.4114 129.322 11.8529 129.322 10.97C129.165 10.5143 129.122 11.0554 128.937 10.8418C128.826 10.419 128.802 9.97832 128.865 9.54596L128.68 9.7026C128.516 9.12134 128.541 8.50298 128.751 7.93682C127.197 2.14102 126.627 6.71215 126.627 6.71215C126.199 8.9906 126.755 10.1725 126.898 12.8782C126.677 14.6972 126.572 16.5284 126.584 18.3607C126.584 19.5426 126.584 20.7958 126.684 21.9493C126.983 22.5046 126.684 23.4587 126.941 24.1138L126.77 24.3559C126.855 24.5856 126.855 24.8382 126.77 25.0679C126.832 25.3585 126.87 25.6538 126.884 25.9508V26.3495V26.2783C126.999 26.8404 127.023 27.4174 126.955 27.9871H127.154C126.926 29.1121 127.34 29.5251 127.083 30.5504C127.611 31.832 126.741 32.5725 127.226 33.8969C127.226 33.7402 127.126 33.9681 127.083 33.9681C127.083 34.5662 127.169 35.2212 127.554 35.2354C127.554 35.6769 127.44 35.5914 127.283 35.6484C127.454 35.6484 127.539 36.3889 127.539 36.3889L127.468 36.2323V37.2148L127.796 37.0297C127.696 37.5566 127.397 37.1579 127.482 37.6705H127.739C127.594 38.3139 127.379 38.9394 127.097 39.536C126.983 42.4695 127.654 45.6309 127.183 48.365L126.983 48.4931C126.698 48.4931 127.425 49.2479 127.154 49.3476L127.283 49.6608C127.283 49.7463 127.169 49.9457 127.112 49.789C127.091 49.9698 127.137 50.1518 127.24 50.3017L127.055 50.615C126.912 51.7684 127.269 52.751 127.197 53.9756C126.966 55.9144 127.019 57.8764 127.354 59.7999C127.796 62.0357 126.627 64.6274 127.126 66.9201C127.121 66.9686 127.126 67.0177 127.141 67.0642C127.155 67.1108 127.179 67.1538 127.212 67.1907V69.284C127.212 69.284 127.212 73.5561 127.796 74.4389L126.37 75.2791L124.773 76.2332C123.69 76.874 122.578 77.5006 121.409 78.0987L120.525 78.7822L120.239 78.9104C119.755 79.3612 119.219 79.7532 118.642 80.0781C117.915 80.3059 118.5 79.7221 116.233 81.0464C114.351 81.9578 111.157 84.0654 108.833 85.5037C110.116 84.7916 109.76 85.1049 109.232 85.5037C108.106 86.1587 107.364 86.4008 106.523 86.9277L106.352 86.828C106.224 87.0843 103.401 88.7362 103.058 89.021C102.331 89.2631 104.755 87.8818 104.983 87.597L98.1537 91.5842C95.8011 93.1222 98.6955 91.4988 97.6262 92.339C95.5017 93.6064 93.4771 94.9449 90.9392 96.255L91.8089 95.9702C88.832 97.8759 85.7576 99.6251 82.5982 101.211C74.628 106.294 70.6072 109.014 68.9676 110.296C68.8392 109.513 68.6824 109.527 68.4971 110.666C67.8697 111.207 67.941 111.321 68.4258 111.165C68.1263 113.372 67.7557 118.285 67.2994 127.114L67.2281 126.8C67.0712 133.679 67.0427 138.008 67.3707 142.764C66.9715 143.504 67.3707 148.46 67.1996 150.012V149.87C67.499 154.056 66.9429 158.514 67.1996 162.558C67.0908 162.242 67.0424 161.909 67.057 161.575C67.1928 163.91 67.1595 166.252 66.9572 168.581C66.9572 171.558 66.9572 175.004 66.9572 178.379L66.3298 178.763L64.8328 179.703C63.8347 180.33 62.8509 180.942 61.8101 181.569C61.311 181.711 62.1523 181.099 63.2359 180.401L60.5126 182.024C60.4413 181.853 62.0382 181.027 62.8651 180.515C59.4432 182.138 56.2779 184.659 52.3 186.624L51.5871 187.208L51.3447 187.322C50.9505 187.707 50.5098 188.042 50.0329 188.318C49.4056 188.489 49.8904 187.977 47.9941 189.073C46.4114 189.814 43.7167 191.608 41.8489 192.818C42.9182 192.22 42.6188 192.505 42.191 192.818C41.25 193.374 40.6227 193.559 39.924 194.029L39.7672 193.929C39.6674 194.171 37.3148 195.553 37.0439 195.795C36.4308 195.966 38.4697 194.826 38.6265 194.584L32.9233 197.902C30.97 199.212 33.3938 197.902 32.5098 198.6C30.7418 199.668 29.0737 200.807 26.9492 201.875L27.6906 201.662C25.2215 203.271 22.6549 204.727 20.0056 206.019C-4.23301 221.826 15.7282 210.904 15.7282 210.904C25.8086 205.578 30.6278 202.146 42.3194 195.239C52.6992 189.372 55.6221 188.119 66.2586 181.796L68.1406 180.728L70.2793 181.939L72.8315 183.363L74.8134 184.431L80.0888 187.421C80.7589 187.72 81.5146 188.119 82.3844 188.589L82.1705 188.489C82.243 188.534 82.3193 188.572 82.3986 188.603C84.6656 189.871 87.3747 191.537 89.5276 192.562H89.6274L90.597 193.317L91.595 193.815L93.6624 194.983H93.5769L94.6177 195.524L96.4142 196.549L95.9152 196.25C96.5283 196.606 97.0701 196.905 97.4123 197.076H97.3268L98.5814 197.774L98.9949 198.03L98.7668 197.945L99.5225 198.344C100.216 198.771 100.972 199.184 101.789 199.583C102.16 199.81 102.531 200.01 102.916 200.223C104.057 200.864 105.169 201.519 106.195 202.146L106.11 201.861C109.532 204.026 111.542 204.98 113.966 206.375C115.007 207.002 115.948 207.628 117.103 208.326L117.274 208.412C117.858 208.768 118.514 209.124 119.27 209.522V209.736C120.952 210.562 122.478 211.473 123.889 212.328L125.928 213.581L126.869 214.15C126.863 214.188 126.863 214.227 126.869 214.264C126.869 214.635 126.869 215.005 126.869 215.389C126.869 216.158 126.912 216.97 126.998 217.824C126.998 216.998 126.898 218.18 126.855 218.109C126.855 221.157 126.941 224.418 127.326 224.475C127.326 226.696 127.211 226.283 127.055 226.568C127.273 227.534 127.355 228.527 127.297 229.516C127.297 229.63 127.297 229.758 127.297 229.886V229.43V230.413L127.226 230.114C127.112 235.425 127.069 239.228 127.226 242.859C127.14 243.799 127.055 244.795 126.998 245.92C126.998 251.958 126.998 258.167 127.112 264.347V265.586C127.095 265.349 127.095 265.111 127.112 264.874C127.248 267.209 127.214 269.551 127.012 271.881C127.012 274.956 127.012 278.531 127.012 282.005L124.46 283.429C123.348 284.042 122.264 284.64 121.18 285.209L120.553 285.338C120.182 285.224 117.502 287.602 116.917 287.63L115.605 288.542C115.192 288.712 114.351 289.14 114.992 288.684C114.241 289.106 113.522 289.582 112.839 290.108L111.414 290.735C106.324 293.512 102.217 296.274 96.8848 299.279C90.3546 302.625 78.5489 309.831 71.7621 313.975L69.7946 315.185L68.2689 316.097L67.1283 315.442L65.4743 314.473L62.1522 312.465L55.451 308.35C50.9597 305.601 46.4685 302.896 42.077 300.617C41.7027 300.372 41.3006 300.171 40.8793 300.019L31.8255 294.75C31.8255 294.75 -12.1462 269.26 20.0911 290.649L19.8345 290.578C23.5733 292.971 27.4432 295.153 31.4263 297.114C31.7685 297.769 35.4898 299.507 36.5877 300.276H36.4593C39.6389 301.7 42.576 304.092 45.6415 305.545C45.3094 305.49 44.9931 305.363 44.7147 305.174C46.5199 306.056 48.2467 307.09 49.8761 308.264C54.9947 311.112 62.0382 315.385 65.4743 316.894L65.2177 316.809C65.8023 317.065 66.2443 317.279 66.6435 317.492L67.4135 317.934L68.2689 318.432L69.6234 317.663L70.1652 317.335L70.7498 316.965L71.0065 316.866C72.917 315.442 76.895 313.434 78.4777 312.408L78.663 312.48L82.6695 310.116L81.1439 310.956C81.4576 310.301 84.3235 309.432 87.118 307.51C89.8698 305.986 92.2224 303.565 95.1738 302.098C96.4285 301.144 94.1329 303.067 96.0863 301.771C96.2574 301.913 95.2023 302.426 95.8154 302.283C97.7545 301.045 99.1803 300.589 101.519 299.051L101.704 299.136C104.755 297.029 107.849 295.847 109.831 294.366C113.053 292.344 112.298 293.526 115.534 291.262L116.96 290.692C118.386 289.88 117.873 289.837 119.555 288.997C119.555 289.182 121.665 287.915 120.781 288.584C122.107 287.901 123.405 287.16 124.745 286.32L126.798 285.067L127.867 284.426L128.324 284.156L130.363 285.309L132.915 286.733C134.54 287.616 135.966 288.371 137.078 288.883L136.779 288.784C139.131 289.866 139.63 290.421 142.225 291.746C142.354 291.86 142.525 291.974 142.482 291.959C145.034 293.155 149.611 296.018 151.607 297.057V297.257L156.469 300.019L154.672 298.951C155.514 298.951 158.194 301.287 161.801 303.067C165.052 305.003 168.93 306.157 172.196 308.307C173.921 309.062 170.599 307.752 173.108 309.019C173.108 309.261 171.91 308.478 172.438 309.019C174.876 310.315 176.245 311.468 179.253 313.035V313.263C180.837 314.047 182.379 314.912 183.873 315.854L185.912 317.093L186.867 317.677L188.05 318.347C187.951 318.489 188.05 318.517 188.264 318.46H188.35C188.05 320.653 187.68 325.581 187.223 334.41L187.152 334.096C186.995 340.974 186.967 345.303 187.295 350.045C186.896 350.8 187.295 355.742 187.124 357.308V357.151C187.423 361.352 186.867 365.795 187.124 369.839C187.014 369.529 186.965 369.2 186.981 368.871C187.117 371.201 187.083 373.538 186.881 375.863C186.881 378.441 186.881 381.374 186.881 384.293L186.568 384.478L185.669 385.02C185.23 385.283 184.811 385.578 184.415 385.902C185.17 385.29 182.846 386.557 183.417 386.016C181.692 387.276 179.86 388.381 177.941 389.32L178.17 389.163C173.365 391.712 170.256 394.048 165.908 396.284C166.193 396.284 163.912 397.537 164.582 397.437C160.304 400.171 156.355 401.581 155.171 403.133C154.038 403.785 152.866 404.37 151.664 404.885L152.12 404.586C148.427 406.779 147.344 407.434 144.563 409C143.34 409.987 142.038 410.873 140.671 411.649C141.398 411.065 140.4 411.649 139.473 412.204C140.044 411.848 140.201 411.692 138.946 412.318C138.74 412.486 138.526 412.643 138.304 412.788C136.793 413.728 137.078 413.614 137.805 413.215C137.805 413.215 137.805 413.215 138.105 413.144C136.408 413.913 133.628 415.736 133.314 415.636L130.363 417.416L127.254 419.324V420.677V421.646C127.254 422.229 127.254 422.813 127.254 423.397C127.254 424.579 127.34 425.747 127.368 426.957C127.24 427.456 127.126 426.416 127.083 425.12V428.282C126.922 427.341 126.874 426.385 126.941 425.433C126.641 429.207 127.24 433.209 126.941 437.623L127.083 438.549V438.805C127.224 439.339 127.292 439.89 127.283 440.443C127.126 441.069 126.926 440.443 126.926 442.593C126.784 444.316 127.012 447.506 127.097 449.713C127.097 448.488 127.212 448.887 127.269 449.414C127.269 450.511 127.112 451.137 127.183 451.977L127.026 452.063C127.169 452.262 127.197 454.982 127.269 455.352C127.112 455.979 127.14 453.658 127.012 453.373C127.012 457.773 127.012 455.58 127.012 459.966C127.183 462.302 127.226 459.539 127.411 460.65C127.411 462.729 127.596 464.737 127.411 467.115L127.611 466.36C127.782 469.301 127.782 472.249 127.611 475.189C129.165 504.111 129.735 481.284 129.735 481.284C130.149 469.892 129.593 464.01 129.45 450.454C129.55 438.535 129.921 435.373 129.764 423.027V420.763L141.527 413.87C143.751 412.247 148.085 410.082 150.766 408.26L151.935 407.776C152.905 407.092 153.925 406.483 154.986 405.953V406.024C156.412 405.084 158.037 404.215 158.722 403.746V403.831L160.461 402.791L160.19 403.033C162.643 401.467 165.238 399.958 167.547 398.69H167.262C172.267 396.056 173.849 394.674 178.383 392.353V392.439C180.126 391.237 181.935 390.134 183.802 389.135L187.152 387.355L190.275 389.121L192.827 390.545C194.452 391.428 195.878 392.182 196.99 392.709L196.691 392.61C199.043 393.678 199.542 394.233 202.137 395.557C202.266 395.671 202.437 395.785 202.394 395.771C204.946 396.967 209.523 399.829 211.519 400.869V401.083L216.381 403.831L214.585 402.763C215.426 402.763 218.106 405.098 221.714 406.893C224.964 408.829 228.843 409.969 232.108 412.119C233.833 412.888 230.511 411.563 233.02 412.831C233.02 413.073 231.822 412.304 232.35 412.831C234.788 414.112 236.157 415.266 239.165 416.847V417.06C240.749 417.844 242.291 418.709 243.785 419.652L245.824 420.891L246.779 421.475L247.079 421.646V423.639C247.079 424.892 247.079 426.131 246.979 427.356L246.779 427.968C246.494 428.225 247.221 431.728 246.95 432.24L247.079 433.835C247.079 434.277 246.964 435.259 246.907 434.419C246.882 435.28 246.925 436.142 247.036 436.997L246.85 438.563C246.708 444.373 247.064 449.3 246.993 455.409C246.608 462.729 246.993 476.542 247.15 484.488C247.15 485.243 247.15 486.012 247.15 486.795C247.15 487.578 247.15 487.963 247.15 488.561L246.009 489.216L244.341 490.17L240.948 492.035L234.032 495.78C229.399 498.287 224.808 500.822 220.63 503.484C220.235 503.688 219.862 503.931 219.518 504.211L210.421 509.423C210.421 509.423 166.92 534.585 201.581 517.383ZM194.595 180.686C193.839 180.315 193.083 179.917 192.342 179.504C193.13 179.823 193.884 180.219 194.595 180.686ZM69.6805 173.124C69.6805 171.145 69.766 169.18 69.7803 167.229C69.7803 163.313 69.7803 159.468 69.6805 155.751C69.7026 155.218 69.6739 154.684 69.5949 154.156V141.582C69.5949 141.582 69.5949 116.547 69.0388 110.766C71.4342 109.755 77.3085 106.494 77.3085 106.494C89.3708 100.029 95.2023 96.013 109.232 87.7536C113.795 85.1619 117.145 83.3106 120.197 81.6303L124.659 79.181L126.926 77.9136L128.11 77.2443L128.409 77.0734L129.35 77.6288L131.389 78.7965L136.108 81.4737C142.211 85.048 148.798 88.7362 154.815 92.1539C157.809 93.5779 162.685 96.6965 166.221 98.4196L167.433 99.3167C168.713 99.9367 169.956 100.631 171.155 101.396H171.055C172.851 102.293 174.762 103.475 175.66 103.916H175.56L177.671 105.113L177.286 104.97C180.365 106.594 183.488 108.388 186.197 110.011L186.069 109.712L186.967 110.268L187.195 110.424V111.506C187.195 112.09 187.195 112.631 187.195 113.173V115.138V115.309C187.17 115.498 187.17 115.689 187.195 115.878V116.305C187.195 116.747 187.195 117.174 187.195 117.63C187.195 118.085 187.195 118.299 187.052 117.929C186.968 119.542 186.968 121.158 187.052 122.77V122.984V122.899L187.138 124.123C187.138 124.864 187.138 125.647 186.995 126.459C187.148 127.276 187.225 128.105 187.223 128.937C187.223 129.805 187.223 130.645 187.223 131.486C187.223 131.571 187.152 131.486 187.081 130.916C187.081 130.759 187.081 130.474 187.081 130.489L186.91 130.261C186.817 132.056 186.86 133.855 187.038 135.644C187.038 135.316 187.038 134.917 187.038 134.747C187.038 135.273 187.038 135.8 187.038 136.327V136.228L186.953 138.848L187.067 138.62C187.067 138.762 187.067 138.905 187.067 139.047C186.868 139.911 186.839 140.806 186.981 141.682C186.981 141.952 187.095 141.767 187.138 141.582C187.138 141.981 187.138 142.408 187.138 142.835C187.138 142.265 187.052 143.447 187.01 143.376C187.01 143.789 187.01 144.216 187.01 144.644C186.938 145.84 186.881 147.107 186.853 148.275C187.038 148.061 187.038 148.659 187.081 149.257H186.91C187.138 151.593 186.539 150.112 186.724 152.419L186.953 152.832C187.295 154.911 186.61 153.957 187.067 156.264C187.067 155.352 187.437 155.836 187.366 156.961L187.209 156.677C187.241 157.094 187.241 157.513 187.209 157.93C187.124 157.559 186.981 157.73 187.01 158.642L186.796 158.029L187.095 159.767C186.924 161.105 187.095 163.227 186.91 163.768C186.84 164.952 186.888 166.14 187.052 167.314C186.896 166.73 186.839 168.311 186.653 167.869C186.883 169.133 186.927 170.424 186.781 171.7V171.529C186.696 172.953 186.781 174.206 186.781 175.403C186.781 176.015 186.781 176.599 186.867 177.183V178.08L186.339 178.393L184.728 179.361C183.63 180.016 182.504 180.643 181.321 181.255L180.437 181.925L180.151 182.067C180.151 182.067 180.023 182.209 179.795 182.38L178.255 183.277C177.941 183.277 177.999 183.121 176.145 184.203C174.291 185.285 171.069 187.208 168.745 188.646C170.028 187.934 169.672 188.247 169.144 188.646C168.018 189.301 167.277 189.543 166.435 190.07L166.264 189.97C166.136 190.227 163.313 191.879 162.971 192.163C162.243 192.405 164.667 191.038 164.895 190.739L158.066 194.712C155.77 196.208 158.451 194.712 157.61 195.396C152.904 198.144 148.271 200.765 143.808 203.185L143.081 203.37C142.653 203.271 139.374 206.005 138.689 206.09L137.107 207.158C136.608 207.372 135.681 207.899 136.394 207.358C135.494 207.86 134.623 208.412 133.784 209.01L132.059 209.793L129.749 211.089L128.808 211.63L128.038 211.203L127.126 210.69C126.67 210.437 126.193 210.222 125.7 210.049C126.613 210.391 124.36 209.024 125.101 209.237C123.148 208.375 121.274 207.346 119.498 206.162L119.755 206.276C115.135 203.427 111.556 201.861 107.45 199.227C107.55 199.511 105.368 198.13 105.796 198.657C101.29 196.35 98.0681 193.616 96.1005 193.374C94.9685 192.723 93.8737 192.01 92.8212 191.238L93.3203 191.48C89.5561 189.372 88.4725 188.76 85.7207 187.208C84.2399 186.645 82.809 185.959 81.4433 185.157C82.3273 185.499 81.3007 184.929 80.374 184.402C80.9728 184.716 81.1867 184.787 80.0175 183.989C79.8179 183.989 79.547 183.804 79.2761 183.69C77.7077 182.836 77.9501 183.035 78.663 183.463C78.663 183.463 78.663 183.463 78.8626 183.69C77.3513 182.608 74.3856 181.113 74.3143 180.842L71.2916 179.176L69.2955 178.108V177.638V176.214C69.5949 175.118 69.6662 174.107 69.6805 173.124ZM129.906 270.627C129.906 270.442 129.906 270.271 129.906 270.086C129.9 270.148 129.9 270.21 129.906 270.271C129.942 270.507 129.942 270.747 129.906 270.983V270.627ZM182.946 312.337C180.793 311.141 178.583 309.916 176.245 308.535C168.802 303.807 154.273 295.818 145.89 291.219C143.18 289.795 140.4 288.186 137.591 286.534L133.314 284.013L131.175 282.717L130.106 282.077L129.978 281.991H129.906H129.821V281.436C129.821 281.051 129.821 280.667 129.821 280.268C129.821 279.485 129.821 278.673 129.935 277.833C129.844 277.364 129.796 276.887 129.792 276.409L129.878 271.154L130.035 271.525C130.348 268.335 129.864 265.714 129.921 262.553C129.921 262.866 129.921 263.194 129.921 263.479V261.186L130.006 261.585L130.092 257.213L129.921 257.811C130.138 256.049 130.181 254.27 130.049 252.499C129.935 251.574 129.849 253.667 129.792 252.955V251.531C129.921 248.683 130.063 244.852 130.12 241.563C129.921 241.905 129.921 240.922 129.892 239.911L130.049 239.797C129.821 235.91 130.434 238.373 130.234 234.528L130.006 233.845C129.664 230.37 130.363 231.979 129.892 228.149C129.892 228.903 129.821 229.088 129.735 228.846C129.735 228.334 129.735 227.821 129.735 227.308V227.465C129.735 226.853 129.735 226.482 129.664 226.126V225.614C129.664 225.543 129.664 225.471 129.664 225.386C129.749 225.998 129.906 225.714 129.878 224.176L130.077 225.201L129.778 222.353C129.949 220.117 129.778 216.585 129.963 215.66V214.307L130.22 214.122L130.961 213.68L133.428 212.427C134.383 212.048 135.296 211.571 136.151 211.003L137.492 210.277L138.005 210.006L138.803 209.665C139.197 209.449 139.577 209.211 139.944 208.953L143.651 206.888C143.651 206.888 143.651 206.959 143.394 207.116C147.928 204.752 152.206 201.662 158.237 198.572C159.363 197.589 162.372 196.051 163.213 195.325C163.427 195.325 169.102 191.95 165.936 194.072C165.706 194.245 165.451 194.385 165.181 194.485L164.867 194.855C168.346 193.203 170.827 191.224 174.135 189.372C173.137 189.885 171.839 190.64 172.709 190.042L175.774 188.304L175.204 188.788L179.809 186.239L179.096 186.439C181.041 185.574 182.91 184.55 184.686 183.377C185.755 182.608 182.461 184.388 184.785 182.993L186.924 181.853L188.122 181.213L188.435 181.042L188.735 181.227C188.735 181.127 189.063 181.227 189.362 181.412C189.662 181.597 189.818 181.611 189.833 181.54L189.99 181.626L191.929 182.736L193.041 183.363C193.598 183.764 194.195 184.108 194.823 184.388L196.363 185.257C202.465 188.817 209.052 192.519 215.069 195.923L215.554 196.165C216.587 196.809 217.658 197.39 218.762 197.902L221.243 199.326L221.443 199.469H221.528L223.31 200.48C223.516 200.673 223.752 200.832 224.009 200.95C224.935 201.573 225.919 202.107 226.946 202.545L227.645 203.057L228.999 203.755L229.698 204.139L230.325 204.495L231.366 205.136H231.266C233.063 206.033 234.973 207.23 235.872 207.671H235.772L237.882 208.867L237.497 208.711C240.577 210.334 243.699 212.128 246.408 213.766L246.28 213.467L247.178 214.008L247.406 214.165V214.991C247.406 215.574 247.406 216.13 247.406 216.657C247.406 217.725 247.406 218.707 247.406 219.69C247.406 221.669 247.406 223.663 247.406 226.369V226.283C247.934 234.001 247.05 238.487 247.549 246.447C247.549 245.451 247.449 246.875 247.406 246.789C247.406 250.449 247.492 254.365 247.877 254.422C247.877 257.099 247.763 256.601 247.606 256.942C247.851 258.391 247.937 259.861 247.863 261.328L247.791 260.374V266.355L248.119 265.173C248.02 268.349 247.72 265.985 247.806 269.018H248.062C248.062 273.404 247.606 275.967 247.421 280.211C247.421 280.709 247.421 281.208 247.421 281.721L242.559 284.569L236.984 287.844L225.834 294.437C218.434 298.809 211.148 302.981 204.233 306.783L203.506 306.969C203.078 306.869 199.799 309.603 199.115 309.688L197.532 310.756C197.033 310.984 196.035 311.497 196.819 310.956C195.293 311.839 195.279 311.896 194.21 312.608L192.485 313.405L190.175 314.687L189.048 315.342L188.792 315.484L188.664 315.57L182.946 312.337ZM190.075 374.467C190.075 370.566 190.075 366.707 189.975 362.99C189.996 362.457 189.968 361.923 189.89 361.395V348.835C189.89 348.835 189.89 323.801 189.334 318.005C191.729 317.008 197.603 313.733 197.603 313.733C208.881 307.681 214.713 303.764 226.918 296.545L226.048 297.157C225.815 297.323 225.561 297.457 225.292 297.556L224.979 297.926C228.458 296.288 230.938 294.295 234.246 292.443C233.701 292.776 233.129 293.061 232.535 293.298L235.558 291.603L235.259 291.86L239.864 289.311L239.55 289.396L240.491 288.883L241.104 288.542C242.123 288.081 243.105 287.543 244.042 286.932L244.954 286.42L247.221 285.152L248.405 284.497L248.704 284.327L249.645 284.868L251.684 286.05L256.403 288.727C262.506 292.287 269.093 295.989 275.11 299.407C278.104 300.831 282.98 303.935 286.516 305.673L287.728 306.556C289.011 307.175 290.254 307.874 291.449 308.649H291.35C293.146 309.532 295.057 310.728 295.955 311.169H295.855L297.965 312.366L297.58 312.209C300.66 313.847 303.783 315.627 306.492 317.264L306.363 316.965L307.262 317.521L307.49 317.677V320.411V322.377V322.448C307.465 322.637 307.465 322.828 307.49 323.017V323.445C307.49 323.886 307.49 324.327 307.49 324.769C307.49 325.21 307.49 325.452 307.347 325.068C307.263 326.681 307.263 328.297 307.347 329.91V330.123V330.038C307.347 330.465 307.347 330.878 307.418 331.277C307.416 332.057 307.373 332.836 307.29 333.612C307.445 334.429 307.521 335.259 307.518 336.09C307.518 336.959 307.518 337.799 307.518 338.625C307.518 338.71 307.447 338.625 307.376 338.069C307.376 337.898 307.376 337.614 307.376 337.628L307.205 337.414C307.112 339.204 307.155 340.999 307.333 342.783C307.333 342.455 307.333 342.071 307.333 341.9C307.333 342.413 307.333 342.94 307.333 343.481V343.367L307.247 346.001L307.361 345.759C307.361 345.901 307.361 346.044 307.361 346.201C307.163 347.06 307.134 347.95 307.276 348.821C307.276 349.106 307.39 348.92 307.433 348.721C307.433 349.134 307.433 349.547 307.433 349.974C307.433 349.419 307.347 350.587 307.304 350.515C307.304 350.943 307.304 351.37 307.304 351.783C307.304 352.979 307.176 354.246 307.148 355.414C307.333 355.215 307.333 355.798 307.376 356.411L307.205 356.482C307.433 358.803 306.834 357.336 307.019 359.643L307.247 360.042C307.589 362.135 306.905 361.167 307.361 363.488C307.361 362.563 307.732 363.047 307.661 364.186L307.49 363.901C307.551 364.311 307.575 364.726 307.561 365.14C307.475 364.77 307.333 364.941 307.361 365.866L307.148 365.24L307.447 366.977C307.276 368.316 307.447 370.437 307.262 370.993C307.192 372.172 307.239 373.355 307.404 374.524C307.247 373.941 307.19 375.536 307.005 375.08C307.235 376.344 307.278 377.634 307.133 378.91V378.74C307.048 380.164 307.133 381.431 307.133 382.627L307.219 384.407V385.489L302.485 388.224L296.91 391.499L285.761 398.092C278.361 402.464 271.075 406.707 264.16 410.438L263.432 410.624C263.005 410.538 259.725 413.258 259.041 413.343L257.458 414.412C256.959 414.639 255.961 415.152 256.745 414.625C255.845 415.12 254.974 415.667 254.136 416.263L252.411 417.06C251.627 417.487 250.857 417.915 250.101 418.356L249.631 418.627L248.205 417.843L247.207 417.245C246.537 416.832 245.852 416.391 245.139 415.921C243.956 415.551 241.589 413.998 240.691 413.728C240.62 413.557 235.8 410.88 238.681 412.304C238.937 412.418 239.351 412.66 239.294 412.688H239.707C237.098 410.823 234.589 409.94 231.865 408.317C232.649 408.829 233.747 409.442 232.963 409.128L230.425 407.633L231.024 407.818L227.274 405.554L227.716 406.01C226.296 404.943 224.778 404.014 223.182 403.233C222.156 402.806 224.822 404.458 222.826 403.375C220.402 401.837 216.78 399.545 213.629 397.679C213.829 398.021 212.988 397.523 212.089 397.053V396.853C208.61 395.116 211.034 395.814 207.612 394.005L206.899 393.877C203.72 392.453 205.474 392.638 201.881 391.1C203.221 391.841 202.323 391.784 200.726 390.787L201.225 390.872C200.298 390.388 199.97 390.274 199.386 389.904C199.97 390.132 199.785 389.904 198.444 389.121L199.443 389.448L196.776 388.266C194.937 386.999 191.758 385.418 191.073 384.763L190.503 384.421L189.633 383.923V383.225C189.633 382.243 189.633 381.26 189.633 380.263C189.975 378.398 190.018 376.433 190.032 374.482L190.075 374.467Z" fill="#0E4366"/>
</g>
<path d="M95.3795 151.631V139.031H100.888C102.256 139.031 103.456 139.295 104.488 139.823C105.52 140.351 106.324 141.083 106.9 142.019C107.476 142.955 107.764 144.059 107.764 145.331C107.764 146.591 107.476 147.695 106.9 148.643C106.324 149.579 105.52 150.311 104.488 150.839C103.456 151.367 102.256 151.631 100.888 151.631H95.3795ZM97.7195 149.651H100.78C101.728 149.651 102.544 149.471 103.228 149.111C103.924 148.751 104.458 148.247 104.83 147.599C105.214 146.951 105.406 146.195 105.406 145.331C105.406 144.455 105.214 143.699 104.83 143.063C104.458 142.415 103.924 141.911 103.228 141.551C102.544 141.191 101.728 141.011 100.78 141.011H97.7195V149.651ZM114.553 151.757C113.485 151.757 112.549 151.547 111.745 151.127C110.953 150.695 110.335 150.107 109.891 149.363C109.459 148.619 109.243 147.773 109.243 146.825C109.243 145.865 109.453 145.019 109.873 144.287C110.305 143.543 110.893 142.961 111.637 142.541C112.393 142.121 113.251 141.911 114.211 141.911C115.147 141.911 115.981 142.115 116.713 142.523C117.445 142.931 118.021 143.507 118.441 144.251C118.861 144.995 119.071 145.871 119.071 146.879C119.071 146.975 119.065 147.083 119.053 147.203C119.053 147.323 119.047 147.437 119.035 147.545H111.025V146.051H117.847L116.965 146.519C116.977 145.967 116.863 145.481 116.623 145.061C116.383 144.641 116.053 144.311 115.633 144.071C115.225 143.831 114.751 143.711 114.211 143.711C113.659 143.711 113.173 143.831 112.753 144.071C112.345 144.311 112.021 144.647 111.781 145.079C111.553 145.499 111.439 145.997 111.439 146.573V146.933C111.439 147.509 111.571 148.019 111.835 148.463C112.099 148.907 112.471 149.249 112.951 149.489C113.431 149.729 113.983 149.849 114.607 149.849C115.147 149.849 115.633 149.765 116.065 149.597C116.497 149.429 116.881 149.165 117.217 148.805L118.423 150.191C117.991 150.695 117.445 151.085 116.785 151.361C116.137 151.625 115.393 151.757 114.553 151.757ZM121.538 151.631V141.479C121.538 140.471 121.832 139.667 122.42 139.067C123.02 138.455 123.872 138.149 124.976 138.149C125.372 138.149 125.744 138.191 126.092 138.275C126.452 138.359 126.752 138.491 126.992 138.671L126.38 140.363C126.212 140.231 126.02 140.135 125.804 140.075C125.588 140.003 125.366 139.967 125.138 139.967C124.67 139.967 124.316 140.099 124.076 140.363C123.836 140.615 123.716 140.999 123.716 141.515V142.595L123.788 143.603V151.631H121.538ZM119.954 143.891V142.091H126.362V143.891H119.954ZM132.254 151.757C131.186 151.757 130.25 151.547 129.446 151.127C128.654 150.695 128.036 150.107 127.592 149.363C127.16 148.619 126.944 147.773 126.944 146.825C126.944 145.865 127.154 145.019 127.574 144.287C128.006 143.543 128.594 142.961 129.338 142.541C130.094 142.121 130.952 141.911 131.912 141.911C132.848 141.911 133.682 142.115 134.414 142.523C135.146 142.931 135.722 143.507 136.142 144.251C136.562 144.995 136.772 145.871 136.772 146.879C136.772 146.975 136.766 147.083 136.754 147.203C136.754 147.323 136.748 147.437 136.736 147.545H128.726V146.051H135.548L134.666 146.519C134.678 145.967 134.564 145.481 134.324 145.061C134.084 144.641 133.754 144.311 133.334 144.071C132.926 143.831 132.452 143.711 131.912 143.711C131.36 143.711 130.874 143.831 130.454 144.071C130.046 144.311 129.722 144.647 129.482 145.079C129.254 145.499 129.14 145.997 129.14 146.573V146.933C129.14 147.509 129.272 148.019 129.536 148.463C129.8 148.907 130.172 149.249 130.652 149.489C131.132 149.729 131.684 149.849 132.308 149.849C132.848 149.849 133.334 149.765 133.766 149.597C134.198 149.429 134.582 149.165 134.918 148.805L136.124 150.191C135.692 150.695 135.146 151.085 134.486 151.361C133.838 151.625 133.094 151.757 132.254 151.757ZM144.387 141.911C145.155 141.911 145.839 142.061 146.439 142.361C147.051 142.661 147.531 143.123 147.879 143.747C148.227 144.359 148.401 145.151 148.401 146.123V151.631H146.151V146.411C146.151 145.559 145.947 144.923 145.539 144.503C145.143 144.083 144.585 143.873 143.865 143.873C143.337 143.873 142.869 143.981 142.461 144.197C142.053 144.413 141.735 144.737 141.507 145.169C141.291 145.589 141.183 146.123 141.183 146.771V151.631H138.933V142.019H141.075V144.611L140.697 143.819C141.033 143.207 141.519 142.739 142.155 142.415C142.803 142.079 143.547 141.911 144.387 141.911ZM155.683 151.757C154.675 151.757 153.775 151.547 152.983 151.127C152.203 150.695 151.591 150.107 151.147 149.363C150.703 148.619 150.481 147.773 150.481 146.825C150.481 145.865 150.703 145.019 151.147 144.287C151.591 143.543 152.203 142.961 152.983 142.541C153.775 142.121 154.675 141.911 155.683 141.911C156.619 141.911 157.441 142.103 158.149 142.487C158.869 142.859 159.415 143.411 159.787 144.143L158.059 145.151C157.771 144.695 157.417 144.359 156.997 144.143C156.589 143.927 156.145 143.819 155.665 143.819C155.113 143.819 154.615 143.939 154.171 144.179C153.727 144.419 153.379 144.767 153.127 145.223C152.875 145.667 152.749 146.201 152.749 146.825C152.749 147.449 152.875 147.989 153.127 148.445C153.379 148.889 153.727 149.231 154.171 149.471C154.615 149.711 155.113 149.831 155.665 149.831C156.145 149.831 156.589 149.723 156.997 149.507C157.417 149.291 157.771 148.955 158.059 148.499L159.787 149.507C159.415 150.227 158.869 150.785 158.149 151.181C157.441 151.565 156.619 151.757 155.683 151.757ZM166.109 151.757C165.041 151.757 164.105 151.547 163.301 151.127C162.509 150.695 161.891 150.107 161.447 149.363C161.015 148.619 160.799 147.773 160.799 146.825C160.799 145.865 161.009 145.019 161.429 144.287C161.861 143.543 162.449 142.961 163.193 142.541C163.949 142.121 164.807 141.911 165.767 141.911C166.703 141.911 167.537 142.115 168.269 142.523C169.001 142.931 169.577 143.507 169.997 144.251C170.417 144.995 170.627 145.871 170.627 146.879C170.627 146.975 170.621 147.083 170.609 147.203C170.609 147.323 170.603 147.437 170.591 147.545H162.581V146.051H169.403L168.521 146.519C168.533 145.967 168.419 145.481 168.179 145.061C167.939 144.641 167.609 144.311 167.189 144.071C166.781 143.831 166.307 143.711 165.767 143.711C165.215 143.711 164.729 143.831 164.309 144.071C163.901 144.311 163.577 144.647 163.337 145.079C163.109 145.499 162.995 145.997 162.995 146.573V146.933C162.995 147.509 163.127 148.019 163.391 148.463C163.655 148.907 164.027 149.249 164.507 149.489C164.987 149.729 165.539 149.849 166.163 149.849C166.703 149.849 167.189 149.765 167.621 149.597C168.053 149.429 168.437 149.165 168.773 148.805L169.979 150.191C169.547 150.695 169.001 151.085 168.341 151.361C167.693 151.625 166.949 151.757 166.109 151.757Z" fill="#0E4366"/>
<path d="M155.446 250.196H161.728V252.176H155.446V250.196ZM155.644 257H153.304V244.4H162.502V246.362H155.644V257ZM164.549 257V247.388H166.799V257H164.549ZM165.683 245.804C165.263 245.804 164.915 245.672 164.639 245.408C164.375 245.144 164.243 244.826 164.243 244.454C164.243 244.07 164.375 243.752 164.639 243.5C164.915 243.236 165.263 243.104 165.683 243.104C166.103 243.104 166.445 243.23 166.709 243.482C166.985 243.722 167.123 244.028 167.123 244.4C167.123 244.796 166.991 245.132 166.727 245.408C166.463 245.672 166.115 245.804 165.683 245.804ZM175.206 247.28C175.974 247.28 176.658 247.43 177.258 247.73C177.87 248.03 178.35 248.492 178.698 249.116C179.046 249.728 179.22 250.52 179.22 251.492V257H176.97V251.78C176.97 250.928 176.766 250.292 176.358 249.872C175.962 249.452 175.404 249.242 174.684 249.242C174.156 249.242 173.688 249.35 173.28 249.566C172.872 249.782 172.554 250.106 172.326 250.538C172.11 250.958 172.002 251.492 172.002 252.14V257H169.752V247.388H171.894V249.98L171.516 249.188C171.852 248.576 172.338 248.108 172.974 247.784C173.622 247.448 174.366 247.28 175.206 247.28ZM187.997 257V255.056L187.871 254.642V251.24C187.871 250.58 187.673 250.07 187.277 249.71C186.881 249.338 186.281 249.152 185.477 249.152C184.937 249.152 184.403 249.236 183.875 249.404C183.359 249.572 182.921 249.806 182.561 250.106L181.679 248.468C182.195 248.072 182.807 247.778 183.515 247.586C184.235 247.382 184.979 247.28 185.747 247.28C187.139 247.28 188.213 247.616 188.969 248.288C189.737 248.948 190.121 249.974 190.121 251.366V257H187.997ZM184.973 257.126C184.253 257.126 183.623 257.006 183.083 256.766C182.543 256.514 182.123 256.172 181.823 255.74C181.535 255.296 181.391 254.798 181.391 254.246C181.391 253.706 181.517 253.22 181.769 252.788C182.033 252.356 182.459 252.014 183.047 251.762C183.635 251.51 184.415 251.384 185.387 251.384H188.177V252.878H185.549C184.781 252.878 184.265 253.004 184.001 253.256C183.737 253.496 183.605 253.796 183.605 254.156C183.605 254.564 183.767 254.888 184.091 255.128C184.415 255.368 184.865 255.488 185.441 255.488C185.993 255.488 186.485 255.362 186.917 255.11C187.361 254.858 187.679 254.486 187.871 253.994L188.249 255.344C188.033 255.908 187.643 256.346 187.079 256.658C186.527 256.97 185.825 257.126 184.973 257.126ZM198.462 247.28C199.23 247.28 199.914 247.43 200.514 247.73C201.126 248.03 201.606 248.492 201.954 249.116C202.302 249.728 202.476 250.52 202.476 251.492V257H200.226V251.78C200.226 250.928 200.022 250.292 199.614 249.872C199.218 249.452 198.66 249.242 197.94 249.242C197.412 249.242 196.944 249.35 196.536 249.566C196.128 249.782 195.81 250.106 195.582 250.538C195.366 250.958 195.258 251.492 195.258 252.14V257H193.008V247.388H195.15V249.98L194.772 249.188C195.108 248.576 195.594 248.108 196.23 247.784C196.878 247.448 197.622 247.28 198.462 247.28ZM209.758 257.126C208.75 257.126 207.85 256.916 207.058 256.496C206.278 256.064 205.666 255.476 205.222 254.732C204.778 253.988 204.556 253.142 204.556 252.194C204.556 251.234 204.778 250.388 205.222 249.656C205.666 248.912 206.278 248.33 207.058 247.91C207.85 247.49 208.75 247.28 209.758 247.28C210.694 247.28 211.516 247.472 212.224 247.856C212.944 248.228 213.49 248.78 213.862 249.512L212.134 250.52C211.846 250.064 211.492 249.728 211.072 249.512C210.664 249.296 210.22 249.188 209.74 249.188C209.188 249.188 208.69 249.308 208.246 249.548C207.802 249.788 207.454 250.136 207.202 250.592C206.95 251.036 206.824 251.57 206.824 252.194C206.824 252.818 206.95 253.358 207.202 253.814C207.454 254.258 207.802 254.6 208.246 254.84C208.69 255.08 209.188 255.2 209.74 255.2C210.22 255.2 210.664 255.092 211.072 254.876C211.492 254.66 211.846 254.324 212.134 253.868L213.862 254.876C213.49 255.596 212.944 256.154 212.224 256.55C211.516 256.934 210.694 257.126 209.758 257.126ZM220.184 257.126C219.116 257.126 218.18 256.916 217.376 256.496C216.584 256.064 215.966 255.476 215.522 254.732C215.09 253.988 214.874 253.142 214.874 252.194C214.874 251.234 215.084 250.388 215.504 249.656C215.936 248.912 216.524 248.33 217.268 247.91C218.024 247.49 218.882 247.28 219.842 247.28C220.778 247.28 221.612 247.484 222.344 247.892C223.076 248.3 223.652 248.876 224.072 249.62C224.492 250.364 224.702 251.24 224.702 252.248C224.702 252.344 224.696 252.452 224.684 252.572C224.684 252.692 224.678 252.806 224.666 252.914H216.656V251.42H223.478L222.596 251.888C222.608 251.336 222.494 250.85 222.254 250.43C222.014 250.01 221.684 249.68 221.264 249.44C220.856 249.2 220.382 249.08 219.842 249.08C219.29 249.08 218.804 249.2 218.384 249.44C217.976 249.68 217.652 250.016 217.412 250.448C217.184 250.868 217.07 251.366 217.07 251.942V252.302C217.07 252.878 217.202 253.388 217.466 253.832C217.73 254.276 218.102 254.618 218.582 254.858C219.062 255.098 219.614 255.218 220.238 255.218C220.778 255.218 221.264 255.134 221.696 254.966C222.128 254.798 222.512 254.534 222.848 254.174L224.054 255.56C223.622 256.064 223.076 256.454 222.416 256.73C221.768 256.994 221.024 257.126 220.184 257.126Z" fill="#0E4366"/>
<path d="M203.645 153V140.4H205.571L211.079 149.598H210.071L215.489 140.4H217.415L217.433 153H215.219L215.201 143.874H215.669L211.061 151.56H210.017L205.337 143.874H205.877V153H203.645ZM226.543 153V151.056L226.417 150.642V147.24C226.417 146.58 226.219 146.07 225.823 145.71C225.427 145.338 224.827 145.152 224.023 145.152C223.483 145.152 222.949 145.236 222.421 145.404C221.905 145.572 221.467 145.806 221.107 146.106L220.225 144.468C220.741 144.072 221.353 143.778 222.061 143.586C222.781 143.382 223.525 143.28 224.293 143.28C225.685 143.28 226.759 143.616 227.515 144.288C228.283 144.948 228.667 145.974 228.667 147.366V153H226.543ZM223.519 153.126C222.799 153.126 222.169 153.006 221.629 152.766C221.089 152.514 220.669 152.172 220.369 151.74C220.081 151.296 219.937 150.798 219.937 150.246C219.937 149.706 220.063 149.22 220.315 148.788C220.579 148.356 221.005 148.014 221.593 147.762C222.181 147.51 222.961 147.384 223.933 147.384H226.723V148.878H224.095C223.327 148.878 222.811 149.004 222.547 149.256C222.283 149.496 222.151 149.796 222.151 150.156C222.151 150.564 222.313 150.888 222.637 151.128C222.961 151.368 223.411 151.488 223.987 151.488C224.539 151.488 225.031 151.362 225.463 151.11C225.907 150.858 226.225 150.486 226.417 149.994L226.795 151.344C226.579 151.908 226.189 152.346 225.625 152.658C225.073 152.97 224.371 153.126 223.519 153.126ZM237.008 143.28C237.776 143.28 238.46 143.43 239.06 143.73C239.672 144.03 240.152 144.492 240.5 145.116C240.848 145.728 241.022 146.52 241.022 147.492V153H238.772V147.78C238.772 146.928 238.568 146.292 238.16 145.872C237.764 145.452 237.206 145.242 236.486 145.242C235.958 145.242 235.49 145.35 235.082 145.566C234.674 145.782 234.356 146.106 234.128 146.538C233.912 146.958 233.804 147.492 233.804 148.14V153H231.554V143.388H233.696V145.98L233.318 145.188C233.654 144.576 234.14 144.108 234.776 143.784C235.424 143.448 236.168 143.28 237.008 143.28ZM247.944 153.126C247.128 153.126 246.408 152.976 245.784 152.676C245.16 152.364 244.674 151.896 244.326 151.272C243.978 150.636 243.804 149.838 243.804 148.878V143.388H246.054V148.572C246.054 149.436 246.246 150.084 246.63 150.516C247.026 150.936 247.584 151.146 248.304 151.146C248.832 151.146 249.288 151.038 249.672 150.822C250.068 150.606 250.374 150.282 250.59 149.85C250.818 149.418 250.932 148.884 250.932 148.248V143.388H253.182V153H251.04V150.408L251.418 151.2C251.094 151.824 250.62 152.304 249.996 152.64C249.372 152.964 248.688 153.126 247.944 153.126ZM256.434 153V142.848C256.434 141.84 256.728 141.036 257.316 140.436C257.916 139.824 258.768 139.518 259.872 139.518C260.268 139.518 260.64 139.56 260.988 139.644C261.348 139.728 261.648 139.86 261.888 140.04L261.276 141.732C261.108 141.6 260.916 141.504 260.7 141.444C260.484 141.372 260.262 141.336 260.034 141.336C259.566 141.336 259.212 141.468 258.972 141.732C258.732 141.984 258.612 142.368 258.612 142.884V143.964L258.684 144.972V153H256.434ZM254.85 145.26V143.46H261.258V145.26H254.85ZM268.519 153V151.056L268.393 150.642V147.24C268.393 146.58 268.195 146.07 267.799 145.71C267.403 145.338 266.803 145.152 265.999 145.152C265.459 145.152 264.925 145.236 264.397 145.404C263.881 145.572 263.443 145.806 263.083 146.106L262.201 144.468C262.717 144.072 263.329 143.778 264.037 143.586C264.757 143.382 265.501 143.28 266.269 143.28C267.661 143.28 268.735 143.616 269.491 144.288C270.259 144.948 270.643 145.974 270.643 147.366V153H268.519ZM265.495 153.126C264.775 153.126 264.145 153.006 263.605 152.766C263.065 152.514 262.645 152.172 262.345 151.74C262.057 151.296 261.913 150.798 261.913 150.246C261.913 149.706 262.039 149.22 262.291 148.788C262.555 148.356 262.981 148.014 263.569 147.762C264.157 147.51 264.937 147.384 265.909 147.384H268.699V148.878H266.071C265.303 148.878 264.787 149.004 264.523 149.256C264.259 149.496 264.127 149.796 264.127 150.156C264.127 150.564 264.289 150.888 264.613 151.128C264.937 151.368 265.387 151.488 265.963 151.488C266.515 151.488 267.007 151.362 267.439 151.11C267.883 150.858 268.201 150.486 268.393 149.994L268.771 151.344C268.555 151.908 268.165 152.346 267.601 152.658C267.049 152.97 266.347 153.126 265.495 153.126ZM277.958 153.126C276.95 153.126 276.05 152.916 275.258 152.496C274.478 152.064 273.866 151.476 273.422 150.732C272.978 149.988 272.756 149.142 272.756 148.194C272.756 147.234 272.978 146.388 273.422 145.656C273.866 144.912 274.478 144.33 275.258 143.91C276.05 143.49 276.95 143.28 277.958 143.28C278.894 143.28 279.716 143.472 280.424 143.856C281.144 144.228 281.69 144.78 282.062 145.512L280.334 146.52C280.046 146.064 279.692 145.728 279.272 145.512C278.864 145.296 278.42 145.188 277.94 145.188C277.388 145.188 276.89 145.308 276.446 145.548C276.002 145.788 275.654 146.136 275.402 146.592C275.15 147.036 275.024 147.57 275.024 148.194C275.024 148.818 275.15 149.358 275.402 149.814C275.654 150.258 276.002 150.6 276.446 150.84C276.89 151.08 277.388 151.2 277.94 151.2C278.42 151.2 278.864 151.092 279.272 150.876C279.692 150.66 280.046 150.324 280.334 149.868L282.062 150.876C281.69 151.596 281.144 152.154 280.424 152.55C279.716 152.934 278.894 153.126 277.958 153.126ZM287.748 153.126C286.692 153.126 285.876 152.856 285.3 152.316C284.724 151.764 284.436 150.954 284.436 149.886V141.264H286.686V149.832C286.686 150.288 286.8 150.642 287.028 150.894C287.268 151.146 287.598 151.272 288.018 151.272C288.522 151.272 288.942 151.14 289.278 150.876L289.908 152.478C289.644 152.694 289.32 152.856 288.936 152.964C288.552 153.072 288.156 153.126 287.748 153.126ZM282.852 145.26V143.46H289.26V145.26H282.852ZM295.827 153.126C295.011 153.126 294.291 152.976 293.667 152.676C293.043 152.364 292.557 151.896 292.209 151.272C291.861 150.636 291.687 149.838 291.687 148.878V143.388H293.937V148.572C293.937 149.436 294.129 150.084 294.513 150.516C294.909 150.936 295.467 151.146 296.187 151.146C296.715 151.146 297.171 151.038 297.555 150.822C297.951 150.606 298.257 150.282 298.473 149.85C298.701 149.418 298.815 148.884 298.815 148.248V143.388H301.065V153H298.923V150.408L299.301 151.2C298.977 151.824 298.503 152.304 297.879 152.64C297.255 152.964 296.571 153.126 295.827 153.126ZM304.011 153V143.388H306.153V146.034L305.901 145.26C306.189 144.612 306.639 144.12 307.251 143.784C307.875 143.448 308.649 143.28 309.573 143.28V145.422C309.477 145.398 309.387 145.386 309.303 145.386C309.219 145.374 309.135 145.368 309.051 145.368C308.199 145.368 307.521 145.62 307.017 146.124C306.513 146.616 306.261 147.354 306.261 148.338V153H304.011ZM311.482 153V143.388H313.732V153H311.482ZM312.616 141.804C312.196 141.804 311.848 141.672 311.572 141.408C311.308 141.144 311.176 140.826 311.176 140.454C311.176 140.07 311.308 139.752 311.572 139.5C311.848 139.236 312.196 139.104 312.616 139.104C313.036 139.104 313.378 139.23 313.642 139.482C313.918 139.722 314.056 140.028 314.056 140.4C314.056 140.796 313.924 141.132 313.66 141.408C313.396 141.672 313.048 141.804 312.616 141.804ZM322.139 143.28C322.907 143.28 323.591 143.43 324.191 143.73C324.803 144.03 325.283 144.492 325.631 145.116C325.979 145.728 326.153 146.52 326.153 147.492V153H323.903V147.78C323.903 146.928 323.699 146.292 323.291 145.872C322.895 145.452 322.337 145.242 321.617 145.242C321.089 145.242 320.621 145.35 320.213 145.566C319.805 145.782 319.487 146.106 319.259 146.538C319.043 146.958 318.935 147.492 318.935 148.14V153H316.685V143.388H318.827V145.98L318.449 145.188C318.785 144.576 319.271 144.108 319.907 143.784C320.555 143.448 321.299 143.28 322.139 143.28ZM333.381 156.618C332.493 156.618 331.623 156.498 330.771 156.258C329.931 156.03 329.241 155.694 328.701 155.25L329.709 153.558C330.129 153.906 330.657 154.182 331.293 154.386C331.941 154.602 332.595 154.71 333.255 154.71C334.311 154.71 335.085 154.464 335.577 153.972C336.069 153.492 336.315 152.766 336.315 151.794V150.084L336.495 147.906L336.423 145.728V143.388H338.565V151.542C338.565 153.282 338.121 154.56 337.233 155.376C336.345 156.204 335.061 156.618 333.381 156.618ZM333.093 152.568C332.181 152.568 331.353 152.376 330.609 151.992C329.877 151.596 329.295 151.05 328.863 150.354C328.443 149.658 328.233 148.842 328.233 147.906C328.233 146.982 328.443 146.172 328.863 145.476C329.295 144.78 329.877 144.24 330.609 143.856C331.353 143.472 332.181 143.28 333.093 143.28C333.909 143.28 334.641 143.442 335.289 143.766C335.937 144.09 336.453 144.594 336.837 145.278C337.233 145.962 337.431 146.838 337.431 147.906C337.431 148.974 337.233 149.856 336.837 150.552C336.453 151.236 335.937 151.746 335.289 152.082C334.641 152.406 333.909 152.568 333.093 152.568ZM333.435 150.66C333.999 150.66 334.503 150.546 334.947 150.318C335.391 150.078 335.733 149.754 335.973 149.346C336.225 148.926 336.351 148.446 336.351 147.906C336.351 147.366 336.225 146.892 335.973 146.484C335.733 146.064 335.391 145.746 334.947 145.53C334.503 145.302 333.999 145.188 333.435 145.188C332.871 145.188 332.361 145.302 331.905 145.53C331.461 145.746 331.113 146.064 330.861 146.484C330.621 146.892 330.501 147.366 330.501 147.906C330.501 148.446 330.621 148.926 330.861 149.346C331.113 149.754 331.461 150.078 331.905 150.318C332.361 150.546 332.871 150.66 333.435 150.66Z" fill="#0E4366"/>
<path d="M19.7746 244.031H22.1146V256.631H19.7746V244.031ZM13.2586 256.631H10.9186V244.031H13.2586V256.631ZM19.9546 251.231H13.0606V249.233H19.9546V251.231ZM29.7928 256.757C28.7248 256.757 27.7888 256.547 26.9848 256.127C26.1928 255.695 25.5748 255.107 25.1308 254.363C24.6988 253.619 24.4828 252.773 24.4828 251.825C24.4828 250.865 24.6928 250.019 25.1128 249.287C25.5448 248.543 26.1328 247.961 26.8768 247.541C27.6328 247.121 28.4908 246.911 29.4508 246.911C30.3868 246.911 31.2208 247.115 31.9528 247.523C32.6848 247.931 33.2608 248.507 33.6808 249.251C34.1008 249.995 34.3108 250.871 34.3108 251.879C34.3108 251.975 34.3048 252.083 34.2928 252.203C34.2928 252.323 34.2868 252.437 34.2748 252.545H26.2648V251.051H33.0868L32.2048 251.519C32.2168 250.967 32.1028 250.481 31.8628 250.061C31.6228 249.641 31.2928 249.311 30.8728 249.071C30.4648 248.831 29.9908 248.711 29.4508 248.711C28.8988 248.711 28.4128 248.831 27.9928 249.071C27.5848 249.311 27.2608 249.647 27.0208 250.079C26.7928 250.499 26.6788 250.997 26.6788 251.573V251.933C26.6788 252.509 26.8108 253.019 27.0748 253.463C27.3388 253.907 27.7108 254.249 28.1908 254.489C28.6708 254.729 29.2228 254.849 29.8468 254.849C30.3868 254.849 30.8728 254.765 31.3048 254.597C31.7368 254.429 32.1208 254.165 32.4568 253.805L33.6628 255.191C33.2308 255.695 32.6848 256.085 32.0248 256.361C31.3768 256.625 30.6328 256.757 29.7928 256.757ZM42.1304 256.631V254.687L42.0044 254.273V250.871C42.0044 250.211 41.8064 249.701 41.4104 249.341C41.0144 248.969 40.4144 248.783 39.6104 248.783C39.0704 248.783 38.5364 248.867 38.0084 249.035C37.4924 249.203 37.0544 249.437 36.6944 249.737L35.8124 248.099C36.3284 247.703 36.9404 247.409 37.6484 247.217C38.3684 247.013 39.1124 246.911 39.8804 246.911C41.2724 246.911 42.3464 247.247 43.1024 247.919C43.8704 248.579 44.2544 249.605 44.2544 250.997V256.631H42.1304ZM39.1064 256.757C38.3864 256.757 37.7564 256.637 37.2164 256.397C36.6764 256.145 36.2564 255.803 35.9564 255.371C35.6684 254.927 35.5244 254.429 35.5244 253.877C35.5244 253.337 35.6504 252.851 35.9024 252.419C36.1664 251.987 36.5924 251.645 37.1804 251.393C37.7684 251.141 38.5484 251.015 39.5204 251.015H42.3104V252.509H39.6824C38.9144 252.509 38.3984 252.635 38.1344 252.887C37.8704 253.127 37.7384 253.427 37.7384 253.787C37.7384 254.195 37.9004 254.519 38.2244 254.759C38.5484 254.999 38.9984 255.119 39.5744 255.119C40.1264 255.119 40.6184 254.993 41.0504 254.741C41.4944 254.489 41.8124 254.117 42.0044 253.625L42.3824 254.975C42.1664 255.539 41.7764 255.977 41.2124 256.289C40.6604 256.601 39.9584 256.757 39.1064 256.757ZM47.142 256.631V243.275H49.392V256.631H47.142ZM56.4378 256.757C55.3818 256.757 54.5658 256.487 53.9897 255.947C53.4138 255.395 53.1258 254.585 53.1258 253.517V244.895H55.3758V253.463C55.3758 253.919 55.4898 254.273 55.7178 254.525C55.9578 254.777 56.2878 254.903 56.7078 254.903C57.2118 254.903 57.6318 254.771 57.9678 254.507L58.5978 256.109C58.3338 256.325 58.0098 256.487 57.6258 256.595C57.2418 256.703 56.8458 256.757 56.4378 256.757ZM51.5418 248.891V247.091H57.9498V248.891H51.5418ZM65.9027 246.911C66.6707 246.911 67.3547 247.061 67.9547 247.361C68.5667 247.661 69.0467 248.123 69.3947 248.747C69.7427 249.359 69.9167 250.151 69.9167 251.123V256.631H67.6667V251.411C67.6667 250.559 67.4627 249.923 67.0547 249.503C66.6587 249.083 66.1007 248.873 65.3807 248.873C64.8527 248.873 64.3847 248.981 63.9767 249.197C63.5687 249.413 63.2507 249.737 63.0227 250.169C62.8067 250.589 62.6987 251.123 62.6987 251.771V256.631H60.4487V243.275H62.6987V249.611L62.2127 248.819C62.5487 248.207 63.0347 247.739 63.6707 247.415C64.3187 247.079 65.0627 246.911 65.9027 246.911ZM83.7935 256.811C82.8335 256.811 81.9395 256.655 81.1115 256.343C80.2955 256.019 79.5815 255.569 78.9695 254.993C78.3695 254.405 77.9015 253.715 77.5655 252.923C77.2295 252.131 77.0615 251.267 77.0615 250.331C77.0615 249.395 77.2295 248.531 77.5655 247.739C77.9015 246.947 78.3755 246.263 78.9875 245.687C79.5995 245.099 80.3135 244.649 81.1295 244.337C81.9455 244.013 82.8395 243.851 83.8115 243.851C84.8435 243.851 85.7855 244.031 86.6375 244.391C87.4895 244.739 88.2095 245.261 88.7975 245.957L87.2855 247.379C86.8295 246.887 86.3195 246.521 85.7555 246.281C85.1915 246.029 84.5795 245.903 83.9195 245.903C83.2595 245.903 82.6535 246.011 82.1015 246.227C81.5615 246.443 81.0875 246.749 80.6795 247.145C80.2835 247.541 79.9715 248.009 79.7435 248.549C79.5275 249.089 79.4195 249.683 79.4195 250.331C79.4195 250.979 79.5275 251.573 79.7435 252.113C79.9715 252.653 80.2835 253.121 80.6795 253.517C81.0875 253.913 81.5615 254.219 82.1015 254.435C82.6535 254.651 83.2595 254.759 83.9195 254.759C84.5795 254.759 85.1915 254.639 85.7555 254.399C86.3195 254.147 86.8295 253.769 87.2855 253.265L88.7975 254.705C88.2095 255.389 87.4895 255.911 86.6375 256.271C85.7855 256.631 84.8375 256.811 83.7935 256.811ZM96.6578 256.631V254.687L96.5318 254.273V250.871C96.5318 250.211 96.3338 249.701 95.9378 249.341C95.5418 248.969 94.9418 248.783 94.1378 248.783C93.5978 248.783 93.0638 248.867 92.5358 249.035C92.0198 249.203 91.5818 249.437 91.2218 249.737L90.3398 248.099C90.8558 247.703 91.4678 247.409 92.1758 247.217C92.8958 247.013 93.6398 246.911 94.4078 246.911C95.7998 246.911 96.8738 247.247 97.6298 247.919C98.3978 248.579 98.7818 249.605 98.7818 250.997V256.631H96.6578ZM93.6338 256.757C92.9138 256.757 92.2838 256.637 91.7438 256.397C91.2038 256.145 90.7838 255.803 90.4838 255.371C90.1958 254.927 90.0518 254.429 90.0518 253.877C90.0518 253.337 90.1778 252.851 90.4298 252.419C90.6938 251.987 91.1198 251.645 91.7078 251.393C92.2958 251.141 93.0758 251.015 94.0478 251.015H96.8378V252.509H94.2098C93.4418 252.509 92.9258 252.635 92.6618 252.887C92.3978 253.127 92.2658 253.427 92.2658 253.787C92.2658 254.195 92.4278 254.519 92.7518 254.759C93.0758 254.999 93.5258 255.119 94.1018 255.119C94.6538 255.119 95.1458 254.993 95.5778 254.741C96.0218 254.489 96.3398 254.117 96.5318 253.625L96.9098 254.975C96.6938 255.539 96.3038 255.977 95.7398 256.289C95.1878 256.601 94.4858 256.757 93.6338 256.757ZM101.669 256.631V247.019H103.811V249.665L103.559 248.891C103.847 248.243 104.297 247.751 104.909 247.415C105.533 247.079 106.307 246.911 107.231 246.911V249.053C107.135 249.029 107.045 249.017 106.961 249.017C106.877 249.005 106.793 248.999 106.709 248.999C105.857 248.999 105.179 249.251 104.675 249.755C104.171 250.247 103.919 250.985 103.919 251.969V256.631H101.669ZM113.57 256.757C112.502 256.757 111.566 256.547 110.762 256.127C109.97 255.695 109.352 255.107 108.908 254.363C108.476 253.619 108.26 252.773 108.26 251.825C108.26 250.865 108.47 250.019 108.89 249.287C109.322 248.543 109.91 247.961 110.654 247.541C111.41 247.121 112.268 246.911 113.228 246.911C114.164 246.911 114.998 247.115 115.73 247.523C116.462 247.931 117.038 248.507 117.458 249.251C117.878 249.995 118.088 250.871 118.088 251.879C118.088 251.975 118.082 252.083 118.07 252.203C118.07 252.323 118.064 252.437 118.052 252.545H110.042V251.051H116.864L115.982 251.519C115.994 250.967 115.88 250.481 115.64 250.061C115.4 249.641 115.07 249.311 114.65 249.071C114.242 248.831 113.768 248.711 113.228 248.711C112.676 248.711 112.19 248.831 111.77 249.071C111.362 249.311 111.038 249.647 110.798 250.079C110.57 250.499 110.456 250.997 110.456 251.573V251.933C110.456 252.509 110.588 253.019 110.852 253.463C111.116 253.907 111.488 254.249 111.968 254.489C112.448 254.729 113 254.849 113.624 254.849C114.164 254.849 114.65 254.765 115.082 254.597C115.514 254.429 115.898 254.165 116.234 253.805L117.44 255.191C117.008 255.695 116.462 256.085 115.802 256.361C115.154 256.625 114.41 256.757 113.57 256.757Z" fill="#0E4366"/>
<path d="M39.6598 361V348.4H44.8438C45.9598 348.4 46.9138 348.58 47.7058 348.94C48.5098 349.3 49.1278 349.816 49.5598 350.488C49.9918 351.16 50.2078 351.958 50.2078 352.882C50.2078 353.806 49.9918 354.604 49.5598 355.276C49.1278 355.948 48.5098 356.464 47.7058 356.824C46.9138 357.184 45.9598 357.364 44.8438 357.364H40.9558L41.9998 356.266V361H39.6598ZM41.9998 356.518L40.9558 355.384H44.7358C45.7678 355.384 46.5418 355.168 47.0578 354.736C47.5858 354.292 47.8498 353.674 47.8498 352.882C47.8498 352.078 47.5858 351.46 47.0578 351.028C46.5418 350.596 45.7678 350.38 44.7358 350.38H40.9558L41.9998 349.228V356.518ZM56.5723 361.126C55.7563 361.126 55.0363 360.976 54.4123 360.676C53.7883 360.364 53.3023 359.896 52.9543 359.272C52.6063 358.636 52.4323 357.838 52.4323 356.878V351.388H54.6823V356.572C54.6823 357.436 54.8743 358.084 55.2583 358.516C55.6543 358.936 56.2123 359.146 56.9323 359.146C57.4603 359.146 57.9163 359.038 58.3003 358.822C58.6963 358.606 59.0023 358.282 59.2183 357.85C59.4463 357.418 59.5603 356.884 59.5603 356.248V351.388H61.8103V361H59.6683V358.408L60.0463 359.2C59.7223 359.824 59.2483 360.304 58.6243 360.64C58.0003 360.964 57.3163 361.126 56.5723 361.126ZM70.0843 361.126C69.2683 361.126 68.5423 360.946 67.9063 360.586C67.2703 360.226 66.7663 359.686 66.3943 358.966C66.0343 358.234 65.8543 357.31 65.8543 356.194C65.8543 355.066 66.0403 354.142 66.4123 353.422C66.7963 352.702 67.3063 352.168 67.9423 351.82C68.5903 351.46 69.3043 351.28 70.0843 351.28C71.0323 351.28 71.8663 351.484 72.5863 351.892C73.3183 352.3 73.8943 352.87 74.3143 353.602C74.7463 354.334 74.9623 355.198 74.9623 356.194C74.9623 357.19 74.7463 358.054 74.3143 358.786C73.8943 359.518 73.3183 360.094 72.5863 360.514C71.8663 360.922 71.0323 361.126 70.0843 361.126ZM64.7563 361V347.644H67.0063V353.62L66.8263 356.176L66.8983 358.732V361H64.7563ZM69.8323 359.2C70.3723 359.2 70.8523 359.08 71.2723 358.84C71.7043 358.6 72.0463 358.252 72.2983 357.796C72.5503 357.34 72.6763 356.806 72.6763 356.194C72.6763 355.57 72.5503 355.036 72.2983 354.592C72.0463 354.136 71.7043 353.788 71.2723 353.548C70.8523 353.308 70.3723 353.188 69.8323 353.188C69.2923 353.188 68.8063 353.308 68.3743 353.548C67.9423 353.788 67.6003 354.136 67.3483 354.592C67.0963 355.036 66.9703 355.57 66.9703 356.194C66.9703 356.806 67.0963 357.34 67.3483 357.796C67.6003 358.252 67.9423 358.6 68.3743 358.84C68.8063 359.08 69.2923 359.2 69.8323 359.2ZM77.0961 361V347.644H79.3461V361H77.0961ZM82.2992 361V351.388H84.5492V361H82.2992ZM83.4332 349.804C83.0132 349.804 82.6652 349.672 82.3892 349.408C82.1252 349.144 81.9932 348.826 81.9932 348.454C81.9932 348.07 82.1252 347.752 82.3892 347.5C82.6652 347.236 83.0132 347.104 83.4332 347.104C83.8532 347.104 84.1952 347.23 84.4592 347.482C84.7352 347.722 84.8732 348.028 84.8732 348.4C84.8732 348.796 84.7412 349.132 84.4772 349.408C84.2132 349.672 83.8652 349.804 83.4332 349.804ZM91.9124 361.126C90.9044 361.126 90.0044 360.916 89.2124 360.496C88.4324 360.064 87.8204 359.476 87.3764 358.732C86.9324 357.988 86.7104 357.142 86.7104 356.194C86.7104 355.234 86.9324 354.388 87.3764 353.656C87.8204 352.912 88.4324 352.33 89.2124 351.91C90.0044 351.49 90.9044 351.28 91.9124 351.28C92.8484 351.28 93.6704 351.472 94.3784 351.856C95.0984 352.228 95.6444 352.78 96.0164 353.512L94.2884 354.52C94.0004 354.064 93.6464 353.728 93.2264 353.512C92.8184 353.296 92.3744 353.188 91.8944 353.188C91.3424 353.188 90.8444 353.308 90.4004 353.548C89.9564 353.788 89.6084 354.136 89.3564 354.592C89.1044 355.036 88.9784 355.57 88.9784 356.194C88.9784 356.818 89.1044 357.358 89.3564 357.814C89.6084 358.258 89.9564 358.6 90.4004 358.84C90.8444 359.08 91.3424 359.2 91.8944 359.2C92.3744 359.2 92.8184 359.092 93.2264 358.876C93.6464 358.66 94.0004 358.324 94.2884 357.868L96.0164 358.876C95.6444 359.596 95.0984 360.154 94.3784 360.55C93.6704 360.934 92.8484 361.126 91.9124 361.126ZM107.058 361.18C106.074 361.18 105.132 361.042 104.232 360.766C103.332 360.478 102.618 360.112 102.09 359.668L102.9 357.85C103.404 358.246 104.028 358.576 104.772 358.84C105.516 359.104 106.278 359.236 107.058 359.236C107.718 359.236 108.252 359.164 108.66 359.02C109.068 358.876 109.368 358.684 109.56 358.444C109.752 358.192 109.848 357.91 109.848 357.598C109.848 357.214 109.71 356.908 109.434 356.68C109.158 356.44 108.798 356.254 108.354 356.122C107.922 355.978 107.436 355.846 106.896 355.726C106.368 355.606 105.834 355.468 105.294 355.312C104.766 355.144 104.28 354.934 103.836 354.682C103.404 354.418 103.05 354.07 102.774 353.638C102.498 353.206 102.36 352.654 102.36 351.982C102.36 351.298 102.54 350.674 102.9 350.11C103.272 349.534 103.83 349.078 104.574 348.742C105.33 348.394 106.284 348.22 107.436 348.22C108.192 348.22 108.942 348.316 109.686 348.508C110.43 348.7 111.078 348.976 111.63 349.336L110.892 351.154C110.328 350.818 109.746 350.572 109.146 350.416C108.546 350.248 107.97 350.164 107.418 350.164C106.77 350.164 106.242 350.242 105.834 350.398C105.438 350.554 105.144 350.758 104.952 351.01C104.772 351.262 104.682 351.55 104.682 351.874C104.682 352.258 104.814 352.57 105.078 352.81C105.354 353.038 105.708 353.218 106.14 353.35C106.584 353.482 107.076 353.614 107.616 353.746C108.156 353.866 108.69 354.004 109.218 354.16C109.758 354.316 110.244 354.52 110.676 354.772C111.12 355.024 111.474 355.366 111.738 355.798C112.014 356.23 112.152 356.776 112.152 357.436C112.152 358.108 111.966 358.732 111.594 359.308C111.234 359.872 110.676 360.328 109.92 360.676C109.164 361.012 108.21 361.18 107.058 361.18ZM118.774 361.126C117.706 361.126 116.77 360.916 115.966 360.496C115.174 360.064 114.556 359.476 114.112 358.732C113.68 357.988 113.464 357.142 113.464 356.194C113.464 355.234 113.674 354.388 114.094 353.656C114.526 352.912 115.114 352.33 115.858 351.91C116.614 351.49 117.472 351.28 118.432 351.28C119.368 351.28 120.202 351.484 120.934 351.892C121.666 352.3 122.242 352.876 122.662 353.62C123.082 354.364 123.292 355.24 123.292 356.248C123.292 356.344 123.286 356.452 123.274 356.572C123.274 356.692 123.268 356.806 123.256 356.914H115.246V355.42H122.068L121.186 355.888C121.198 355.336 121.084 354.85 120.844 354.43C120.604 354.01 120.274 353.68 119.854 353.44C119.446 353.2 118.972 353.08 118.432 353.08C117.88 353.08 117.394 353.2 116.974 353.44C116.566 353.68 116.242 354.016 116.002 354.448C115.774 354.868 115.66 355.366 115.66 355.942V356.302C115.66 356.878 115.792 357.388 116.056 357.832C116.32 358.276 116.692 358.618 117.172 358.858C117.652 359.098 118.204 359.218 118.828 359.218C119.368 359.218 119.854 359.134 120.286 358.966C120.718 358.798 121.102 358.534 121.438 358.174L122.644 359.56C122.212 360.064 121.666 360.454 121.006 360.73C120.358 360.994 119.614 361.126 118.774 361.126ZM129.864 361.126C128.856 361.126 127.956 360.916 127.164 360.496C126.384 360.064 125.772 359.476 125.328 358.732C124.884 357.988 124.662 357.142 124.662 356.194C124.662 355.234 124.884 354.388 125.328 353.656C125.772 352.912 126.384 352.33 127.164 351.91C127.956 351.49 128.856 351.28 129.864 351.28C130.8 351.28 131.622 351.472 132.33 351.856C133.05 352.228 133.596 352.78 133.968 353.512L132.24 354.52C131.952 354.064 131.598 353.728 131.178 353.512C130.77 353.296 130.326 353.188 129.846 353.188C129.294 353.188 128.796 353.308 128.352 353.548C127.908 353.788 127.56 354.136 127.308 354.592C127.056 355.036 126.93 355.57 126.93 356.194C126.93 356.818 127.056 357.358 127.308 357.814C127.56 358.258 127.908 358.6 128.352 358.84C128.796 359.08 129.294 359.2 129.846 359.2C130.326 359.2 130.77 359.092 131.178 358.876C131.598 358.66 131.952 358.324 132.24 357.868L133.968 358.876C133.596 359.596 133.05 360.154 132.33 360.55C131.622 360.934 130.8 361.126 129.864 361.126ZM139.654 361.126C138.598 361.126 137.782 360.856 137.206 360.316C136.63 359.764 136.342 358.954 136.342 357.886V349.264H138.592V357.832C138.592 358.288 138.706 358.642 138.934 358.894C139.174 359.146 139.504 359.272 139.924 359.272C140.428 359.272 140.848 359.14 141.184 358.876L141.814 360.478C141.55 360.694 141.226 360.856 140.842 360.964C140.458 361.072 140.062 361.126 139.654 361.126ZM134.758 353.26V351.46H141.166V353.26H134.758ZM147.668 361.126C146.684 361.126 145.808 360.916 145.04 360.496C144.272 360.064 143.666 359.476 143.222 358.732C142.778 357.988 142.556 357.142 142.556 356.194C142.556 355.234 142.778 354.388 143.222 353.656C143.666 352.912 144.272 352.33 145.04 351.91C145.808 351.49 146.684 351.28 147.668 351.28C148.664 351.28 149.546 351.49 150.314 351.91C151.094 352.33 151.7 352.906 152.132 353.638C152.576 354.37 152.798 355.222 152.798 356.194C152.798 357.142 152.576 357.988 152.132 358.732C151.7 359.476 151.094 360.064 150.314 360.496C149.546 360.916 148.664 361.126 147.668 361.126ZM147.668 359.2C148.22 359.2 148.712 359.08 149.144 358.84C149.576 358.6 149.912 358.252 150.152 357.796C150.404 357.34 150.53 356.806 150.53 356.194C150.53 355.57 150.404 355.036 150.152 354.592C149.912 354.136 149.576 353.788 149.144 353.548C148.712 353.308 148.226 353.188 147.686 353.188C147.134 353.188 146.642 353.308 146.21 353.548C145.79 353.788 145.454 354.136 145.202 354.592C144.95 355.036 144.824 355.57 144.824 356.194C144.824 356.806 144.95 357.34 145.202 357.796C145.454 358.252 145.79 358.6 146.21 358.84C146.642 359.08 147.128 359.2 147.668 359.2ZM154.95 361V351.388H157.092V354.034L156.84 353.26C157.128 352.612 157.578 352.12 158.19 351.784C158.814 351.448 159.588 351.28 160.512 351.28V353.422C160.416 353.398 160.326 353.386 160.242 353.386C160.158 353.374 160.074 353.368 159.99 353.368C159.138 353.368 158.46 353.62 157.956 354.124C157.452 354.616 157.2 355.354 157.2 356.338V361H154.95Z" fill="#0E4366"/>
<path d="M217.093 361V350.38H212.917V348.4H223.609V350.38H219.433V361H217.093ZM228.682 361.126C227.614 361.126 226.678 360.916 225.874 360.496C225.082 360.064 224.464 359.476 224.02 358.732C223.588 357.988 223.372 357.142 223.372 356.194C223.372 355.234 223.582 354.388 224.002 353.656C224.434 352.912 225.022 352.33 225.766 351.91C226.522 351.49 227.38 351.28 228.34 351.28C229.276 351.28 230.11 351.484 230.842 351.892C231.574 352.3 232.15 352.876 232.57 353.62C232.99 354.364 233.2 355.24 233.2 356.248C233.2 356.344 233.194 356.452 233.182 356.572C233.182 356.692 233.176 356.806 233.164 356.914H225.154V355.42H231.976L231.094 355.888C231.106 355.336 230.992 354.85 230.752 354.43C230.512 354.01 230.182 353.68 229.762 353.44C229.354 353.2 228.88 353.08 228.34 353.08C227.788 353.08 227.302 353.2 226.882 353.44C226.474 353.68 226.15 354.016 225.91 354.448C225.682 354.868 225.568 355.366 225.568 355.942V356.302C225.568 356.878 225.7 357.388 225.964 357.832C226.228 358.276 226.6 358.618 227.08 358.858C227.56 359.098 228.112 359.218 228.736 359.218C229.276 359.218 229.762 359.134 230.194 358.966C230.626 358.798 231.01 358.534 231.346 358.174L232.552 359.56C232.12 360.064 231.574 360.454 230.914 360.73C230.266 360.994 229.522 361.126 228.682 361.126ZM235.362 361V347.644H237.612V361H235.362ZM245.083 361.126C244.015 361.126 243.079 360.916 242.275 360.496C241.483 360.064 240.865 359.476 240.421 358.732C239.989 357.988 239.773 357.142 239.773 356.194C239.773 355.234 239.983 354.388 240.403 353.656C240.835 352.912 241.423 352.33 242.167 351.91C242.923 351.49 243.781 351.28 244.741 351.28C245.677 351.28 246.511 351.484 247.243 351.892C247.975 352.3 248.551 352.876 248.971 353.62C249.391 354.364 249.601 355.24 249.601 356.248C249.601 356.344 249.595 356.452 249.583 356.572C249.583 356.692 249.577 356.806 249.565 356.914H241.555V355.42H248.377L247.495 355.888C247.507 355.336 247.393 354.85 247.153 354.43C246.913 354.01 246.583 353.68 246.163 353.44C245.755 353.2 245.281 353.08 244.741 353.08C244.189 353.08 243.703 353.2 243.283 353.44C242.875 353.68 242.551 354.016 242.311 354.448C242.083 354.868 241.969 355.366 241.969 355.942V356.302C241.969 356.878 242.101 357.388 242.365 357.832C242.629 358.276 243.001 358.618 243.481 358.858C243.961 359.098 244.513 359.218 245.137 359.218C245.677 359.218 246.163 359.134 246.595 358.966C247.027 358.798 247.411 358.534 247.747 358.174L248.953 359.56C248.521 360.064 247.975 360.454 247.315 360.73C246.667 360.994 245.923 361.126 245.083 361.126ZM256.172 361.126C255.164 361.126 254.264 360.916 253.472 360.496C252.692 360.064 252.08 359.476 251.636 358.732C251.192 357.988 250.97 357.142 250.97 356.194C250.97 355.234 251.192 354.388 251.636 353.656C252.08 352.912 252.692 352.33 253.472 351.91C254.264 351.49 255.164 351.28 256.172 351.28C257.108 351.28 257.93 351.472 258.638 351.856C259.358 352.228 259.904 352.78 260.276 353.512L258.548 354.52C258.26 354.064 257.906 353.728 257.486 353.512C257.078 353.296 256.634 353.188 256.154 353.188C255.602 353.188 255.104 353.308 254.66 353.548C254.216 353.788 253.868 354.136 253.616 354.592C253.364 355.036 253.238 355.57 253.238 356.194C253.238 356.818 253.364 357.358 253.616 357.814C253.868 358.258 254.216 358.6 254.66 358.84C255.104 359.08 255.602 359.2 256.154 359.2C256.634 359.2 257.078 359.092 257.486 358.876C257.906 358.66 258.26 358.324 258.548 357.868L260.276 358.876C259.904 359.596 259.358 360.154 258.638 360.55C257.93 360.934 257.108 361.126 256.172 361.126ZM266.4 361.126C265.416 361.126 264.54 360.916 263.772 360.496C263.004 360.064 262.398 359.476 261.954 358.732C261.51 357.988 261.288 357.142 261.288 356.194C261.288 355.234 261.51 354.388 261.954 353.656C262.398 352.912 263.004 352.33 263.772 351.91C264.54 351.49 265.416 351.28 266.4 351.28C267.396 351.28 268.278 351.49 269.046 351.91C269.826 352.33 270.432 352.906 270.864 353.638C271.308 354.37 271.53 355.222 271.53 356.194C271.53 357.142 271.308 357.988 270.864 358.732C270.432 359.476 269.826 360.064 269.046 360.496C268.278 360.916 267.396 361.126 266.4 361.126ZM266.4 359.2C266.952 359.2 267.444 359.08 267.876 358.84C268.308 358.6 268.644 358.252 268.884 357.796C269.136 357.34 269.262 356.806 269.262 356.194C269.262 355.57 269.136 355.036 268.884 354.592C268.644 354.136 268.308 353.788 267.876 353.548C267.444 353.308 266.958 353.188 266.418 353.188C265.866 353.188 265.374 353.308 264.942 353.548C264.522 353.788 264.186 354.136 263.934 354.592C263.682 355.036 263.556 355.57 263.556 356.194C263.556 356.806 263.682 357.34 263.934 357.796C264.186 358.252 264.522 358.6 264.942 358.84C265.374 359.08 265.86 359.2 266.4 359.2ZM285.814 351.28C286.582 351.28 287.26 351.43 287.848 351.73C288.448 352.03 288.916 352.492 289.252 353.116C289.588 353.728 289.756 354.52 289.756 355.492V361H287.506V355.78C287.506 354.928 287.32 354.292 286.948 353.872C286.576 353.452 286.042 353.242 285.346 353.242C284.854 353.242 284.416 353.35 284.032 353.566C283.66 353.782 283.366 354.1 283.15 354.52C282.946 354.94 282.844 355.474 282.844 356.122V361H280.594V355.78C280.594 354.928 280.408 354.292 280.036 353.872C279.664 353.452 279.13 353.242 278.434 353.242C277.942 353.242 277.504 353.35 277.12 353.566C276.748 353.782 276.454 354.1 276.238 354.52C276.034 354.94 275.932 355.474 275.932 356.122V361H273.682V351.388H275.824V353.944L275.446 353.188C275.77 352.564 276.238 352.09 276.85 351.766C277.474 351.442 278.182 351.28 278.974 351.28C279.874 351.28 280.654 351.502 281.314 351.946C281.986 352.39 282.43 353.062 282.646 353.962L281.764 353.656C282.076 352.936 282.592 352.36 283.312 351.928C284.032 351.496 284.866 351.28 285.814 351.28Z" fill="#0E4366"/>
<path d="M136.401 452.638H142.665V454.564H136.401V452.638ZM136.581 458.038H143.691V460H134.241V447.4H143.439V449.362H136.581V458.038ZM150.406 460.126C149.398 460.126 148.498 459.916 147.706 459.496C146.926 459.064 146.314 458.476 145.87 457.732C145.426 456.988 145.204 456.142 145.204 455.194C145.204 454.234 145.426 453.388 145.87 452.656C146.314 451.912 146.926 451.33 147.706 450.91C148.498 450.49 149.398 450.28 150.406 450.28C151.342 450.28 152.164 450.472 152.872 450.856C153.592 451.228 154.138 451.78 154.51 452.512L152.782 453.52C152.494 453.064 152.14 452.728 151.72 452.512C151.312 452.296 150.868 452.188 150.388 452.188C149.836 452.188 149.338 452.308 148.894 452.548C148.45 452.788 148.102 453.136 147.85 453.592C147.598 454.036 147.472 454.57 147.472 455.194C147.472 455.818 147.598 456.358 147.85 456.814C148.102 457.258 148.45 457.6 148.894 457.84C149.338 458.08 149.836 458.2 150.388 458.2C150.868 458.2 151.312 458.092 151.72 457.876C152.14 457.66 152.494 457.324 152.782 456.868L154.51 457.876C154.138 458.596 153.592 459.154 152.872 459.55C152.164 459.934 151.342 460.126 150.406 460.126ZM160.634 460.126C159.65 460.126 158.774 459.916 158.006 459.496C157.238 459.064 156.632 458.476 156.188 457.732C155.744 456.988 155.522 456.142 155.522 455.194C155.522 454.234 155.744 453.388 156.188 452.656C156.632 451.912 157.238 451.33 158.006 450.91C158.774 450.49 159.65 450.28 160.634 450.28C161.63 450.28 162.512 450.49 163.28 450.91C164.06 451.33 164.666 451.906 165.098 452.638C165.542 453.37 165.764 454.222 165.764 455.194C165.764 456.142 165.542 456.988 165.098 457.732C164.666 458.476 164.06 459.064 163.28 459.496C162.512 459.916 161.63 460.126 160.634 460.126ZM160.634 458.2C161.186 458.2 161.678 458.08 162.11 457.84C162.542 457.6 162.878 457.252 163.118 456.796C163.37 456.34 163.496 455.806 163.496 455.194C163.496 454.57 163.37 454.036 163.118 453.592C162.878 453.136 162.542 452.788 162.11 452.548C161.678 452.308 161.192 452.188 160.652 452.188C160.1 452.188 159.608 452.308 159.176 452.548C158.756 452.788 158.42 453.136 158.168 453.592C157.916 454.036 157.79 454.57 157.79 455.194C157.79 455.806 157.916 456.34 158.168 456.796C158.42 457.252 158.756 457.6 159.176 457.84C159.608 458.08 160.094 458.2 160.634 458.2ZM180.047 450.28C180.815 450.28 181.493 450.43 182.081 450.73C182.681 451.03 183.149 451.492 183.485 452.116C183.821 452.728 183.989 453.52 183.989 454.492V460H181.739V454.78C181.739 453.928 181.553 453.292 181.181 452.872C180.809 452.452 180.275 452.242 179.579 452.242C179.087 452.242 178.649 452.35 178.265 452.566C177.893 452.782 177.599 453.1 177.383 453.52C177.179 453.94 177.077 454.474 177.077 455.122V460H174.827V454.78C174.827 453.928 174.641 453.292 174.269 452.872C173.897 452.452 173.363 452.242 172.667 452.242C172.175 452.242 171.737 452.35 171.353 452.566C170.981 452.782 170.687 453.1 170.471 453.52C170.267 453.94 170.165 454.474 170.165 455.122V460H167.915V450.388H170.057V452.944L169.679 452.188C170.003 451.564 170.471 451.09 171.083 450.766C171.707 450.442 172.415 450.28 173.207 450.28C174.107 450.28 174.887 450.502 175.547 450.946C176.219 451.39 176.663 452.062 176.879 452.962L175.997 452.656C176.309 451.936 176.825 451.36 177.545 450.928C178.265 450.496 179.099 450.28 180.047 450.28ZM198.997 450.28C199.765 450.28 200.443 450.43 201.031 450.73C201.631 451.03 202.099 451.492 202.435 452.116C202.771 452.728 202.939 453.52 202.939 454.492V460H200.689V454.78C200.689 453.928 200.503 453.292 200.131 452.872C199.759 452.452 199.225 452.242 198.529 452.242C198.037 452.242 197.599 452.35 197.215 452.566C196.843 452.782 196.549 453.1 196.333 453.52C196.129 453.94 196.027 454.474 196.027 455.122V460H193.777V454.78C193.777 453.928 193.591 453.292 193.219 452.872C192.847 452.452 192.313 452.242 191.617 452.242C191.125 452.242 190.687 452.35 190.303 452.566C189.931 452.782 189.637 453.1 189.421 453.52C189.217 453.94 189.115 454.474 189.115 455.122V460H186.865V450.388H189.007V452.944L188.629 452.188C188.953 451.564 189.421 451.09 190.033 450.766C190.657 450.442 191.365 450.28 192.157 450.28C193.057 450.28 193.837 450.502 194.497 450.946C195.169 451.39 195.613 452.062 195.829 452.962L194.947 452.656C195.259 451.936 195.775 451.36 196.495 450.928C197.215 450.496 198.049 450.28 198.997 450.28ZM210.349 460.126C209.281 460.126 208.345 459.916 207.541 459.496C206.749 459.064 206.131 458.476 205.687 457.732C205.255 456.988 205.039 456.142 205.039 455.194C205.039 454.234 205.249 453.388 205.669 452.656C206.101 451.912 206.689 451.33 207.433 450.91C208.189 450.49 209.047 450.28 210.007 450.28C210.943 450.28 211.777 450.484 212.509 450.892C213.241 451.3 213.817 451.876 214.237 452.62C214.657 453.364 214.867 454.24 214.867 455.248C214.867 455.344 214.861 455.452 214.849 455.572C214.849 455.692 214.843 455.806 214.831 455.914H206.821V454.42H213.643L212.761 454.888C212.773 454.336 212.659 453.85 212.419 453.43C212.179 453.01 211.849 452.68 211.429 452.44C211.021 452.2 210.547 452.08 210.007 452.08C209.455 452.08 208.969 452.2 208.549 452.44C208.141 452.68 207.817 453.016 207.577 453.448C207.349 453.868 207.235 454.366 207.235 454.942V455.302C207.235 455.878 207.367 456.388 207.631 456.832C207.895 457.276 208.267 457.618 208.747 457.858C209.227 458.098 209.779 458.218 210.403 458.218C210.943 458.218 211.429 458.134 211.861 457.966C212.293 457.798 212.677 457.534 213.013 457.174L214.219 458.56C213.787 459.064 213.241 459.454 212.581 459.73C211.933 459.994 211.189 460.126 210.349 460.126ZM217.029 460V450.388H219.171V453.034L218.919 452.26C219.207 451.612 219.657 451.12 220.269 450.784C220.893 450.448 221.667 450.28 222.591 450.28V452.422C222.495 452.398 222.405 452.386 222.321 452.386C222.237 452.374 222.153 452.368 222.069 452.368C221.217 452.368 220.539 452.62 220.035 453.124C219.531 453.616 219.279 454.354 219.279 455.338V460H217.029ZM228.822 460.126C227.814 460.126 226.914 459.916 226.122 459.496C225.342 459.064 224.73 458.476 224.286 457.732C223.842 456.988 223.62 456.142 223.62 455.194C223.62 454.234 223.842 453.388 224.286 452.656C224.73 451.912 225.342 451.33 226.122 450.91C226.914 450.49 227.814 450.28 228.822 450.28C229.758 450.28 230.58 450.472 231.288 450.856C232.008 451.228 232.554 451.78 232.926 452.512L231.198 453.52C230.91 453.064 230.556 452.728 230.136 452.512C229.728 452.296 229.284 452.188 228.804 452.188C228.252 452.188 227.754 452.308 227.31 452.548C226.866 452.788 226.518 453.136 226.266 453.592C226.014 454.036 225.888 454.57 225.888 455.194C225.888 455.818 226.014 456.358 226.266 456.814C226.518 457.258 226.866 457.6 227.31 457.84C227.754 458.08 228.252 458.2 228.804 458.2C229.284 458.2 229.728 458.092 230.136 457.876C230.556 457.66 230.91 457.324 231.198 456.868L232.926 457.876C232.554 458.596 232.008 459.154 231.288 459.55C230.58 459.934 229.758 460.126 228.822 460.126ZM239.248 460.126C238.18 460.126 237.244 459.916 236.44 459.496C235.648 459.064 235.03 458.476 234.586 457.732C234.154 456.988 233.938 456.142 233.938 455.194C233.938 454.234 234.148 453.388 234.568 452.656C235 451.912 235.588 451.33 236.332 450.91C237.088 450.49 237.946 450.28 238.906 450.28C239.842 450.28 240.676 450.484 241.408 450.892C242.14 451.3 242.716 451.876 243.136 452.62C243.556 453.364 243.766 454.24 243.766 455.248C243.766 455.344 243.76 455.452 243.748 455.572C243.748 455.692 243.742 455.806 243.73 455.914H235.72V454.42H242.542L241.66 454.888C241.672 454.336 241.558 453.85 241.318 453.43C241.078 453.01 240.748 452.68 240.328 452.44C239.92 452.2 239.446 452.08 238.906 452.08C238.354 452.08 237.868 452.2 237.448 452.44C237.04 452.68 236.716 453.016 236.476 453.448C236.248 453.868 236.134 454.366 236.134 454.942V455.302C236.134 455.878 236.266 456.388 236.53 456.832C236.794 457.276 237.166 457.618 237.646 457.858C238.126 458.098 238.678 458.218 239.302 458.218C239.842 458.218 240.328 458.134 240.76 457.966C241.192 457.798 241.576 457.534 241.912 457.174L243.118 458.56C242.686 459.064 242.14 459.454 241.48 459.73C240.832 459.994 240.088 460.126 239.248 460.126Z" fill="#0E4366"/>
<defs>
<filter id="filter0_d_52_32" x="0.5" y="0.5" width="377" height="533.398" filterUnits="userSpaceOnUse" color-interpolation-filters="sRGB">
<feFlood flood-opacity="0" result="BackgroundImageFix"/>
<feColorMatrix in="SourceAlpha" type="matrix" values="0 0 0 0 0 0 0 0 0 0 0 0 0 0 0 0 0 0 127 0" result="hardAlpha"/>
<feOffset dy="3"/>
<feGaussianBlur stdDeviation="3.75"/>
<feComposite in2="hardAlpha" operator="out"/>
<feColorMatrix type="matrix" values="0 0 0 0 0 0 0 0 0 0 0 0 0 0 0 0 0 0 0.7 0"/>
<feBlend mode="normal" in2="BackgroundImageFix" result="effect1_dropShadow_52_32"/>
<feBlend mode="normal" in="SourceGraphic" in2="effect1_dropShadow_52_32" result="shape"/>
</filter>
</defs>
</svg>
