<svg width="428" height="606" viewBox="0 0 428 606" fill="none" xmlns="http://www.w3.org/2000/svg">
<g filter="url(#filter0_d_52_2)">
<path d="M228.319 588.154L228.108 588.365C232.578 586.052 236.912 583.487 241.09 580.683C241.934 580.683 245.763 578.041 247.159 577.441L247.062 577.555C250.307 575.269 254.315 573.697 257.48 571.509C257.253 571.814 256.951 572.054 256.603 572.206C258.496 570.931 260.493 569.82 262.575 568.884C268.319 565.496 276.466 560.942 279.971 558.446L279.743 558.657C280.328 558.219 280.798 557.912 281.236 557.636L282.096 557.134L283.07 556.566C283.07 556.031 283.07 555.464 283.07 554.8V554.087V553.292C283.07 553.147 283.07 552.952 283.07 552.985C282.794 550.327 283.07 545.238 282.908 543.082L283.07 542.952V537.669V539.646C282.583 538.949 283.362 535.643 283.07 531.802C283.07 528.22 282.08 524.525 282.324 520.797C282.096 519.014 282.681 522.418 282.502 519.711C282.762 519.614 282.664 520.943 282.859 520.262C282.745 517.653 283.119 515.984 282.859 512.775L283.054 512.629C282.713 508.431 283.313 504.72 283.054 501.916C282.892 497.588 283.622 499.015 283.249 494.509L283.508 492.759C283.508 490.83 283.2 491.381 283.313 489.242C283.492 489.371 283.443 486.535 283.606 487.783C283.703 486.162 283.687 484.38 283.606 482.597C283.606 481.705 283.606 480.798 283.606 479.874V478.853H283.687L284.011 478.626C288.441 475.887 287.257 477.378 291.833 474.347L293.78 473.521C295.808 472.402 295.062 472.419 297.35 471.252C297.35 471.462 300.222 469.744 298.973 470.62C304.133 467.945 309.001 464.412 315.866 460.895C317.147 459.793 320.571 458.027 321.529 457.2C321.772 457.2 328.231 453.359 324.628 455.79C324.32 456.001 323.752 456.325 323.768 456.244L323.411 456.665C327.371 454.801 330.194 452.532 333.959 450.426C332.823 451.009 331.346 451.884 332.336 451.203L335.825 449.21L335.176 449.761L340.417 446.86L339.59 447.103C341.803 446.11 343.936 444.945 345.967 443.619C347.184 442.727 343.436 444.769 346.081 443.165L348.515 441.868L349.878 441.139L350.235 440.961L350.576 441.155C350.576 441.042 350.949 441.155 351.29 441.366C351.631 441.576 351.923 441.657 351.809 441.366C354.941 442.841 356.969 444.996 358.478 444.866C359.259 445.305 359.993 445.821 360.669 446.406L360.328 446.26C362.909 447.67 363.655 448.092 365.537 449.194C366.579 449.481 367.578 449.906 368.507 450.458C367.89 450.28 368.507 450.652 369.221 451.025C368.815 450.814 368.653 450.798 369.432 451.366C369.612 451.401 369.787 451.461 369.951 451.544C371.038 452.095 370.876 451.949 370.406 451.641C370.406 451.641 370.406 451.641 370.276 451.463C371.266 452.273 373.343 453.213 373.343 453.537C376.588 455.304 378.957 456.357 381.651 457.8C381.878 458.092 381.197 457.8 380.402 457.459L382.3 458.481C382.187 458.659 381.164 457.962 380.58 457.67C382.641 459.291 385.335 460.036 387.801 461.819L388.434 461.981L388.58 462.095C388.58 462.095 389.262 462.257 389.651 462.451C390.041 462.646 389.424 462.792 390.722 463.537C392.107 464.417 393.561 465.181 395.071 465.822C394.357 465.385 394.649 465.433 394.99 465.563C395.639 465.92 395.915 466.292 396.467 466.519V466.714C396.645 466.6 398.3 467.524 398.56 467.573C398.836 467.946 397.473 467.135 397.246 467.151L401.156 469.372C402.633 470.02 401.027 469.031 401.789 469.226C403.121 469.856 404.411 470.571 405.651 471.365L405.311 470.928C407.14 471.779 408.879 472.811 410.503 474.007C428.516 482.354 415.372 474.007 415.372 474.007C408.881 469.712 405.067 468.253 396.954 463.764C389.943 459.599 388.288 458.156 380.888 454.04C377.416 451.998 373.651 449.939 370.211 448.011C368.426 447.362 365.732 445.434 363.72 444.575L363.071 443.975C362.318 443.679 361.604 443.292 360.945 442.824C359.89 442.387 358.819 441.674 358.284 441.447L357.083 440.766H357.326C356.434 440.328 355.541 439.858 354.681 439.372C354.243 439.145 353.821 438.886 353.416 438.643L352.815 438.286L352.523 438.108L352.377 438.011L352.296 438.222L352.117 438.059V437.914V436.698V434.461C352.117 432.97 352.117 431.479 352.117 430.053C351.906 430.523 351.906 429.178 351.858 427.8L352.052 427.638C351.793 422.339 352.491 425.693 352.263 420.442L352.004 419.518C352.004 418.919 351.923 418.449 351.906 418.044C351.793 415.224 352.328 416.309 351.906 411.707C351.906 413.781 351.485 412.679 351.566 410.086L351.76 410.734C351.76 409.324 351.631 408.838 351.76 407.898C351.858 408.741 352.036 408.352 352.004 406.277L352.231 407.671L351.89 403.733C351.89 402.922 351.89 401.999 351.971 401.042C351.971 400.945 351.971 400.848 351.971 400.751C351.971 399.13 351.971 397.412 351.971 395.71C351.977 395.341 352.01 394.973 352.069 394.608C352.069 394.608 352.182 388.482 351.939 386.715C352.101 387.509 352.166 384.316 352.361 385.289C352.107 382.389 352.058 379.476 352.215 376.569V376.958C352.312 373.717 352.215 370.848 352.215 368.109C352.215 366.748 352.215 365.419 352.134 364.074C352.134 363.393 352.134 362.729 352.134 362.048C352.134 361.643 352.134 361.237 352.134 360.849L352.231 360.767L352.555 360.573L352.994 360.297C353.578 359.925 354.162 359.552 354.762 359.195C355.947 358.45 357.18 357.704 358.527 356.943C363.087 354.803 371.055 349.763 375.663 346.845C382.024 342.599 390.381 339.309 396.872 334.917C397.153 334.787 397.406 334.606 397.619 334.382L403.834 330.849C403.834 330.849 433.968 313.621 409.757 324.366L409.87 324.22C407.126 325.525 404.513 327.088 402.065 328.888C401.481 328.71 399.258 330.509 398.398 330.784C396.499 332.275 394 332.988 392.15 334.415C392.15 334.334 392.15 334.204 392.653 333.928C391.55 334.746 390.337 335.407 389.051 335.889C385.611 337.948 380.694 340.638 378.682 342.275L378.795 342.129C377.848 342.835 376.856 343.479 375.826 344.058C375.728 344.058 375.631 344.058 375.631 344.058C374.398 345.095 371.623 346.424 370.568 347.17L370.406 347.056L367.679 348.677L368.718 348.126C368.604 348.742 366.495 349.066 364.661 350.476C362.762 351.497 361.416 353.523 359.306 354.43C358.495 355.16 359.939 353.652 358.641 354.593C358.478 354.414 359.209 354.09 358.754 354.123C357.456 355.014 356.401 355.192 354.811 356.294L354.649 356.165C353.843 356.786 352.979 357.329 352.069 357.785L350.949 358.336L350.267 357.931L349.213 357.267C349.359 357.623 346.373 355.759 346.973 356.44C340.856 353.199 336.377 349.649 333.78 349.179C331.038 347.64 330.665 347.137 329.269 346.278L329.951 346.619C324.823 343.75 323.33 342.907 319.565 340.703C317.575 339.882 315.645 338.923 313.788 337.834C314.973 338.321 313.577 337.559 312.312 336.829C313.123 337.267 313.415 337.364 311.809 336.311C311.471 336.178 311.14 336.026 310.819 335.857C308.677 334.69 309.018 334.949 309.991 335.533C309.991 335.533 309.991 335.614 310.283 335.825C308.19 334.366 304.166 332.308 304.036 331.919C297.658 328.305 292.969 325.938 287.63 322.989C287.111 322.519 288.409 323.118 289.967 323.961L286.186 321.838C287.371 322.316 288.507 322.907 289.577 323.604C288.49 322.891 287.354 322.211 286.186 321.546C285.601 321.206 285.001 320.882 284.401 320.557L283.589 320.104V319.828V318.613V316.376C283.589 314.885 283.589 313.394 283.589 311.968C283.378 312.438 283.378 311.092 283.33 309.715L283.524 309.553C283.265 304.253 283.963 307.608 283.735 302.357L283.476 301.433C283.086 296.684 283.881 298.872 283.346 293.605C283.346 295.679 282.924 294.577 283.005 291.984L283.2 292.633C283.2 291.206 283.086 290.736 283.119 289.796C283.216 290.639 283.395 290.25 283.362 288.176L283.589 289.569L283.249 285.631C283.443 282.584 283.249 277.754 283.46 276.506C283.46 276.506 283.573 270.364 283.33 268.613C283.492 269.408 283.557 266.215 283.752 267.187C283.497 264.288 283.449 261.374 283.606 258.468V258.841C283.703 255.599 283.606 252.747 283.606 250.008C283.606 248.646 283.606 247.317 283.606 245.972C283.606 245.291 283.606 244.611 283.606 243.93V240.867L281.788 239.797L280.733 239.133C280.879 239.473 277.894 237.609 278.494 238.306L278.234 238.16C275.617 236.398 272.909 234.775 270.121 233.298C268.862 232.472 267.525 231.772 266.129 231.207L262.883 229.587C262.088 229.052 261.617 228.663 260.79 228.16L261.471 228.501C257.009 225.989 255.305 225.032 252.449 223.379C250.064 221.872 247.759 220.446 243.784 218.274C240.311 216.232 236.546 214.157 233.106 212.245C231.321 211.597 228.627 209.668 226.615 208.793L225.95 208.209C225.2 207.901 224.487 207.509 223.824 207.042H223.905C222.883 206.621 221.861 205.94 221.325 205.697L220.124 205.033H220.351L221.114 205.454C220.032 204.741 218.913 204.06 217.755 203.412L216.002 202.44L215.126 201.97C215.126 201.629 215.126 201.305 215.126 200.965V198.728C215.126 197.237 215.126 195.746 215.207 194.32C214.98 194.774 214.98 193.445 214.948 192.051L215.126 191.889C214.867 186.605 215.564 189.96 215.337 184.693L215.078 183.769C215.078 183.185 214.996 182.699 214.98 182.294C214.867 179.458 215.418 180.56 214.98 175.941C214.98 178.032 214.558 176.929 214.639 174.32L214.834 174.968C214.834 173.542 214.72 173.072 214.753 172.132C214.85 172.975 215.029 172.57 214.996 170.511L215.224 171.921L214.883 167.967C214.883 167.173 214.883 166.233 214.964 165.277C214.964 165.179 214.964 165.082 214.964 164.985C214.964 163.364 214.964 161.646 214.964 159.961C214.97 159.586 215.002 159.212 215.061 158.842C215.061 158.842 215.175 152.716 214.931 150.966C215.094 151.744 215.159 148.551 215.353 149.523C215.099 146.629 215.05 143.721 215.207 140.82V141.193C215.305 137.951 215.207 135.083 215.207 132.36C215.207 130.998 215.207 129.653 215.207 128.308C215.207 127.643 215.207 126.963 215.207 126.282V125.083H215.305L215.629 124.872L216.067 124.597L217.836 123.494C219.021 122.749 220.254 122.003 221.601 121.258C226.161 119.118 234.128 114.078 238.737 111.161C245.098 106.914 253.455 103.624 259.946 99.2161C260.226 99.0864 260.48 98.9049 260.693 98.6812L266.908 95.1481C266.908 95.1481 297.042 77.9199 272.831 88.6652L272.944 88.5031C270.207 89.8204 267.594 91.3827 265.139 93.1708C264.555 93.0087 262.331 94.7915 261.471 95.0832V95.0022C259.573 96.4933 257.074 97.2226 255.224 98.6326C255.224 98.5516 255.224 98.4219 255.727 98.1626C254.62 98.9715 253.408 99.6259 252.124 100.107C248.684 102.182 243.767 104.872 241.755 106.509L241.869 106.363C240.921 107.064 239.929 107.702 238.899 108.276H238.704C237.471 109.313 234.696 110.626 233.642 111.371L233.479 111.274L230.753 112.895L231.792 112.328C231.678 112.944 229.568 113.268 227.735 114.694C225.836 115.715 224.489 117.725 222.38 118.648C221.568 119.378 223.013 117.854 221.714 118.811C221.552 118.616 222.282 118.308 221.828 118.341C220.53 119.216 219.475 119.394 217.885 120.512L217.723 120.383C216.921 121.011 216.057 121.554 215.142 122.003L214.023 122.571L213.341 122.149L212.286 121.501C212.432 121.841 209.447 119.977 210.047 120.658C203.929 117.417 199.451 113.884 196.854 113.397C194.112 111.874 193.739 111.355 192.343 110.512L193.025 110.853C187.897 107.968 186.404 107.125 182.639 104.921C180.653 104.109 178.728 103.156 176.878 102.069C178.047 102.555 176.651 101.777 175.385 101.047C176.213 101.501 176.489 101.582 174.882 100.529C174.623 100.448 174.249 100.253 173.892 100.091C171.75 98.9244 172.091 99.1837 173.065 99.7671C173.065 99.7671 173.065 99.7671 173.357 100.043C171.264 98.6002 167.239 96.5419 167.109 96.1367C160.732 92.5387 156.042 90.1725 150.704 87.2066C150.184 86.7528 151.483 87.3524 153.04 88.179L149.259 86.0721C150.445 86.5498 151.58 87.1415 152.651 87.8386C151.564 87.1093 150.428 86.4286 149.259 85.7641L147.474 84.7917L145.17 83.5113C145.607 82.6558 145.96 81.7603 146.225 80.8371C146.457 79.8328 146.406 78.7839 146.079 77.8064C146.517 77.6605 146.079 76.7367 146.274 76.4288C145.933 75.6346 146.549 74.8081 146.274 74.0139C146.274 74.0139 146.436 74.0139 146.452 74.2408C146.452 73.6898 146.29 72.9118 146.549 72.8794C146.624 71.5187 146.503 70.1545 146.192 68.8276C145.917 68.3414 146.192 68.1955 146.014 67.6607C145.738 67.1259 146.014 66.04 145.852 65.6834H146.03V64.63V65.019C145.543 64.8893 146.322 64.2248 146.03 63.3982C146.03 62.6689 145.04 61.9396 145.284 61.1941C145.057 60.8375 145.641 61.502 145.462 60.9672C145.722 60.9672 145.624 61.2265 145.819 61.0806C145.706 60.562 146.079 60.2216 145.9 59.5895H146.095C145.754 58.7468 146.355 57.9688 146.014 57.4502C145.852 56.575 146.598 56.8667 146.209 55.9591L146.468 55.6188C146.468 55.2298 146.16 55.3433 146.274 54.9057C146.452 54.9057 146.42 54.3708 146.566 54.6139C146.825 53.6577 146.209 52.6529 146.566 51.3725C146.257 51.097 146.436 50.4649 146.209 50.2542C146.338 50.2542 146.209 48.9738 146.533 49.687C146.533 49.687 146.533 49.8652 146.533 49.849L146.712 49.9463C147.069 49.217 146.517 48.6173 146.582 47.9042C146.582 48.1148 146.582 48.3904 146.403 48.2121V47.5314L146.566 47.6773L146.663 46.6724L146.468 46.8183C146.566 46.3321 146.906 46.1538 146.614 45.6027C146.468 45.3596 146.355 46.0727 146.29 45.6027C146.472 44.79 146.608 43.9675 146.695 43.1393C146.468 43.2203 146.468 42.9934 146.436 42.7665H146.614C146.355 41.8913 147.052 42.4586 146.825 41.5672L146.566 41.4213C146.176 40.6271 146.971 40.9999 146.436 40.1085C146.436 40.4651 146.014 40.2868 146.095 39.8492L146.29 39.9626C146.29 39.7195 146.176 39.6385 146.209 39.4926C146.306 39.6223 146.485 39.4926 146.452 39.2171L146.679 39.444L146.338 38.7957C146.533 38.2771 146.338 37.4829 146.549 37.2723C146.549 37.2723 146.679 36.1702 146.387 35.9271C146.566 36.154 146.631 35.5381 146.841 35.7164C146.718 35.4964 146.641 35.2533 146.616 35.0023C146.591 34.7513 146.618 34.4978 146.695 34.2577C146.923 33.026 146.403 32.1508 146.695 31.0163C146.485 31.0163 146.598 30.4815 146.306 30.6273C146.03 29.4766 146.89 28.5366 146.014 28.1152C146.014 27.5966 146.225 27.4993 146.257 27.24V27.3535C146.22 26.6895 146.22 26.024 146.257 25.36C146.176 25.0034 145.771 24.9386 145.868 24.2903C146.03 24.501 145.998 24.2903 145.998 23.9986C145.998 24.1606 146.079 24.2093 146.192 23.8851C146.145 23.8354 146.111 23.7738 146.095 23.7069C146.095 23.3017 145.981 23.3665 145.965 23.561C145.95 23.5538 145.933 23.55 145.917 23.55C145.9 23.55 145.883 23.5538 145.868 23.561C146.079 23.1396 145.868 22.3941 146.128 22.3292C146.128 21.1137 145.771 20.2385 145.657 19.2337C145.803 19.1202 145.933 19.3471 145.998 19.6389V18.9257C146.209 18.9257 146.128 19.3471 146.16 19.5578C146.501 18.6988 145.835 17.7912 146.16 16.7864L145.998 16.5757C145.917 16.5757 145.803 16.365 145.771 16.2029C145.738 16.0409 146.192 16.2029 146.176 15.7167C146.16 15.2305 146.095 14.5984 145.998 14.096C145.998 14.3877 145.852 14.2905 145.803 14.177C145.754 14.0636 145.965 13.7718 145.884 13.5936H146.144C145.9 13.6908 145.884 12.9453 145.787 12.8481C145.965 12.7184 145.949 13.237 146.079 13.3018C146.079 12.297 146.079 12.7994 146.079 11.7946C145.9 11.2759 145.852 11.8918 145.641 11.6487C145.515 11.1675 145.487 10.6659 145.56 10.1739L145.349 10.3521C145.162 9.69059 145.19 8.98681 145.43 8.34246C143.661 1.74614 143.012 6.94864 143.012 6.94864C142.525 9.54179 143.158 10.887 143.32 13.9663C143.069 16.0366 142.95 18.1207 142.963 20.2061C142.963 21.5513 142.963 22.9775 143.077 24.2903C143.418 24.9224 143.077 26.0083 143.369 26.7538L143.174 27.0293C143.271 27.2908 143.271 27.5782 143.174 27.8397C143.246 28.1704 143.289 28.5065 143.304 28.8445V29.2983V29.2173C143.435 29.8571 143.462 30.5137 143.385 31.1621H143.612C143.353 32.4425 143.823 32.9125 143.531 34.0794C144.132 35.5381 143.142 36.3809 143.693 37.8881C143.693 37.7099 143.58 37.9692 143.531 37.9692C143.531 38.6499 143.629 39.3954 144.067 39.4116C144.067 39.914 143.937 39.8168 143.758 39.8816C143.953 39.8816 144.05 40.7244 144.05 40.7244L143.969 40.5461V41.6644L144.343 41.4537C144.229 42.0534 143.888 41.5996 143.986 42.183H144.278C144.112 42.9152 143.868 43.6272 143.547 44.3062C143.418 47.6448 144.18 51.2429 143.645 54.3546L143.418 54.5005C143.093 54.5005 143.921 55.3595 143.612 55.4729L143.758 55.8295C143.758 55.9267 143.629 56.1536 143.564 55.9753C143.54 56.1811 143.592 56.3882 143.71 56.5588L143.499 56.9154C143.336 58.2281 143.742 59.3464 143.661 60.7402C143.398 62.9467 143.458 65.1798 143.839 67.369C144.343 69.9135 143.012 72.8632 143.58 75.4726C143.574 75.5278 143.58 75.5837 143.596 75.6366C143.613 75.6896 143.641 75.7386 143.677 75.7805V78.1629C143.677 78.1629 143.677 83.0251 144.343 84.03L142.72 84.9862L140.902 86.0721C139.669 86.8014 138.403 87.5145 137.073 88.1952L136.067 88.9732L135.742 89.119C135.191 89.6321 134.581 90.0782 133.925 90.448C133.097 90.7073 133.762 90.0428 131.182 91.5501C129.04 92.5873 125.405 94.986 122.76 96.6229C124.221 95.8126 123.815 96.1691 123.215 96.6229C121.933 97.3685 121.089 97.644 120.131 98.2437L119.937 98.1302C119.791 98.4219 116.578 100.302 116.188 100.626C115.36 100.902 118.119 99.3295 118.379 99.0054L110.606 103.543C107.928 105.294 111.223 103.446 110.005 104.402C107.588 105.845 105.283 107.368 102.395 108.859L103.385 108.535C99.9967 110.704 96.4976 112.695 92.9018 114.499C83.8308 120.285 79.2546 123.381 77.3885 124.84C77.2425 123.948 77.064 123.964 76.853 125.261C76.139 125.877 76.2201 126.007 76.7719 125.828C76.4311 128.34 76.0092 133.932 75.4899 143.98L75.4088 143.624C75.2303 151.452 75.1978 156.379 75.571 161.792C75.1167 162.635 75.5711 168.275 75.3763 170.041V169.879C75.7171 174.644 75.0842 179.717 75.3763 184.32C75.2525 183.961 75.1975 183.581 75.214 183.202C75.3687 185.859 75.3307 188.524 75.1004 191.176C75.1004 194.563 75.1004 198.485 75.1004 202.326L74.3864 202.764L72.6826 203.833C71.5467 204.547 70.427 205.243 69.2424 205.957C68.6744 206.119 69.6318 205.422 70.8651 204.628L67.7657 206.475C67.6846 206.281 69.502 205.341 70.4432 204.757C66.5486 206.605 62.9462 209.473 58.4187 211.71L57.6074 212.375L57.3315 212.504C56.8829 212.943 56.3814 213.324 55.8386 213.639C55.1246 213.833 55.6763 213.25 53.5181 214.498C51.7169 215.34 48.6499 217.383 46.5241 218.76C47.7412 218.079 47.4004 218.404 46.9136 218.76C45.8426 219.392 45.1286 219.603 44.3334 220.138L44.1549 220.024C44.0413 220.3 41.3638 221.872 41.0555 222.147C40.3577 222.342 42.6782 221.045 42.8567 220.77L36.3658 224.546C34.1426 226.037 36.9013 224.546 35.8952 225.34C33.883 226.556 31.9844 227.852 29.5665 229.068L30.4103 228.825C27.6002 230.657 24.6791 232.313 21.6638 233.784C-5.92266 251.774 16.7956 239.343 16.7956 239.343C28.2683 233.282 33.7532 229.376 47.0596 221.515C58.8731 214.838 62.1997 213.412 74.3053 206.216L76.4473 205L78.8814 206.378L81.7861 207.999L84.0417 209.214L90.0458 212.618C90.8085 212.958 91.6686 213.412 92.6584 213.947L92.415 213.833C92.4975 213.884 92.5844 213.927 92.6747 213.963C95.2548 215.405 98.338 217.302 100.788 218.468H100.902L102.005 219.327L103.141 219.895L105.494 221.224H105.397L106.581 221.84L108.626 223.006L108.058 222.666C108.756 223.071 109.373 223.412 109.762 223.606H109.665L111.093 224.4L111.563 224.692L111.304 224.595L112.164 225.049C112.953 225.535 113.813 226.005 114.744 226.459C115.166 226.718 115.588 226.945 116.026 227.188C117.324 227.917 118.59 228.663 119.758 229.376L119.661 229.052C123.555 231.515 125.843 232.601 128.602 234.189C129.787 234.903 130.858 235.616 132.172 236.41L132.367 236.507C133.032 236.912 133.779 237.317 134.639 237.771V238.014C136.553 238.954 138.29 239.992 139.896 240.964L142.217 242.39L143.288 243.039C143.281 243.082 143.281 243.125 143.288 243.168C143.288 243.59 143.288 244.011 143.288 244.449C143.288 245.324 143.336 246.248 143.434 247.22C143.434 246.28 143.32 247.625 143.272 247.544C143.272 251.012 143.369 254.724 143.807 254.789C143.807 257.317 143.677 256.847 143.499 257.171C143.747 258.271 143.84 259.4 143.775 260.526C143.775 260.656 143.775 260.802 143.775 260.947V260.429V261.547L143.693 261.207C143.564 267.252 143.515 271.579 143.693 275.712C143.596 276.782 143.499 277.916 143.434 279.197C143.434 286.069 143.434 293.135 143.564 300.169V301.579C143.544 301.309 143.544 301.038 143.564 300.768C143.718 303.426 143.68 306.091 143.45 308.742C143.45 312.243 143.45 316.311 143.45 320.266L140.545 321.886C139.28 322.583 138.046 323.264 136.813 323.912L136.099 324.058C135.677 323.929 132.626 326.635 131.961 326.668L130.468 327.705C129.998 327.899 129.04 328.386 129.77 327.867C128.915 328.347 128.097 328.889 127.32 329.488L125.697 330.201C119.904 333.361 115.231 336.505 109.162 339.925C101.73 343.734 88.2933 351.935 80.569 356.651L78.3297 358.028L76.5934 359.066L75.2952 358.32L73.4128 357.218L69.6318 354.933L62.005 350.249C56.8934 347.121 51.7818 344.042 46.7838 341.449C46.3577 341.169 45.9002 340.94 45.4206 340.768L35.1163 334.771C35.1163 334.771 -14.9288 305.76 21.7612 330.103L21.4691 330.022C25.7243 332.746 30.1288 335.23 34.6619 337.462C35.0514 338.207 39.2867 340.184 40.5362 341.06H40.3902C44.0089 342.68 47.3517 345.403 50.8406 347.056C50.4626 346.994 50.1027 346.85 49.7858 346.635C51.8403 347.638 53.8056 348.815 55.6601 350.152C61.4857 353.393 69.502 358.255 73.4128 359.973L73.1207 359.876C73.786 360.168 74.2891 360.411 74.7434 360.654L75.6197 361.156L76.5934 361.724L78.1349 360.849L78.7516 360.476L79.4169 360.054L79.709 359.941C81.8835 358.32 86.4109 356.035 88.2122 354.868L88.4231 354.949L92.983 352.259L91.2467 353.215C91.6037 352.469 94.8654 351.481 98.0459 349.293C101.178 347.559 103.855 344.803 107.214 343.134C108.642 342.048 106.03 344.236 108.253 342.761C108.448 342.923 107.247 343.507 107.945 343.345C110.152 341.935 111.774 341.416 114.436 339.666L114.646 339.763C118.119 337.364 121.64 336.019 123.896 334.334C127.563 332.032 126.703 333.377 130.387 330.8L132.01 330.152C133.632 329.228 133.048 329.18 134.963 328.223C134.963 328.434 137.365 326.992 136.359 327.753C137.868 326.976 139.344 326.133 140.87 325.176L143.207 323.75L144.424 323.021L144.943 322.713L147.263 324.026L150.168 325.647C152.018 326.651 153.641 327.51 154.906 328.094L154.566 327.98C157.243 329.212 157.811 329.844 160.765 331.351C160.911 331.481 161.105 331.611 161.057 331.595C163.961 332.956 169.17 336.214 171.442 337.397V337.624L176.976 340.768L174.931 339.552C175.888 339.552 178.939 342.21 183.045 344.236C186.745 346.44 191.158 347.753 194.874 350.2C196.838 351.059 193.057 349.568 195.913 351.011C195.913 351.286 194.55 350.395 195.15 351.011C197.925 352.486 199.483 353.798 202.907 355.581V355.84C204.709 356.733 206.464 357.717 208.165 358.79L210.485 360.2L211.572 360.865L212.919 361.626C212.806 361.789 212.919 361.821 213.163 361.756H213.26C212.919 364.252 212.497 369.86 211.978 379.908L211.897 379.552C211.718 387.38 211.686 392.307 212.059 397.704C211.605 398.563 212.059 404.187 211.864 405.969V405.791C212.205 410.572 211.572 415.629 211.864 420.232C211.74 419.878 211.684 419.504 211.702 419.13C211.856 421.781 211.818 424.441 211.589 427.087C211.589 430.021 211.589 433.359 211.589 436.682L211.232 436.893L210.209 437.508C209.709 437.808 209.232 438.144 208.781 438.513C209.641 437.816 206.996 439.259 207.645 438.643C205.683 440.076 203.597 441.334 201.414 442.403L201.674 442.225C196.205 445.126 192.668 447.784 187.718 450.328C188.043 450.328 185.446 451.755 186.209 451.641C181.341 454.753 176.846 456.357 175.499 458.124C174.209 458.866 172.876 459.532 171.507 460.117L172.026 459.777C167.823 462.273 166.59 463.019 163.426 464.801C162.034 465.925 160.552 466.933 158.996 467.816C159.823 467.151 158.688 467.816 157.633 468.448C158.282 468.043 158.46 467.864 157.032 468.578C156.798 468.768 156.555 468.947 156.302 469.112C154.582 470.182 154.907 470.052 155.734 469.599C155.734 469.599 155.734 469.599 156.075 469.518C154.144 470.393 150.98 472.467 150.623 472.354L147.263 474.38L143.726 476.552V478.091V479.193C143.726 479.858 143.726 480.522 143.726 481.187C143.726 482.532 143.823 483.861 143.856 485.239C143.71 485.806 143.58 484.623 143.531 483.148V486.746C143.347 485.676 143.293 484.587 143.369 483.504C143.028 487.799 143.71 492.354 143.369 497.378L143.531 498.431V498.723C143.692 499.331 143.768 499.958 143.758 500.587C143.58 501.3 143.353 500.587 143.353 503.034C143.19 504.995 143.45 508.625 143.547 511.138C143.547 509.744 143.677 510.198 143.742 510.797C143.742 512.045 143.564 512.758 143.645 513.715L143.466 513.812C143.629 514.039 143.661 517.134 143.742 517.556C143.564 518.269 143.596 515.627 143.45 515.303C143.45 520.311 143.45 517.815 143.45 522.807C143.645 525.465 143.693 522.321 143.904 523.585C143.904 525.951 144.115 528.236 143.904 530.943L144.132 530.084C144.326 533.43 144.326 536.786 144.132 540.132C145.9 573.049 146.549 547.069 146.549 547.069C147.02 534.103 146.387 527.41 146.225 511.98C146.338 498.415 146.76 494.817 146.582 480.765V478.188L159.969 470.344C162.501 468.497 167.434 466.033 170.485 463.959L171.815 463.407C172.919 462.63 174.08 461.936 175.288 461.333V461.414C176.911 460.344 178.761 459.356 179.54 458.821V458.918L181.519 457.735L181.211 458.01C184.002 456.228 186.956 454.51 189.584 453.067H189.26C194.956 450.069 196.757 448.497 201.917 445.855V445.952C203.901 444.585 205.959 443.33 208.084 442.192L211.897 440.166L215.451 442.176L218.355 443.797C220.205 444.802 221.828 445.661 223.094 446.26L222.753 446.147C225.431 447.362 225.998 447.994 228.952 449.502C229.098 449.631 229.293 449.761 229.244 449.745C232.149 451.106 237.358 454.364 239.629 455.547V455.79L245.163 458.918L243.118 457.703C244.076 457.703 247.126 460.361 251.232 462.403C254.932 464.607 259.346 465.903 263.062 468.351C265.025 469.226 261.244 467.719 264.1 469.161C264.1 469.437 262.737 468.561 263.338 469.161C266.112 470.62 267.67 471.932 271.094 473.731V473.975C272.896 474.867 274.651 475.851 276.352 476.924L278.672 478.334L279.76 478.999L280.1 479.193V481.462C280.1 482.888 280.1 484.299 279.987 485.692L279.76 486.389C279.435 486.681 280.263 490.668 279.954 491.251L280.1 493.067C280.1 493.569 279.971 494.687 279.906 493.731C279.877 494.711 279.926 495.692 280.052 496.665L279.841 498.447C279.679 505.06 280.084 510.668 280.003 517.62C279.565 525.951 280.003 541.672 280.182 550.716C280.182 551.574 280.182 552.45 280.182 553.341C280.182 554.232 280.182 554.67 280.182 555.351L278.883 556.096L276.985 557.182L273.123 559.305L265.252 563.568C259.979 566.42 254.753 569.305 249.999 572.336C249.549 572.567 249.125 572.844 248.733 573.162L238.38 579.094C238.38 579.094 188.87 607.732 228.319 588.154ZM220.368 204.952C219.508 204.53 218.647 204.076 217.804 203.606C218.7 203.97 219.559 204.421 220.368 204.952ZM78.1999 196.346C78.1999 194.093 78.2972 191.856 78.3135 189.636C78.3135 185.179 78.3135 180.803 78.1999 176.573C78.225 175.966 78.1924 175.358 78.1025 174.758V160.447C78.1025 160.447 78.1025 131.955 77.4696 125.374C80.1958 124.224 86.8815 120.512 86.8815 120.512C100.61 113.154 107.247 108.584 123.215 99.1837C128.407 96.2339 132.221 94.127 135.693 92.2146L140.772 89.427L143.353 87.9845L144.7 87.2228L145.04 87.0283L146.111 87.6604L148.432 88.9894L153.803 92.0363C160.748 96.1043 168.245 100.302 175.093 104.192C178.501 105.812 184.051 109.362 188.075 111.323L189.455 112.344C190.911 113.05 192.325 113.84 193.69 114.71H193.576C195.621 115.731 197.795 117.076 198.818 117.579H198.704L201.106 118.94L200.668 118.778C204.173 120.626 207.727 122.668 210.81 124.515L210.664 124.175L211.686 124.807L211.946 124.986V126.217C211.946 126.882 211.946 127.498 211.946 128.113V130.35V130.545C211.918 130.76 211.918 130.978 211.946 131.193V131.679C211.946 132.181 211.946 132.668 211.946 133.186C211.946 133.705 211.946 133.948 211.783 133.527C211.687 135.362 211.687 137.202 211.783 139.037V139.28V139.183L211.881 140.577C211.881 141.42 211.881 142.311 211.718 143.235C211.893 144.165 211.98 145.109 211.978 146.055C211.978 147.043 211.978 148 211.978 148.956C211.978 149.053 211.897 148.956 211.816 148.308C211.816 148.129 211.816 147.805 211.816 147.821L211.621 147.562C211.515 149.605 211.564 151.653 211.767 153.688C211.767 153.316 211.767 152.862 211.767 152.667C211.767 153.267 211.767 153.867 211.767 154.466V154.353L211.67 157.335L211.8 157.076C211.8 157.238 211.8 157.4 211.8 157.562C211.573 158.546 211.54 159.564 211.702 160.56C211.702 160.868 211.832 160.657 211.881 160.447C211.881 160.901 211.881 161.387 211.881 161.873C211.881 161.225 211.783 162.57 211.735 162.489C211.735 162.959 211.735 163.445 211.735 163.931C211.654 165.293 211.589 166.735 211.556 168.064C211.767 167.821 211.767 168.502 211.816 169.182H211.621C211.881 171.84 211.199 170.155 211.41 172.78L211.67 173.25C212.059 175.617 211.28 174.531 211.8 177.156C211.8 176.119 212.222 176.67 212.14 177.951L211.962 177.626C211.998 178.101 211.998 178.578 211.962 179.053C211.864 178.631 211.702 178.826 211.735 179.863L211.491 179.166L211.832 181.143C211.637 182.667 211.832 185.082 211.621 185.698C211.542 187.045 211.596 188.397 211.783 189.733C211.605 189.069 211.54 190.868 211.329 190.365C211.591 191.804 211.64 193.272 211.475 194.725V194.53C211.378 196.151 211.475 197.577 211.475 198.939C211.475 199.636 211.475 200.3 211.572 200.965V201.986L210.972 202.342L209.138 203.444C207.889 204.19 206.607 204.903 205.26 205.6L204.254 206.362L203.929 206.524C203.929 206.524 203.783 206.686 203.524 206.88L201.771 207.901C201.414 207.901 201.479 207.723 199.369 208.955C197.26 210.187 193.593 212.375 190.947 214.011C192.408 213.201 192.002 213.558 191.402 214.011C190.12 214.757 189.276 215.033 188.319 215.632L188.124 215.519C187.978 215.81 184.765 217.691 184.375 218.015C183.548 218.29 186.306 216.734 186.566 216.394L178.793 220.916C176.181 222.618 179.231 220.916 178.274 221.694C172.919 224.822 167.645 227.804 162.566 230.559L161.738 230.77C161.251 230.656 157.519 233.768 156.74 233.865L154.939 235.081C154.371 235.324 153.316 235.924 154.128 235.308C153.104 235.88 152.113 236.507 151.158 237.188L149.194 238.079L146.566 239.554L145.495 240.17L144.618 239.684L143.58 239.1C143.06 238.812 142.518 238.568 141.957 238.371C142.996 238.76 140.432 237.204 141.276 237.447C139.053 236.466 136.919 235.294 134.898 233.946L135.19 234.076C129.933 230.835 125.86 229.052 121.186 226.053C121.3 226.378 118.817 224.805 119.304 225.405C114.176 222.78 110.509 219.668 108.269 219.392C106.981 218.652 105.735 217.84 104.537 216.961L105.105 217.237C100.821 214.838 99.5875 214.141 96.4556 212.375C94.7702 211.734 93.1417 210.954 91.5874 210.041C92.5935 210.43 91.4251 209.781 90.3704 209.182C91.0519 209.538 91.2953 209.619 89.9647 208.712C89.7375 208.712 89.4292 208.501 89.1209 208.371C87.3359 207.399 87.6117 207.626 88.4231 208.112C88.4231 208.112 88.4231 208.112 88.6503 208.371C86.9302 207.14 83.5549 205.438 83.4738 205.13L80.0336 203.234L77.7617 202.018V201.483V199.863C78.1025 198.615 78.1836 197.464 78.1999 196.346ZM146.744 307.316C146.744 307.106 146.744 306.911 146.744 306.7C146.737 306.77 146.737 306.841 146.744 306.911C146.785 307.18 146.785 307.453 146.744 307.721V307.316ZM207.11 354.787C204.66 353.426 202.144 352.032 199.483 350.46C191.012 345.079 174.477 335.987 164.935 330.752C161.852 329.131 158.687 327.3 155.491 325.42L150.623 322.551L148.188 321.076L146.971 320.347L146.825 320.25H146.744H146.647V319.617C146.647 319.18 146.647 318.742 146.647 318.288C146.647 317.397 146.647 316.473 146.777 315.517C146.673 314.983 146.619 314.44 146.614 313.896L146.712 307.916L146.89 308.337C147.247 304.707 146.695 301.725 146.76 298.127C146.76 298.483 146.76 298.856 146.76 299.18V296.571L146.858 297.025L146.955 292.049L146.76 292.73C147.008 290.724 147.056 288.699 146.906 286.684C146.777 285.631 146.679 288.013 146.614 287.203V285.582C146.76 282.341 146.923 277.981 146.988 274.237C146.76 274.626 146.76 273.508 146.728 272.357L146.906 272.228C146.647 267.803 147.345 270.607 147.117 266.231L146.858 265.453C146.468 261.499 147.263 263.33 146.728 258.97C146.728 259.829 146.647 260.04 146.549 259.764C146.549 259.181 146.549 258.597 146.549 258.014V258.192C146.549 257.495 146.549 257.074 146.468 256.669V256.085C146.468 256.004 146.468 255.923 146.468 255.826C146.566 256.523 146.744 256.199 146.712 254.448L146.939 255.615L146.598 252.374C146.793 249.829 146.598 245.81 146.809 244.757V243.217L147.101 243.006L147.945 242.504L150.752 241.077C151.839 240.646 152.878 240.103 153.852 239.457L155.377 238.63L155.961 238.322L156.87 237.933C157.318 237.688 157.751 237.417 158.168 237.123L162.387 234.773C162.387 234.773 162.387 234.854 162.095 235.032C167.256 232.342 172.124 228.825 178.988 225.308C180.27 224.19 183.694 222.439 184.651 221.613C184.895 221.613 191.353 217.772 187.751 220.186C187.489 220.384 187.199 220.543 186.891 220.656L186.534 221.078C190.493 219.198 193.317 216.945 197.081 214.838C195.945 215.422 194.469 216.281 195.459 215.6L198.948 213.623L198.298 214.174L203.54 211.272L202.728 211.499C204.941 210.515 207.069 209.349 209.09 208.015C210.307 207.14 206.558 209.166 209.203 207.577L211.637 206.281L213 205.551L213.357 205.357L213.698 205.568C213.698 205.454 214.071 205.568 214.412 205.778C214.753 205.989 214.931 206.005 214.948 205.924L215.126 206.021L217.333 207.286L218.599 207.999C219.233 208.456 219.913 208.847 220.627 209.166L222.38 210.154C229.325 214.206 236.822 218.42 243.67 222.293L244.222 222.569C245.397 223.302 246.616 223.963 247.873 224.546L250.696 226.167L250.924 226.329H251.021L253.049 227.48C253.284 227.7 253.552 227.88 253.845 228.015C254.898 228.724 256.018 229.332 257.187 229.83L257.983 230.413L259.524 231.207L260.319 231.645L261.033 232.05L262.218 232.779H262.104C264.149 233.8 266.323 235.162 267.346 235.664H267.232L269.634 237.026L269.196 236.847C272.701 238.695 276.255 240.737 279.338 242.601L279.192 242.261L280.214 242.876L280.474 243.055V243.995C280.474 244.659 280.474 245.291 280.474 245.891C280.474 247.107 280.474 248.225 280.474 249.343C280.474 251.596 280.474 253.865 280.474 256.944V256.847C281.074 265.631 280.068 270.737 280.636 279.796C280.636 278.662 280.522 280.283 280.474 280.185C280.474 284.351 280.571 288.808 281.009 288.872C281.009 291.919 280.879 291.352 280.701 291.741C280.979 293.39 281.077 295.063 280.993 296.733L280.912 295.647V302.454L281.285 301.109C281.171 304.723 280.831 302.033 280.928 305.485H281.22C281.22 310.477 280.701 313.394 280.49 318.224C280.49 318.791 280.49 319.358 280.49 319.942L274.956 323.183L268.611 326.911L255.922 334.415C247.5 339.39 239.208 344.139 231.337 348.466L230.51 348.677C230.023 348.563 226.291 351.675 225.512 351.773L223.71 352.988C223.142 353.247 222.007 353.831 222.899 353.215C221.163 354.22 221.147 354.285 219.929 355.095L217.966 356.003L215.337 357.461L214.055 358.207L213.763 358.369L213.617 358.466L207.11 354.787ZM215.224 425.499C215.224 421.058 215.224 416.666 215.11 412.436C215.134 411.829 215.101 411.221 215.013 410.621V396.326C215.013 396.326 215.013 367.834 214.38 361.237C217.106 360.103 223.792 356.375 223.792 356.375C236.627 349.487 243.264 345.03 257.155 336.813L256.165 337.51C255.9 337.699 255.611 337.852 255.305 337.964L254.948 338.385C258.908 336.522 261.731 334.253 265.496 332.146C264.875 332.524 264.224 332.849 263.549 333.118L266.989 331.189L266.648 331.481L271.889 328.58L271.532 328.677L272.603 328.094L273.301 327.705C274.461 327.181 275.578 326.569 276.644 325.873L277.683 325.29L280.263 323.848L281.61 323.102L281.95 322.908L283.021 323.523L285.342 324.869L290.713 327.916C297.658 331.967 305.155 336.181 312.003 340.071C315.411 341.692 320.961 345.225 324.985 347.202L326.365 348.207C327.825 348.912 329.239 349.708 330.6 350.589H330.486C332.531 351.594 334.705 352.956 335.728 353.458H335.614L338.016 354.819L337.578 354.641C341.083 356.505 344.637 358.531 347.72 360.395L347.574 360.054L348.596 360.686L348.856 360.865V363.976V366.213V366.294C348.827 366.509 348.827 366.727 348.856 366.942V367.429C348.856 367.931 348.856 368.433 348.856 368.936C348.856 369.438 348.856 369.714 348.693 369.276C348.597 371.112 348.597 372.951 348.693 374.787V375.03V374.933C348.693 375.419 348.693 375.889 348.775 376.343C348.772 377.23 348.723 378.118 348.628 379.001C348.804 379.93 348.891 380.874 348.888 381.821C348.888 382.809 348.888 383.765 348.888 384.705C348.888 384.803 348.807 384.705 348.726 384.073C348.726 383.879 348.726 383.555 348.726 383.571L348.531 383.328C348.426 385.365 348.475 387.408 348.677 389.438C348.677 389.065 348.677 388.628 348.677 388.433C348.677 389.017 348.677 389.616 348.677 390.232V390.102L348.58 393.101L348.71 392.825C348.71 392.987 348.71 393.149 348.71 393.328C348.484 394.306 348.451 395.319 348.612 396.31C348.612 396.634 348.742 396.423 348.791 396.196C348.791 396.666 348.791 397.136 348.791 397.623C348.791 396.991 348.693 398.32 348.645 398.239C348.645 398.725 348.645 399.211 348.645 399.681C348.645 401.042 348.499 402.485 348.466 403.814C348.677 403.587 348.677 404.251 348.726 404.948L348.531 405.029C348.791 407.671 348.109 406.002 348.32 408.627L348.58 409.081C348.969 411.463 348.19 410.361 348.71 413.003C348.71 411.95 349.132 412.501 349.05 413.797L348.856 413.473C348.925 413.94 348.952 414.412 348.937 414.883C348.839 414.462 348.677 414.656 348.71 415.71L348.466 414.997L348.807 416.974C348.612 418.497 348.807 420.912 348.596 421.544C348.517 422.886 348.571 424.233 348.758 425.564C348.58 424.899 348.515 426.714 348.304 426.196C348.566 427.634 348.615 429.103 348.45 430.556V430.361C348.353 431.982 348.45 433.424 348.45 434.786L348.547 436.812V438.043L343.16 441.155L336.815 444.883L324.125 452.387C315.703 457.362 307.411 462.192 299.541 466.438L298.713 466.649C298.226 466.552 294.494 469.647 293.715 469.745L291.914 470.96C291.346 471.219 290.21 471.803 291.103 471.203C290.077 471.767 289.086 472.389 288.133 473.067L286.169 473.975C285.277 474.461 284.401 474.947 283.541 475.449L283.005 475.757L281.382 474.866L280.247 474.185C279.484 473.715 278.705 473.213 277.894 472.678C276.547 472.257 273.853 470.49 272.831 470.182C272.749 469.988 267.265 466.941 270.543 468.561C270.835 468.691 271.305 468.967 271.24 468.999H271.711C268.741 466.876 265.885 465.871 262.786 464.023C263.678 464.607 264.928 465.304 264.035 464.947L261.147 463.245L261.828 463.456L257.561 460.879L258.064 461.398C256.447 460.184 254.719 459.126 252.903 458.237C251.735 457.751 254.77 459.631 252.498 458.399C249.739 456.649 245.617 454.04 242.031 451.917C242.258 452.306 241.301 451.738 240.279 451.203V450.977C236.319 448.999 239.078 449.793 235.183 447.735L234.372 447.589C230.753 445.969 232.749 446.179 228.66 444.429C230.185 445.272 229.163 445.207 227.345 444.072L227.913 444.17C226.859 443.619 226.485 443.489 225.82 443.067C226.485 443.327 226.274 443.067 224.749 442.176L225.885 442.549L222.85 441.204C220.757 439.761 217.138 437.962 216.359 437.217L215.71 436.828L214.72 436.26V435.466C214.72 434.348 214.72 433.23 214.72 432.095C215.11 429.972 215.159 427.736 215.175 425.515L215.224 425.499Z" fill="#0E4366"/>
</g>
<path d="M101.255 172V158H107.375C108.895 158 110.228 158.293 111.375 158.88C112.522 159.467 113.415 160.28 114.055 161.32C114.695 162.36 115.015 163.587 115.015 165C115.015 166.4 114.695 167.627 114.055 168.68C113.415 169.72 112.522 170.533 111.375 171.12C110.228 171.707 108.895 172 107.375 172H101.255ZM103.855 169.8H107.255C108.308 169.8 109.215 169.6 109.975 169.2C110.748 168.8 111.342 168.24 111.755 167.52C112.182 166.8 112.395 165.96 112.395 165C112.395 164.027 112.182 163.187 111.755 162.48C111.342 161.76 110.748 161.2 109.975 160.8C109.215 160.4 108.308 160.2 107.255 160.2H103.855V169.8ZM122.558 172.14C121.372 172.14 120.332 171.907 119.438 171.44C118.558 170.96 117.872 170.307 117.378 169.48C116.898 168.653 116.658 167.713 116.658 166.66C116.658 165.593 116.892 164.653 117.358 163.84C117.838 163.013 118.492 162.367 119.318 161.9C120.158 161.433 121.112 161.2 122.178 161.2C123.218 161.2 124.145 161.427 124.958 161.88C125.772 162.333 126.412 162.973 126.878 163.8C127.345 164.627 127.578 165.6 127.578 166.72C127.578 166.827 127.572 166.947 127.558 167.08C127.558 167.213 127.552 167.34 127.538 167.46H118.638V165.8H126.218L125.238 166.32C125.252 165.707 125.125 165.167 124.858 164.7C124.592 164.233 124.225 163.867 123.758 163.6C123.305 163.333 122.778 163.2 122.178 163.2C121.565 163.2 121.025 163.333 120.558 163.6C120.105 163.867 119.745 164.24 119.478 164.72C119.225 165.187 119.098 165.74 119.098 166.38V166.78C119.098 167.42 119.245 167.987 119.538 168.48C119.832 168.973 120.245 169.353 120.778 169.62C121.312 169.887 121.925 170.02 122.618 170.02C123.218 170.02 123.758 169.927 124.238 169.74C124.718 169.553 125.145 169.26 125.518 168.86L126.858 170.4C126.378 170.96 125.772 171.393 125.038 171.7C124.318 171.993 123.492 172.14 122.558 172.14ZM130.32 172V160.72C130.32 159.6 130.647 158.707 131.3 158.04C131.967 157.36 132.913 157.02 134.14 157.02C134.58 157.02 134.993 157.067 135.38 157.16C135.78 157.253 136.113 157.4 136.38 157.6L135.7 159.48C135.513 159.333 135.3 159.227 135.06 159.16C134.82 159.08 134.573 159.04 134.32 159.04C133.8 159.04 133.407 159.187 133.14 159.48C132.873 159.76 132.74 160.187 132.74 160.76V161.96L132.82 163.08V172H130.32ZM128.56 163.4V161.4H135.68V163.4H128.56ZM142.226 172.14C141.04 172.14 140 171.907 139.106 171.44C138.226 170.96 137.54 170.307 137.046 169.48C136.566 168.653 136.326 167.713 136.326 166.66C136.326 165.593 136.56 164.653 137.026 163.84C137.506 163.013 138.16 162.367 138.986 161.9C139.826 161.433 140.78 161.2 141.846 161.2C142.886 161.2 143.813 161.427 144.626 161.88C145.44 162.333 146.08 162.973 146.546 163.8C147.013 164.627 147.246 165.6 147.246 166.72C147.246 166.827 147.24 166.947 147.226 167.08C147.226 167.213 147.22 167.34 147.206 167.46H138.306V165.8H145.886L144.906 166.32C144.92 165.707 144.793 165.167 144.526 164.7C144.26 164.233 143.893 163.867 143.426 163.6C142.973 163.333 142.446 163.2 141.846 163.2C141.233 163.2 140.693 163.333 140.226 163.6C139.773 163.867 139.413 164.24 139.146 164.72C138.893 165.187 138.766 165.74 138.766 166.38V166.78C138.766 167.42 138.913 167.987 139.206 168.48C139.5 168.973 139.913 169.353 140.446 169.62C140.98 169.887 141.593 170.02 142.286 170.02C142.886 170.02 143.426 169.927 143.906 169.74C144.386 169.553 144.813 169.26 145.186 168.86L146.526 170.4C146.046 170.96 145.44 171.393 144.706 171.7C143.986 171.993 143.16 172.14 142.226 172.14ZM155.708 161.2C156.561 161.2 157.321 161.367 157.988 161.7C158.668 162.033 159.201 162.547 159.588 163.24C159.974 163.92 160.168 164.8 160.168 165.88V172H157.668V166.2C157.668 165.253 157.441 164.547 156.988 164.08C156.548 163.613 155.928 163.38 155.128 163.38C154.541 163.38 154.021 163.5 153.568 163.74C153.114 163.98 152.761 164.34 152.508 164.82C152.268 165.287 152.148 165.88 152.148 166.6V172H149.648V161.32H152.028V164.2L151.608 163.32C151.981 162.64 152.521 162.12 153.228 161.76C153.948 161.387 154.774 161.2 155.708 161.2ZM168.259 172.14C167.139 172.14 166.139 171.907 165.259 171.44C164.392 170.96 163.712 170.307 163.219 169.48C162.725 168.653 162.479 167.713 162.479 166.66C162.479 165.593 162.725 164.653 163.219 163.84C163.712 163.013 164.392 162.367 165.259 161.9C166.139 161.433 167.139 161.2 168.259 161.2C169.299 161.2 170.212 161.413 170.999 161.84C171.799 162.253 172.405 162.867 172.819 163.68L170.899 164.8C170.579 164.293 170.185 163.92 169.719 163.68C169.265 163.44 168.772 163.32 168.239 163.32C167.625 163.32 167.072 163.453 166.579 163.72C166.085 163.987 165.699 164.373 165.419 164.88C165.139 165.373 164.999 165.967 164.999 166.66C164.999 167.353 165.139 167.953 165.419 168.46C165.699 168.953 166.085 169.333 166.579 169.6C167.072 169.867 167.625 170 168.239 170C168.772 170 169.265 169.88 169.719 169.64C170.185 169.4 170.579 169.027 170.899 168.52L172.819 169.64C172.405 170.44 171.799 171.06 170.999 171.5C170.212 171.927 169.299 172.14 168.259 172.14ZM179.844 172.14C178.657 172.14 177.617 171.907 176.724 171.44C175.844 170.96 175.157 170.307 174.664 169.48C174.184 168.653 173.944 167.713 173.944 166.66C173.944 165.593 174.177 164.653 174.644 163.84C175.124 163.013 175.777 162.367 176.604 161.9C177.444 161.433 178.397 161.2 179.464 161.2C180.504 161.2 181.43 161.427 182.244 161.88C183.057 162.333 183.697 162.973 184.164 163.8C184.63 164.627 184.864 165.6 184.864 166.72C184.864 166.827 184.857 166.947 184.844 167.08C184.844 167.213 184.837 167.34 184.824 167.46H175.924V165.8H183.504L182.524 166.32C182.537 165.707 182.41 165.167 182.144 164.7C181.877 164.233 181.51 163.867 181.044 163.6C180.59 163.333 180.064 163.2 179.464 163.2C178.85 163.2 178.31 163.333 177.844 163.6C177.39 163.867 177.03 164.24 176.764 164.72C176.51 165.187 176.384 165.74 176.384 166.38V166.78C176.384 167.42 176.53 167.987 176.824 168.48C177.117 168.973 177.53 169.353 178.064 169.62C178.597 169.887 179.21 170.02 179.904 170.02C180.504 170.02 181.044 169.927 181.524 169.74C182.004 169.553 182.43 169.26 182.804 168.86L184.144 170.4C183.664 170.96 183.057 171.393 182.324 171.7C181.604 171.993 180.777 172.14 179.844 172.14Z" fill="#0E4366"/>
<path d="M177.274 280.44H184.254V282.64H177.274V280.44ZM177.494 288H174.894V274H185.114V276.18H177.494V288ZM187.388 288V277.32H189.888V288H187.388ZM188.648 275.56C188.181 275.56 187.795 275.413 187.488 275.12C187.195 274.827 187.048 274.473 187.048 274.06C187.048 273.633 187.195 273.28 187.488 273C187.795 272.707 188.181 272.56 188.648 272.56C189.115 272.56 189.495 272.7 189.788 272.98C190.095 273.247 190.248 273.587 190.248 274C190.248 274.44 190.101 274.813 189.808 275.12C189.515 275.413 189.128 275.56 188.648 275.56ZM199.229 277.2C200.083 277.2 200.843 277.367 201.509 277.7C202.189 278.033 202.723 278.547 203.109 279.24C203.496 279.92 203.689 280.8 203.689 281.88V288H201.189V282.2C201.189 281.253 200.963 280.547 200.509 280.08C200.069 279.613 199.449 279.38 198.649 279.38C198.063 279.38 197.543 279.5 197.089 279.74C196.636 279.98 196.283 280.34 196.029 280.82C195.789 281.287 195.669 281.88 195.669 282.6V288H193.169V277.32H195.549V280.2L195.129 279.32C195.503 278.64 196.043 278.12 196.749 277.76C197.469 277.387 198.296 277.2 199.229 277.2ZM213.441 288V285.84L213.301 285.38V281.6C213.301 280.867 213.081 280.3 212.641 279.9C212.201 279.487 211.534 279.28 210.641 279.28C210.041 279.28 209.447 279.373 208.861 279.56C208.287 279.747 207.801 280.007 207.401 280.34L206.421 278.52C206.994 278.08 207.674 277.753 208.461 277.54C209.261 277.313 210.087 277.2 210.941 277.2C212.487 277.2 213.681 277.573 214.521 278.32C215.374 279.053 215.801 280.193 215.801 281.74V288H213.441ZM210.081 288.14C209.281 288.14 208.581 288.007 207.981 287.74C207.381 287.46 206.914 287.08 206.581 286.6C206.261 286.107 206.101 285.553 206.101 284.94C206.101 284.34 206.241 283.8 206.521 283.32C206.814 282.84 207.287 282.46 207.941 282.18C208.594 281.9 209.461 281.76 210.541 281.76H213.641V283.42H210.721C209.867 283.42 209.294 283.56 209.001 283.84C208.707 284.107 208.561 284.44 208.561 284.84C208.561 285.293 208.741 285.653 209.101 285.92C209.461 286.187 209.961 286.32 210.601 286.32C211.214 286.32 211.761 286.18 212.241 285.9C212.734 285.62 213.087 285.207 213.301 284.66L213.721 286.16C213.481 286.787 213.047 287.273 212.421 287.62C211.807 287.967 211.027 288.14 210.081 288.14ZM225.069 277.2C225.922 277.2 226.682 277.367 227.349 277.7C228.029 278.033 228.562 278.547 228.949 279.24C229.336 279.92 229.529 280.8 229.529 281.88V288H227.029V282.2C227.029 281.253 226.802 280.547 226.349 280.08C225.909 279.613 225.289 279.38 224.489 279.38C223.902 279.38 223.382 279.5 222.929 279.74C222.476 279.98 222.122 280.34 221.869 280.82C221.629 281.287 221.509 281.88 221.509 282.6V288H219.009V277.32H221.389V280.2L220.969 279.32C221.342 278.64 221.882 278.12 222.589 277.76C223.309 277.387 224.136 277.2 225.069 277.2ZM237.62 288.14C236.5 288.14 235.5 287.907 234.62 287.44C233.753 286.96 233.073 286.307 232.58 285.48C232.087 284.653 231.84 283.713 231.84 282.66C231.84 281.593 232.087 280.653 232.58 279.84C233.073 279.013 233.753 278.367 234.62 277.9C235.5 277.433 236.5 277.2 237.62 277.2C238.66 277.2 239.573 277.413 240.36 277.84C241.16 278.253 241.767 278.867 242.18 279.68L240.26 280.8C239.94 280.293 239.547 279.92 239.08 279.68C238.627 279.44 238.133 279.32 237.6 279.32C236.987 279.32 236.433 279.453 235.94 279.72C235.447 279.987 235.06 280.373 234.78 280.88C234.5 281.373 234.36 281.967 234.36 282.66C234.36 283.353 234.5 283.953 234.78 284.46C235.06 284.953 235.447 285.333 235.94 285.6C236.433 285.867 236.987 286 237.6 286C238.133 286 238.627 285.88 239.08 285.64C239.547 285.4 239.94 285.027 240.26 284.52L242.18 285.64C241.767 286.44 241.16 287.06 240.36 287.5C239.573 287.927 238.66 288.14 237.62 288.14ZM249.205 288.14C248.018 288.14 246.978 287.907 246.085 287.44C245.205 286.96 244.518 286.307 244.025 285.48C243.545 284.653 243.305 283.713 243.305 282.66C243.305 281.593 243.538 280.653 244.005 279.84C244.485 279.013 245.138 278.367 245.965 277.9C246.805 277.433 247.758 277.2 248.825 277.2C249.865 277.2 250.792 277.427 251.605 277.88C252.418 278.333 253.058 278.973 253.525 279.8C253.992 280.627 254.225 281.6 254.225 282.72C254.225 282.827 254.218 282.947 254.205 283.08C254.205 283.213 254.198 283.34 254.185 283.46H245.285V281.8H252.865L251.885 282.32C251.898 281.707 251.772 281.167 251.505 280.7C251.238 280.233 250.872 279.867 250.405 279.6C249.952 279.333 249.425 279.2 248.825 279.2C248.212 279.2 247.672 279.333 247.205 279.6C246.752 279.867 246.392 280.24 246.125 280.72C245.872 281.187 245.745 281.74 245.745 282.38V282.78C245.745 283.42 245.892 283.987 246.185 284.48C246.478 284.973 246.892 285.353 247.425 285.62C247.958 285.887 248.572 286.02 249.265 286.02C249.865 286.02 250.405 285.927 250.885 285.74C251.365 285.553 251.792 285.26 252.165 284.86L253.505 286.4C253.025 286.96 252.418 287.393 251.685 287.7C250.965 287.993 250.138 288.14 249.205 288.14Z" fill="#0E4366"/>
<path d="M235.161 172V158H237.301L243.421 168.22H242.301L248.321 158H250.461L250.481 172H248.021L248.001 161.86H248.521L243.401 170.4H242.241L237.041 161.86H237.641V172H235.161ZM260.603 172V169.84L260.463 169.38V165.6C260.463 164.867 260.243 164.3 259.803 163.9C259.363 163.487 258.696 163.28 257.803 163.28C257.203 163.28 256.609 163.373 256.023 163.56C255.449 163.747 254.963 164.007 254.563 164.34L253.583 162.52C254.156 162.08 254.836 161.753 255.623 161.54C256.423 161.313 257.249 161.2 258.103 161.2C259.649 161.2 260.843 161.573 261.683 162.32C262.536 163.053 262.963 164.193 262.963 165.74V172H260.603ZM257.243 172.14C256.443 172.14 255.743 172.007 255.143 171.74C254.543 171.46 254.076 171.08 253.743 170.6C253.423 170.107 253.263 169.553 253.263 168.94C253.263 168.34 253.403 167.8 253.683 167.32C253.976 166.84 254.449 166.46 255.103 166.18C255.756 165.9 256.623 165.76 257.703 165.76H260.803V167.42H257.883C257.029 167.42 256.456 167.56 256.163 167.84C255.869 168.107 255.723 168.44 255.723 168.84C255.723 169.293 255.903 169.653 256.263 169.92C256.623 170.187 257.123 170.32 257.763 170.32C258.376 170.32 258.923 170.18 259.403 169.9C259.896 169.62 260.249 169.207 260.463 168.66L260.883 170.16C260.643 170.787 260.209 171.273 259.583 171.62C258.969 171.967 258.189 172.14 257.243 172.14ZM272.231 161.2C273.085 161.2 273.845 161.367 274.511 161.7C275.191 162.033 275.725 162.547 276.111 163.24C276.498 163.92 276.691 164.8 276.691 165.88V172H274.191V166.2C274.191 165.253 273.965 164.547 273.511 164.08C273.071 163.613 272.451 163.38 271.651 163.38C271.065 163.38 270.545 163.5 270.091 163.74C269.638 163.98 269.285 164.34 269.031 164.82C268.791 165.287 268.671 165.88 268.671 166.6V172H266.171V161.32H268.551V164.2L268.131 163.32C268.505 162.64 269.045 162.12 269.751 161.76C270.471 161.387 271.298 161.2 272.231 161.2ZM284.383 172.14C283.476 172.14 282.676 171.973 281.983 171.64C281.289 171.293 280.749 170.773 280.363 170.08C279.976 169.373 279.783 168.487 279.783 167.42V161.32H282.283V167.08C282.283 168.04 282.496 168.76 282.923 169.24C283.363 169.707 283.983 169.94 284.783 169.94C285.369 169.94 285.876 169.82 286.303 169.58C286.743 169.34 287.083 168.98 287.323 168.5C287.576 168.02 287.703 167.427 287.703 166.72V161.32H290.203V172H287.823V169.12L288.243 170C287.883 170.693 287.356 171.227 286.663 171.6C285.969 171.96 285.209 172.14 284.383 172.14ZM293.816 172V160.72C293.816 159.6 294.143 158.707 294.796 158.04C295.463 157.36 296.409 157.02 297.636 157.02C298.076 157.02 298.489 157.067 298.876 157.16C299.276 157.253 299.609 157.4 299.876 157.6L299.196 159.48C299.009 159.333 298.796 159.227 298.556 159.16C298.316 159.08 298.069 159.04 297.816 159.04C297.296 159.04 296.903 159.187 296.636 159.48C296.369 159.76 296.236 160.187 296.236 160.76V161.96L296.316 163.08V172H293.816ZM292.056 163.4V161.4H299.176V163.4H292.056ZM307.243 172V169.84L307.103 169.38V165.6C307.103 164.867 306.883 164.3 306.443 163.9C306.003 163.487 305.337 163.28 304.443 163.28C303.843 163.28 303.25 163.373 302.663 163.56C302.09 163.747 301.603 164.007 301.203 164.34L300.223 162.52C300.797 162.08 301.477 161.753 302.263 161.54C303.063 161.313 303.89 161.2 304.743 161.2C306.29 161.2 307.483 161.573 308.323 162.32C309.177 163.053 309.603 164.193 309.603 165.74V172H307.243ZM303.883 172.14C303.083 172.14 302.383 172.007 301.783 171.74C301.183 171.46 300.717 171.08 300.383 170.6C300.063 170.107 299.903 169.553 299.903 168.94C299.903 168.34 300.043 167.8 300.323 167.32C300.617 166.84 301.09 166.46 301.743 166.18C302.397 165.9 303.263 165.76 304.343 165.76H307.443V167.42H304.523C303.67 167.42 303.097 167.56 302.803 167.84C302.51 168.107 302.363 168.44 302.363 168.84C302.363 169.293 302.543 169.653 302.903 169.92C303.263 170.187 303.763 170.32 304.403 170.32C305.017 170.32 305.563 170.18 306.043 169.9C306.537 169.62 306.89 169.207 307.103 168.66L307.523 170.16C307.283 170.787 306.85 171.273 306.223 171.62C305.61 171.967 304.83 172.14 303.883 172.14ZM317.731 172.14C316.611 172.14 315.611 171.907 314.731 171.44C313.865 170.96 313.185 170.307 312.691 169.48C312.198 168.653 311.951 167.713 311.951 166.66C311.951 165.593 312.198 164.653 312.691 163.84C313.185 163.013 313.865 162.367 314.731 161.9C315.611 161.433 316.611 161.2 317.731 161.2C318.771 161.2 319.685 161.413 320.471 161.84C321.271 162.253 321.878 162.867 322.291 163.68L320.371 164.8C320.051 164.293 319.658 163.92 319.191 163.68C318.738 163.44 318.245 163.32 317.711 163.32C317.098 163.32 316.545 163.453 316.051 163.72C315.558 163.987 315.171 164.373 314.891 164.88C314.611 165.373 314.471 165.967 314.471 166.66C314.471 167.353 314.611 167.953 314.891 168.46C315.171 168.953 315.558 169.333 316.051 169.6C316.545 169.867 317.098 170 317.711 170C318.245 170 318.738 169.88 319.191 169.64C319.658 169.4 320.051 169.027 320.371 168.52L322.291 169.64C321.878 170.44 321.271 171.06 320.471 171.5C319.685 171.927 318.771 172.14 317.731 172.14ZM328.609 172.14C327.436 172.14 326.529 171.84 325.889 171.24C325.249 170.627 324.929 169.727 324.929 168.54V158.96H327.429V168.48C327.429 168.987 327.556 169.38 327.809 169.66C328.076 169.94 328.443 170.08 328.909 170.08C329.469 170.08 329.936 169.933 330.309 169.64L331.009 171.42C330.716 171.66 330.356 171.84 329.929 171.96C329.503 172.08 329.063 172.14 328.609 172.14ZM323.169 163.4V161.4H330.289V163.4H323.169ZM337.586 172.14C336.679 172.14 335.879 171.973 335.186 171.64C334.492 171.293 333.952 170.773 333.566 170.08C333.179 169.373 332.986 168.487 332.986 167.42V161.32H335.486V167.08C335.486 168.04 335.699 168.76 336.126 169.24C336.566 169.707 337.186 169.94 337.986 169.94C338.572 169.94 339.079 169.82 339.506 169.58C339.946 169.34 340.286 168.98 340.526 168.5C340.779 168.02 340.906 167.427 340.906 166.72V161.32H343.406V172H341.026V169.12L341.446 170C341.086 170.693 340.559 171.227 339.866 171.6C339.172 171.96 338.412 172.14 337.586 172.14ZM346.679 172V161.32H349.059V164.26L348.779 163.4C349.099 162.68 349.599 162.133 350.279 161.76C350.972 161.387 351.832 161.2 352.859 161.2V163.58C352.752 163.553 352.652 163.54 352.559 163.54C352.466 163.527 352.372 163.52 352.279 163.52C351.332 163.52 350.579 163.8 350.019 164.36C349.459 164.907 349.179 165.727 349.179 166.82V172H346.679ZM354.98 172V161.32H357.48V172H354.98ZM356.24 159.56C355.773 159.56 355.387 159.413 355.08 159.12C354.787 158.827 354.64 158.473 354.64 158.06C354.64 157.633 354.787 157.28 355.08 157C355.387 156.707 355.773 156.56 356.24 156.56C356.707 156.56 357.087 156.7 357.38 156.98C357.687 157.247 357.84 157.587 357.84 158C357.84 158.44 357.693 158.813 357.4 159.12C357.107 159.413 356.72 159.56 356.24 159.56ZM366.821 161.2C367.674 161.2 368.434 161.367 369.101 161.7C369.781 162.033 370.314 162.547 370.701 163.24C371.088 163.92 371.281 164.8 371.281 165.88V172H368.781V166.2C368.781 165.253 368.554 164.547 368.101 164.08C367.661 163.613 367.041 163.38 366.241 163.38C365.654 163.38 365.134 163.5 364.681 163.74C364.228 163.98 363.874 164.34 363.621 164.82C363.381 165.287 363.261 165.88 363.261 166.6V172H360.761V161.32H363.141V164.2L362.721 163.32C363.094 162.64 363.634 162.12 364.341 161.76C365.061 161.387 365.888 161.2 366.821 161.2ZM379.312 176.02C378.325 176.02 377.359 175.887 376.412 175.62C375.479 175.367 374.712 174.993 374.112 174.5L375.232 172.62C375.699 173.007 376.285 173.313 376.992 173.54C377.712 173.78 378.439 173.9 379.172 173.9C380.345 173.9 381.205 173.627 381.752 173.08C382.299 172.547 382.572 171.74 382.572 170.66V168.76L382.772 166.34L382.692 163.92V161.32H385.072V170.38C385.072 172.313 384.579 173.733 383.592 174.64C382.605 175.56 381.179 176.02 379.312 176.02ZM378.992 171.52C377.979 171.52 377.059 171.307 376.232 170.88C375.419 170.44 374.772 169.833 374.292 169.06C373.825 168.287 373.592 167.38 373.592 166.34C373.592 165.313 373.825 164.413 374.292 163.64C374.772 162.867 375.419 162.267 376.232 161.84C377.059 161.413 377.979 161.2 378.992 161.2C379.899 161.2 380.712 161.38 381.432 161.74C382.152 162.1 382.725 162.66 383.152 163.42C383.592 164.18 383.812 165.153 383.812 166.34C383.812 167.527 383.592 168.507 383.152 169.28C382.725 170.04 382.152 170.607 381.432 170.98C380.712 171.34 379.899 171.52 378.992 171.52ZM379.372 169.4C379.999 169.4 380.559 169.273 381.052 169.02C381.545 168.753 381.925 168.393 382.192 167.94C382.472 167.473 382.612 166.94 382.612 166.34C382.612 165.74 382.472 165.213 382.192 164.76C381.925 164.293 381.545 163.94 381.052 163.7C380.559 163.447 379.999 163.32 379.372 163.32C378.745 163.32 378.179 163.447 377.672 163.7C377.179 163.94 376.792 164.293 376.512 164.76C376.245 165.213 376.112 165.74 376.112 166.34C376.112 166.94 376.245 167.473 376.512 167.94C376.792 168.393 377.179 168.753 377.672 169.02C378.179 169.273 378.745 169.4 379.372 169.4Z" fill="#0E4366"/>
<path d="M17.8606 274H20.4606V288H17.8606V274ZM10.6206 288H8.02063V274H10.6206V288ZM18.0606 282H10.4006V279.78H18.0606V282ZM28.992 288.14C27.8054 288.14 26.7654 287.907 25.872 287.44C24.992 286.96 24.3054 286.307 23.812 285.48C23.332 284.653 23.092 283.713 23.092 282.66C23.092 281.593 23.3254 280.653 23.792 279.84C24.272 279.013 24.9254 278.367 25.752 277.9C26.592 277.433 27.5454 277.2 28.612 277.2C29.652 277.2 30.5787 277.427 31.392 277.88C32.2054 278.333 32.8454 278.973 33.312 279.8C33.7787 280.627 34.012 281.6 34.012 282.72C34.012 282.827 34.0054 282.947 33.992 283.08C33.992 283.213 33.9854 283.34 33.972 283.46H25.072V281.8H32.652L31.672 282.32C31.6854 281.707 31.5587 281.167 31.292 280.7C31.0254 280.233 30.6587 279.867 30.192 279.6C29.7387 279.333 29.212 279.2 28.612 279.2C27.9987 279.2 27.4587 279.333 26.992 279.6C26.5387 279.867 26.1787 280.24 25.912 280.72C25.6587 281.187 25.532 281.74 25.532 282.38V282.78C25.532 283.42 25.6787 283.987 25.972 284.48C26.2654 284.973 26.6787 285.353 27.212 285.62C27.7454 285.887 28.3587 286.02 29.052 286.02C29.652 286.02 30.192 285.927 30.672 285.74C31.152 285.553 31.5787 285.26 31.952 284.86L33.292 286.4C32.812 286.96 32.2054 287.393 31.472 287.7C30.752 287.993 29.9254 288.14 28.992 288.14ZM42.7005 288V285.84L42.5605 285.38V281.6C42.5605 280.867 42.3405 280.3 41.9005 279.9C41.4605 279.487 40.7938 279.28 39.9005 279.28C39.3005 279.28 38.7071 279.373 38.1205 279.56C37.5471 279.747 37.0605 280.007 36.6605 280.34L35.6805 278.52C36.2538 278.08 36.9338 277.753 37.7205 277.54C38.5205 277.313 39.3471 277.2 40.2005 277.2C41.7471 277.2 42.9405 277.573 43.7805 278.32C44.6338 279.053 45.0605 280.193 45.0605 281.74V288H42.7005ZM39.3405 288.14C38.5405 288.14 37.8405 288.007 37.2405 287.74C36.6405 287.46 36.1738 287.08 35.8405 286.6C35.5205 286.107 35.3605 285.553 35.3605 284.94C35.3605 284.34 35.5005 283.8 35.7805 283.32C36.0738 282.84 36.5471 282.46 37.2005 282.18C37.8538 281.9 38.7205 281.76 39.8005 281.76H42.9005V283.42H39.9805C39.1271 283.42 38.5538 283.56 38.2605 283.84C37.9671 284.107 37.8205 284.44 37.8205 284.84C37.8205 285.293 38.0005 285.653 38.3605 285.92C38.7205 286.187 39.2205 286.32 39.8605 286.32C40.4738 286.32 41.0205 286.18 41.5005 285.9C41.9938 285.62 42.3471 285.207 42.5605 284.66L42.9805 286.16C42.7405 286.787 42.3071 287.273 41.6805 287.62C41.0671 287.967 40.2871 288.14 39.3405 288.14ZM48.2689 288V273.16H50.7689V288H48.2689ZM58.5975 288.14C57.4242 288.14 56.5175 287.84 55.8775 287.24C55.2375 286.627 54.9175 285.727 54.9175 284.54V274.96H57.4175V284.48C57.4175 284.987 57.5442 285.38 57.7975 285.66C58.0642 285.94 58.4308 286.08 58.8975 286.08C59.4575 286.08 59.9242 285.933 60.2975 285.64L60.9975 287.42C60.7042 287.66 60.3442 287.84 59.9175 287.96C59.4908 288.08 59.0508 288.14 58.5975 288.14ZM53.1575 279.4V277.4H60.2775V279.4H53.1575ZM69.1141 277.2C69.9674 277.2 70.7274 277.367 71.3941 277.7C72.0741 278.033 72.6074 278.547 72.9941 279.24C73.3807 279.92 73.5741 280.8 73.5741 281.88V288H71.0741V282.2C71.0741 281.253 70.8474 280.547 70.3941 280.08C69.9541 279.613 69.3341 279.38 68.5341 279.38C67.9474 279.38 67.4274 279.5 66.9741 279.74C66.5207 279.98 66.1674 280.34 65.9141 280.82C65.6741 281.287 65.5541 281.88 65.5541 282.6V288H63.0541V273.16H65.5541V280.2L65.0141 279.32C65.3874 278.64 65.9274 278.12 66.6341 277.76C67.3541 277.387 68.1807 277.2 69.1141 277.2ZM88.9928 288.2C87.9261 288.2 86.9328 288.027 86.0128 287.68C85.1061 287.32 84.3128 286.82 83.6328 286.18C82.9661 285.527 82.4461 284.76 82.0728 283.88C81.6995 283 81.5128 282.04 81.5128 281C81.5128 279.96 81.6995 279 82.0728 278.12C82.4461 277.24 82.9728 276.48 83.6528 275.84C84.3328 275.187 85.1261 274.687 86.0328 274.34C86.9395 273.98 87.9328 273.8 89.0128 273.8C90.1595 273.8 91.2061 274 92.1528 274.4C93.0995 274.787 93.8995 275.367 94.5528 276.14L92.8728 277.72C92.3661 277.173 91.7995 276.767 91.1728 276.5C90.5461 276.22 89.8661 276.08 89.1328 276.08C88.3995 276.08 87.7261 276.2 87.1128 276.44C86.5128 276.68 85.9861 277.02 85.5328 277.46C85.0928 277.9 84.7461 278.42 84.4928 279.02C84.2528 279.62 84.1328 280.28 84.1328 281C84.1328 281.72 84.2528 282.38 84.4928 282.98C84.7461 283.58 85.0928 284.1 85.5328 284.54C85.9861 284.98 86.5128 285.32 87.1128 285.56C87.7261 285.8 88.3995 285.92 89.1328 285.92C89.8661 285.92 90.5461 285.787 91.1728 285.52C91.7995 285.24 92.3661 284.82 92.8728 284.26L94.5528 285.86C93.8995 286.62 93.0995 287.2 92.1528 287.6C91.2061 288 90.1528 288.2 88.9928 288.2ZM103.286 288V285.84L103.146 285.38V281.6C103.146 280.867 102.926 280.3 102.486 279.9C102.046 279.487 101.38 279.28 100.486 279.28C99.8864 279.28 99.2931 279.373 98.7064 279.56C98.1331 279.747 97.6464 280.007 97.2464 280.34L96.2664 278.52C96.8397 278.08 97.5197 277.753 98.3064 277.54C99.1064 277.313 99.9331 277.2 100.786 277.2C102.333 277.2 103.526 277.573 104.366 278.32C105.22 279.053 105.646 280.193 105.646 281.74V288H103.286ZM99.9264 288.14C99.1264 288.14 98.4264 288.007 97.8264 287.74C97.2264 287.46 96.7597 287.08 96.4264 286.6C96.1064 286.107 95.9464 285.553 95.9464 284.94C95.9464 284.34 96.0864 283.8 96.3664 283.32C96.6597 282.84 97.1331 282.46 97.7864 282.18C98.4397 281.9 99.3064 281.76 100.386 281.76H103.486V283.42H100.566C99.7131 283.42 99.1397 283.56 98.8464 283.84C98.5531 284.107 98.4064 284.44 98.4064 284.84C98.4064 285.293 98.5864 285.653 98.9464 285.92C99.3064 286.187 99.8064 286.32 100.446 286.32C101.06 286.32 101.606 286.18 102.086 285.9C102.58 285.62 102.933 285.207 103.146 284.66L103.566 286.16C103.326 286.787 102.893 287.273 102.266 287.62C101.653 287.967 100.873 288.14 99.9264 288.14ZM108.855 288V277.32H111.235V280.26L110.955 279.4C111.275 278.68 111.775 278.133 112.455 277.76C113.148 277.387 114.008 277.2 115.035 277.2V279.58C114.928 279.553 114.828 279.54 114.735 279.54C114.642 279.527 114.548 279.52 114.455 279.52C113.508 279.52 112.755 279.8 112.195 280.36C111.635 280.907 111.355 281.727 111.355 282.82V288H108.855ZM122.078 288.14C120.891 288.14 119.851 287.907 118.958 287.44C118.078 286.96 117.391 286.307 116.898 285.48C116.418 284.653 116.178 283.713 116.178 282.66C116.178 281.593 116.411 280.653 116.878 279.84C117.358 279.013 118.011 278.367 118.838 277.9C119.678 277.433 120.631 277.2 121.698 277.2C122.738 277.2 123.665 277.427 124.478 277.88C125.291 278.333 125.931 278.973 126.398 279.8C126.865 280.627 127.098 281.6 127.098 282.72C127.098 282.827 127.091 282.947 127.078 283.08C127.078 283.213 127.071 283.34 127.058 283.46H118.158V281.8H125.738L124.758 282.32C124.771 281.707 124.645 281.167 124.378 280.7C124.111 280.233 123.745 279.867 123.278 279.6C122.825 279.333 122.298 279.2 121.698 279.2C121.085 279.2 120.545 279.333 120.078 279.6C119.625 279.867 119.265 280.24 118.998 280.72C118.745 281.187 118.618 281.74 118.618 282.38V282.78C118.618 283.42 118.765 283.987 119.058 284.48C119.351 284.973 119.765 285.353 120.298 285.62C120.831 285.887 121.445 286.02 122.138 286.02C122.738 286.02 123.278 285.927 123.758 285.74C124.238 285.553 124.665 285.26 125.038 284.86L126.378 286.4C125.898 286.96 125.291 287.393 124.558 287.7C123.838 287.993 123.011 288.14 122.078 288.14Z" fill="#0E4366"/>
<path d="M53.0109 407V393H58.7709C60.0109 393 61.0709 393.2 61.9509 393.6C62.8442 394 63.5309 394.573 64.0109 395.32C64.4909 396.067 64.7309 396.953 64.7309 397.98C64.7309 399.007 64.4909 399.893 64.0109 400.64C63.5309 401.387 62.8442 401.96 61.9509 402.36C61.0709 402.76 60.0109 402.96 58.7709 402.96H54.4509L55.6109 401.74V407H53.0109ZM55.6109 402.02L54.4509 400.76H58.6509C59.7975 400.76 60.6575 400.52 61.2309 400.04C61.8175 399.547 62.1109 398.86 62.1109 397.98C62.1109 397.087 61.8175 396.4 61.2309 395.92C60.6575 395.44 59.7975 395.2 58.6509 395.2H54.4509L55.6109 393.92V402.02ZM71.8026 407.14C70.8959 407.14 70.0959 406.973 69.4026 406.64C68.7092 406.293 68.1692 405.773 67.7826 405.08C67.3959 404.373 67.2026 403.487 67.2026 402.42V396.32H69.7026V402.08C69.7026 403.04 69.9159 403.76 70.3426 404.24C70.7826 404.707 71.4026 404.94 72.2026 404.94C72.7892 404.94 73.2959 404.82 73.7226 404.58C74.1626 404.34 74.5026 403.98 74.7426 403.5C74.9959 403.02 75.1226 402.427 75.1226 401.72V396.32H77.6226V407H75.2426V404.12L75.6626 405C75.3026 405.693 74.7759 406.227 74.0826 406.6C73.3892 406.96 72.6292 407.14 71.8026 407.14ZM86.8159 407.14C85.9092 407.14 85.1025 406.94 84.3959 406.54C83.6892 406.14 83.1292 405.54 82.7159 404.74C82.3159 403.927 82.1159 402.9 82.1159 401.66C82.1159 400.407 82.3225 399.38 82.7359 398.58C83.1625 397.78 83.7292 397.187 84.4359 396.8C85.1559 396.4 85.9492 396.2 86.8159 396.2C87.8692 396.2 88.7959 396.427 89.5959 396.88C90.4092 397.333 91.0492 397.967 91.5159 398.78C91.9959 399.593 92.2359 400.553 92.2359 401.66C92.2359 402.767 91.9959 403.727 91.5159 404.54C91.0492 405.353 90.4092 405.993 89.5959 406.46C88.7959 406.913 87.8692 407.14 86.8159 407.14ZM80.8959 407V392.16H83.3959V398.8L83.1959 401.64L83.2759 404.48V407H80.8959ZM86.5359 405C87.1359 405 87.6692 404.867 88.1359 404.6C88.6159 404.333 88.9959 403.947 89.2759 403.44C89.5559 402.933 89.6959 402.34 89.6959 401.66C89.6959 400.967 89.5559 400.373 89.2759 399.88C88.9959 399.373 88.6159 398.987 88.1359 398.72C87.6692 398.453 87.1359 398.32 86.5359 398.32C85.9359 398.32 85.3959 398.453 84.9159 398.72C84.4359 398.987 84.0559 399.373 83.7759 399.88C83.4959 400.373 83.3559 400.967 83.3559 401.66C83.3559 402.34 83.4959 402.933 83.7759 403.44C84.0559 403.947 84.4359 404.333 84.9159 404.6C85.3959 404.867 85.9359 405 86.5359 405ZM94.6068 407V392.16H97.1068V407H94.6068ZM100.388 407V396.32H102.888V407H100.388ZM101.648 394.56C101.181 394.56 100.795 394.413 100.488 394.12C100.195 393.827 100.048 393.473 100.048 393.06C100.048 392.633 100.195 392.28 100.488 392C100.795 391.707 101.181 391.56 101.648 391.56C102.115 391.56 102.495 391.7 102.788 391.98C103.095 392.247 103.248 392.587 103.248 393C103.248 393.44 103.101 393.813 102.808 394.12C102.515 394.413 102.128 394.56 101.648 394.56ZM111.069 407.14C109.949 407.14 108.949 406.907 108.069 406.44C107.203 405.96 106.523 405.307 106.029 404.48C105.536 403.653 105.289 402.713 105.289 401.66C105.289 400.593 105.536 399.653 106.029 398.84C106.523 398.013 107.203 397.367 108.069 396.9C108.949 396.433 109.949 396.2 111.069 396.2C112.109 396.2 113.023 396.413 113.809 396.84C114.609 397.253 115.216 397.867 115.629 398.68L113.709 399.8C113.389 399.293 112.996 398.92 112.529 398.68C112.076 398.44 111.583 398.32 111.049 398.32C110.436 398.32 109.883 398.453 109.389 398.72C108.896 398.987 108.509 399.373 108.229 399.88C107.949 400.373 107.809 400.967 107.809 401.66C107.809 402.353 107.949 402.953 108.229 403.46C108.509 403.953 108.896 404.333 109.389 404.6C109.883 404.867 110.436 405 111.049 405C111.583 405 112.076 404.88 112.529 404.64C112.996 404.4 113.389 404.027 113.709 403.52L115.629 404.64C115.216 405.44 114.609 406.06 113.809 406.5C113.023 406.927 112.109 407.14 111.069 407.14ZM127.898 407.2C126.804 407.2 125.758 407.047 124.758 406.74C123.758 406.42 122.964 406.013 122.378 405.52L123.278 403.5C123.838 403.94 124.531 404.307 125.358 404.6C126.184 404.893 127.031 405.04 127.898 405.04C128.631 405.04 129.224 404.96 129.678 404.8C130.131 404.64 130.464 404.427 130.678 404.16C130.891 403.88 130.998 403.567 130.998 403.22C130.998 402.793 130.844 402.453 130.538 402.2C130.231 401.933 129.831 401.727 129.338 401.58C128.858 401.42 128.318 401.273 127.718 401.14C127.131 401.007 126.538 400.853 125.938 400.68C125.351 400.493 124.811 400.26 124.318 399.98C123.838 399.687 123.444 399.3 123.138 398.82C122.831 398.34 122.678 397.727 122.678 396.98C122.678 396.22 122.878 395.527 123.278 394.9C123.691 394.26 124.311 393.753 125.138 393.38C125.978 392.993 127.038 392.8 128.318 392.8C129.158 392.8 129.991 392.907 130.818 393.12C131.644 393.333 132.364 393.64 132.978 394.04L132.158 396.06C131.531 395.687 130.884 395.413 130.218 395.24C129.551 395.053 128.911 394.96 128.298 394.96C127.578 394.96 126.991 395.047 126.538 395.22C126.098 395.393 125.771 395.62 125.558 395.9C125.358 396.18 125.258 396.5 125.258 396.86C125.258 397.287 125.404 397.633 125.698 397.9C126.004 398.153 126.398 398.353 126.878 398.5C127.371 398.647 127.918 398.793 128.518 398.94C129.118 399.073 129.711 399.227 130.298 399.4C130.898 399.573 131.438 399.8 131.918 400.08C132.411 400.36 132.804 400.74 133.098 401.22C133.404 401.7 133.558 402.307 133.558 403.04C133.558 403.787 133.351 404.48 132.938 405.12C132.538 405.747 131.918 406.253 131.078 406.64C130.238 407.013 129.178 407.2 127.898 407.2ZM140.916 407.14C139.729 407.14 138.689 406.907 137.796 406.44C136.916 405.96 136.229 405.307 135.736 404.48C135.256 403.653 135.016 402.713 135.016 401.66C135.016 400.593 135.249 399.653 135.716 398.84C136.196 398.013 136.849 397.367 137.676 396.9C138.516 396.433 139.469 396.2 140.536 396.2C141.576 396.2 142.503 396.427 143.316 396.88C144.129 397.333 144.769 397.973 145.236 398.8C145.703 399.627 145.936 400.6 145.936 401.72C145.936 401.827 145.929 401.947 145.916 402.08C145.916 402.213 145.909 402.34 145.896 402.46H136.996V400.8H144.576L143.596 401.32C143.609 400.707 143.483 400.167 143.216 399.7C142.949 399.233 142.583 398.867 142.116 398.6C141.663 398.333 141.136 398.2 140.536 398.2C139.923 398.2 139.383 398.333 138.916 398.6C138.463 398.867 138.103 399.24 137.836 399.72C137.583 400.187 137.456 400.74 137.456 401.38V401.78C137.456 402.42 137.603 402.987 137.896 403.48C138.189 403.973 138.603 404.353 139.136 404.62C139.669 404.887 140.283 405.02 140.976 405.02C141.576 405.02 142.116 404.927 142.596 404.74C143.076 404.553 143.503 404.26 143.876 403.86L145.216 405.4C144.736 405.96 144.129 406.393 143.396 406.7C142.676 406.993 141.849 407.14 140.916 407.14ZM153.237 407.14C152.117 407.14 151.117 406.907 150.237 406.44C149.371 405.96 148.691 405.307 148.197 404.48C147.704 403.653 147.457 402.713 147.457 401.66C147.457 400.593 147.704 399.653 148.197 398.84C148.691 398.013 149.371 397.367 150.237 396.9C151.117 396.433 152.117 396.2 153.237 396.2C154.277 396.2 155.191 396.413 155.977 396.84C156.777 397.253 157.384 397.867 157.797 398.68L155.877 399.8C155.557 399.293 155.164 398.92 154.697 398.68C154.244 398.44 153.751 398.32 153.217 398.32C152.604 398.32 152.051 398.453 151.557 398.72C151.064 398.987 150.677 399.373 150.397 399.88C150.117 400.373 149.977 400.967 149.977 401.66C149.977 402.353 150.117 402.953 150.397 403.46C150.677 403.953 151.064 404.333 151.557 404.6C152.051 404.867 152.604 405 153.217 405C153.751 405 154.244 404.88 154.697 404.64C155.164 404.4 155.557 404.027 155.877 403.52L157.797 404.64C157.384 405.44 156.777 406.06 155.977 406.5C155.191 406.927 154.277 407.14 153.237 407.14ZM164.115 407.14C162.942 407.14 162.035 406.84 161.395 406.24C160.755 405.627 160.435 404.727 160.435 403.54V393.96H162.935V403.48C162.935 403.987 163.062 404.38 163.315 404.66C163.582 404.94 163.948 405.08 164.415 405.08C164.975 405.08 165.442 404.933 165.815 404.64L166.515 406.42C166.222 406.66 165.862 406.84 165.435 406.96C165.008 407.08 164.568 407.14 164.115 407.14ZM158.675 398.4V396.4H165.795V398.4H158.675ZM173.02 407.14C171.927 407.14 170.953 406.907 170.1 406.44C169.247 405.96 168.573 405.307 168.08 404.48C167.587 403.653 167.34 402.713 167.34 401.66C167.34 400.593 167.587 399.653 168.08 398.84C168.573 398.013 169.247 397.367 170.1 396.9C170.953 396.433 171.927 396.2 173.02 396.2C174.127 396.2 175.107 396.433 175.96 396.9C176.827 397.367 177.5 398.007 177.98 398.82C178.473 399.633 178.72 400.58 178.72 401.66C178.72 402.713 178.473 403.653 177.98 404.48C177.5 405.307 176.827 405.96 175.96 406.44C175.107 406.907 174.127 407.14 173.02 407.14ZM173.02 405C173.633 405 174.18 404.867 174.66 404.6C175.14 404.333 175.513 403.947 175.78 403.44C176.06 402.933 176.2 402.34 176.2 401.66C176.2 400.967 176.06 400.373 175.78 399.88C175.513 399.373 175.14 398.987 174.66 398.72C174.18 398.453 173.64 398.32 173.04 398.32C172.427 398.32 171.88 398.453 171.4 398.72C170.933 398.987 170.56 399.373 170.28 399.88C170 400.373 169.86 400.967 169.86 401.66C169.86 402.34 170 402.933 170.28 403.44C170.56 403.947 170.933 404.333 171.4 404.6C171.88 404.867 172.42 405 173.02 405ZM181.111 407V396.32H183.491V399.26L183.211 398.4C183.531 397.68 184.031 397.133 184.711 396.76C185.404 396.387 186.264 396.2 187.291 396.2V398.58C187.184 398.553 187.084 398.54 186.991 398.54C186.897 398.527 186.804 398.52 186.711 398.52C185.764 398.52 185.011 398.8 184.451 399.36C183.891 399.907 183.611 400.727 183.611 401.82V407H181.111Z" fill="#0E4366"/>
<path d="M242.214 407V395.2H237.574V393H249.454V395.2H244.814V407H242.214ZM255.092 407.14C253.905 407.14 252.865 406.907 251.972 406.44C251.092 405.96 250.405 405.307 249.912 404.48C249.432 403.653 249.192 402.713 249.192 401.66C249.192 400.593 249.425 399.653 249.892 398.84C250.372 398.013 251.025 397.367 251.852 396.9C252.692 396.433 253.645 396.2 254.712 396.2C255.752 396.2 256.678 396.427 257.492 396.88C258.305 397.333 258.945 397.973 259.412 398.8C259.878 399.627 260.112 400.6 260.112 401.72C260.112 401.827 260.105 401.947 260.092 402.08C260.092 402.213 260.085 402.34 260.072 402.46H251.172V400.8H258.752L257.772 401.32C257.785 400.707 257.658 400.167 257.392 399.7C257.125 399.233 256.758 398.867 256.292 398.6C255.838 398.333 255.312 398.2 254.712 398.2C254.098 398.2 253.558 398.333 253.092 398.6C252.638 398.867 252.278 399.24 252.012 399.72C251.758 400.187 251.632 400.74 251.632 401.38V401.78C251.632 402.42 251.778 402.987 252.072 403.48C252.365 403.973 252.778 404.353 253.312 404.62C253.845 404.887 254.458 405.02 255.152 405.02C255.752 405.02 256.292 404.927 256.772 404.74C257.252 404.553 257.678 404.26 258.052 403.86L259.392 405.4C258.912 405.96 258.305 406.393 257.572 406.7C256.852 406.993 256.025 407.14 255.092 407.14ZM262.513 407V392.16H265.013V407H262.513ZM273.314 407.14C272.128 407.14 271.088 406.907 270.194 406.44C269.314 405.96 268.628 405.307 268.134 404.48C267.654 403.653 267.414 402.713 267.414 401.66C267.414 400.593 267.648 399.653 268.114 398.84C268.594 398.013 269.248 397.367 270.074 396.9C270.914 396.433 271.868 396.2 272.934 396.2C273.974 396.2 274.901 396.427 275.714 396.88C276.528 397.333 277.168 397.973 277.634 398.8C278.101 399.627 278.334 400.6 278.334 401.72C278.334 401.827 278.328 401.947 278.314 402.08C278.314 402.213 278.308 402.34 278.294 402.46H269.394V400.8H276.974L275.994 401.32C276.008 400.707 275.881 400.167 275.614 399.7C275.348 399.233 274.981 398.867 274.514 398.6C274.061 398.333 273.534 398.2 272.934 398.2C272.321 398.2 271.781 398.333 271.314 398.6C270.861 398.867 270.501 399.24 270.234 399.72C269.981 400.187 269.854 400.74 269.854 401.38V401.78C269.854 402.42 270.001 402.987 270.294 403.48C270.588 403.973 271.001 404.353 271.534 404.62C272.068 404.887 272.681 405.02 273.374 405.02C273.974 405.02 274.514 404.927 274.994 404.74C275.474 404.553 275.901 404.26 276.274 403.86L277.614 405.4C277.134 405.96 276.528 406.393 275.794 406.7C275.074 406.993 274.248 407.14 273.314 407.14ZM285.636 407.14C284.516 407.14 283.516 406.907 282.636 406.44C281.769 405.96 281.089 405.307 280.596 404.48C280.102 403.653 279.856 402.713 279.856 401.66C279.856 400.593 280.102 399.653 280.596 398.84C281.089 398.013 281.769 397.367 282.636 396.9C283.516 396.433 284.516 396.2 285.636 396.2C286.676 396.2 287.589 396.413 288.376 396.84C289.176 397.253 289.782 397.867 290.196 398.68L288.276 399.8C287.956 399.293 287.562 398.92 287.096 398.68C286.642 398.44 286.149 398.32 285.616 398.32C285.002 398.32 284.449 398.453 283.956 398.72C283.462 398.987 283.076 399.373 282.796 399.88C282.516 400.373 282.376 400.967 282.376 401.66C282.376 402.353 282.516 402.953 282.796 403.46C283.076 403.953 283.462 404.333 283.956 404.6C284.449 404.867 285.002 405 285.616 405C286.149 405 286.642 404.88 287.096 404.64C287.562 404.4 287.956 404.027 288.276 403.52L290.196 404.64C289.782 405.44 289.176 406.06 288.376 406.5C287.589 406.927 286.676 407.14 285.636 407.14ZM297.001 407.14C295.907 407.14 294.934 406.907 294.081 406.44C293.227 405.96 292.554 405.307 292.061 404.48C291.567 403.653 291.321 402.713 291.321 401.66C291.321 400.593 291.567 399.653 292.061 398.84C292.554 398.013 293.227 397.367 294.081 396.9C294.934 396.433 295.907 396.2 297.001 396.2C298.107 396.2 299.087 396.433 299.941 396.9C300.807 397.367 301.481 398.007 301.961 398.82C302.454 399.633 302.701 400.58 302.701 401.66C302.701 402.713 302.454 403.653 301.961 404.48C301.481 405.307 300.807 405.96 299.941 406.44C299.087 406.907 298.107 407.14 297.001 407.14ZM297.001 405C297.614 405 298.161 404.867 298.641 404.6C299.121 404.333 299.494 403.947 299.761 403.44C300.041 402.933 300.181 402.34 300.181 401.66C300.181 400.967 300.041 400.373 299.761 399.88C299.494 399.373 299.121 398.987 298.641 398.72C298.161 398.453 297.621 398.32 297.021 398.32C296.407 398.32 295.861 398.453 295.381 398.72C294.914 398.987 294.541 399.373 294.261 399.88C293.981 400.373 293.841 400.967 293.841 401.66C293.841 402.34 293.981 402.933 294.261 403.44C294.541 403.947 294.914 404.333 295.381 404.6C295.861 404.867 296.401 405 297.001 405ZM318.571 396.2C319.425 396.2 320.178 396.367 320.831 396.7C321.498 397.033 322.018 397.547 322.391 398.24C322.765 398.92 322.951 399.8 322.951 400.88V407H320.451V401.2C320.451 400.253 320.245 399.547 319.831 399.08C319.418 398.613 318.825 398.38 318.051 398.38C317.505 398.38 317.018 398.5 316.591 398.74C316.178 398.98 315.851 399.333 315.611 399.8C315.385 400.267 315.271 400.86 315.271 401.58V407H312.771V401.2C312.771 400.253 312.565 399.547 312.151 399.08C311.738 398.613 311.145 398.38 310.371 398.38C309.825 398.38 309.338 398.5 308.911 398.74C308.498 398.98 308.171 399.333 307.931 399.8C307.705 400.267 307.591 400.86 307.591 401.58V407H305.091V396.32H307.471V399.16L307.051 398.32C307.411 397.627 307.931 397.1 308.611 396.74C309.305 396.38 310.091 396.2 310.971 396.2C311.971 396.2 312.838 396.447 313.571 396.94C314.318 397.433 314.811 398.18 315.051 399.18L314.071 398.84C314.418 398.04 314.991 397.4 315.791 396.92C316.591 396.44 317.518 396.2 318.571 396.2Z" fill="#0E4366"/>
<path d="M155.612 514.82H162.572V516.96H155.612V514.82ZM155.812 520.82H163.712V523H153.212V509H163.432V511.18H155.812V520.82ZM171.173 523.14C170.053 523.14 169.053 522.907 168.173 522.44C167.306 521.96 166.626 521.307 166.133 520.48C165.639 519.653 165.393 518.713 165.393 517.66C165.393 516.593 165.639 515.653 166.133 514.84C166.626 514.013 167.306 513.367 168.173 512.9C169.053 512.433 170.053 512.2 171.173 512.2C172.213 512.2 173.126 512.413 173.913 512.84C174.713 513.253 175.319 513.867 175.733 514.68L173.813 515.8C173.493 515.293 173.099 514.92 172.633 514.68C172.179 514.44 171.686 514.32 171.153 514.32C170.539 514.32 169.986 514.453 169.493 514.72C168.999 514.987 168.613 515.373 168.333 515.88C168.053 516.373 167.913 516.967 167.913 517.66C167.913 518.353 168.053 518.953 168.333 519.46C168.613 519.953 168.999 520.333 169.493 520.6C169.986 520.867 170.539 521 171.153 521C171.686 521 172.179 520.88 172.633 520.64C173.099 520.4 173.493 520.027 173.813 519.52L175.733 520.64C175.319 521.44 174.713 522.06 173.913 522.5C173.126 522.927 172.213 523.14 171.173 523.14ZM182.538 523.14C181.444 523.14 180.471 522.907 179.618 522.44C178.764 521.96 178.091 521.307 177.598 520.48C177.104 519.653 176.858 518.713 176.858 517.66C176.858 516.593 177.104 515.653 177.598 514.84C178.091 514.013 178.764 513.367 179.618 512.9C180.471 512.433 181.444 512.2 182.538 512.2C183.644 512.2 184.624 512.433 185.478 512.9C186.344 513.367 187.018 514.007 187.498 514.82C187.991 515.633 188.238 516.58 188.238 517.66C188.238 518.713 187.991 519.653 187.498 520.48C187.018 521.307 186.344 521.96 185.478 522.44C184.624 522.907 183.644 523.14 182.538 523.14ZM182.538 521C183.151 521 183.698 520.867 184.178 520.6C184.658 520.333 185.031 519.947 185.298 519.44C185.578 518.933 185.718 518.34 185.718 517.66C185.718 516.967 185.578 516.373 185.298 515.88C185.031 515.373 184.658 514.987 184.178 514.72C183.698 514.453 183.158 514.32 182.558 514.32C181.944 514.32 181.398 514.453 180.918 514.72C180.451 514.987 180.078 515.373 179.798 515.88C179.518 516.373 179.378 516.967 179.378 517.66C179.378 518.34 179.518 518.933 179.798 519.44C180.078 519.947 180.451 520.333 180.918 520.6C181.398 520.867 181.938 521 182.538 521ZM204.108 512.2C204.962 512.2 205.715 512.367 206.368 512.7C207.035 513.033 207.555 513.547 207.928 514.24C208.302 514.92 208.488 515.8 208.488 516.88V523H205.988V517.2C205.988 516.253 205.782 515.547 205.368 515.08C204.955 514.613 204.362 514.38 203.588 514.38C203.042 514.38 202.555 514.5 202.128 514.74C201.715 514.98 201.388 515.333 201.148 515.8C200.922 516.267 200.808 516.86 200.808 517.58V523H198.308V517.2C198.308 516.253 198.102 515.547 197.688 515.08C197.275 514.613 196.682 514.38 195.908 514.38C195.362 514.38 194.875 514.5 194.448 514.74C194.035 514.98 193.708 515.333 193.468 515.8C193.242 516.267 193.128 516.86 193.128 517.58V523H190.628V512.32H193.008V515.16L192.588 514.32C192.948 513.627 193.468 513.1 194.148 512.74C194.842 512.38 195.628 512.2 196.508 512.2C197.508 512.2 198.375 512.447 199.108 512.94C199.855 513.433 200.348 514.18 200.588 515.18L199.608 514.84C199.955 514.04 200.528 513.4 201.328 512.92C202.128 512.44 203.055 512.2 204.108 512.2ZM225.163 512.2C226.016 512.2 226.77 512.367 227.423 512.7C228.09 513.033 228.61 513.547 228.983 514.24C229.356 514.92 229.543 515.8 229.543 516.88V523H227.043V517.2C227.043 516.253 226.836 515.547 226.423 515.08C226.01 514.613 225.416 514.38 224.643 514.38C224.096 514.38 223.61 514.5 223.183 514.74C222.77 514.98 222.443 515.333 222.203 515.8C221.976 516.267 221.863 516.86 221.863 517.58V523H219.363V517.2C219.363 516.253 219.156 515.547 218.743 515.08C218.33 514.613 217.736 514.38 216.963 514.38C216.416 514.38 215.93 514.5 215.503 514.74C215.09 514.98 214.763 515.333 214.523 515.8C214.296 516.267 214.183 516.86 214.183 517.58V523H211.683V512.32H214.063V515.16L213.643 514.32C214.003 513.627 214.523 513.1 215.203 512.74C215.896 512.38 216.683 512.2 217.563 512.2C218.563 512.2 219.43 512.447 220.163 512.94C220.91 513.433 221.403 514.18 221.643 515.18L220.663 514.84C221.01 514.04 221.583 513.4 222.383 512.92C223.183 512.44 224.11 512.2 225.163 512.2ZM237.777 523.14C236.591 523.14 235.551 522.907 234.657 522.44C233.777 521.96 233.091 521.307 232.597 520.48C232.117 519.653 231.877 518.713 231.877 517.66C231.877 516.593 232.111 515.653 232.577 514.84C233.057 514.013 233.711 513.367 234.537 512.9C235.377 512.433 236.331 512.2 237.397 512.2C238.437 512.2 239.364 512.427 240.177 512.88C240.991 513.333 241.631 513.973 242.097 514.8C242.564 515.627 242.797 516.6 242.797 517.72C242.797 517.827 242.791 517.947 242.777 518.08C242.777 518.213 242.771 518.34 242.757 518.46H233.857V516.8H241.437L240.457 517.32C240.471 516.707 240.344 516.167 240.077 515.7C239.811 515.233 239.444 514.867 238.977 514.6C238.524 514.333 237.997 514.2 237.397 514.2C236.784 514.2 236.244 514.333 235.777 514.6C235.324 514.867 234.964 515.24 234.697 515.72C234.444 516.187 234.317 516.74 234.317 517.38V517.78C234.317 518.42 234.464 518.987 234.757 519.48C235.051 519.973 235.464 520.353 235.997 520.62C236.531 520.887 237.144 521.02 237.837 521.02C238.437 521.02 238.977 520.927 239.457 520.74C239.937 520.553 240.364 520.26 240.737 519.86L242.077 521.4C241.597 521.96 240.991 522.393 240.257 522.7C239.537 522.993 238.711 523.14 237.777 523.14ZM245.199 523V512.32H247.579V515.26L247.299 514.4C247.619 513.68 248.119 513.133 248.799 512.76C249.492 512.387 250.352 512.2 251.379 512.2V514.58C251.272 514.553 251.172 514.54 251.079 514.54C250.985 514.527 250.892 514.52 250.799 514.52C249.852 514.52 249.099 514.8 248.539 515.36C247.979 515.907 247.699 516.727 247.699 517.82V523H245.199ZM258.302 523.14C257.182 523.14 256.182 522.907 255.302 522.44C254.435 521.96 253.755 521.307 253.262 520.48C252.768 519.653 252.522 518.713 252.522 517.66C252.522 516.593 252.768 515.653 253.262 514.84C253.755 514.013 254.435 513.367 255.302 512.9C256.182 512.433 257.182 512.2 258.302 512.2C259.342 512.2 260.255 512.413 261.042 512.84C261.842 513.253 262.448 513.867 262.862 514.68L260.942 515.8C260.622 515.293 260.228 514.92 259.762 514.68C259.308 514.44 258.815 514.32 258.282 514.32C257.668 514.32 257.115 514.453 256.622 514.72C256.128 514.987 255.742 515.373 255.462 515.88C255.182 516.373 255.042 516.967 255.042 517.66C255.042 518.353 255.182 518.953 255.462 519.46C255.742 519.953 256.128 520.333 256.622 520.6C257.115 520.867 257.668 521 258.282 521C258.815 521 259.308 520.88 259.762 520.64C260.228 520.4 260.622 520.027 260.942 519.52L262.862 520.64C262.448 521.44 261.842 522.06 261.042 522.5C260.255 522.927 259.342 523.14 258.302 523.14ZM269.887 523.14C268.7 523.14 267.66 522.907 266.767 522.44C265.887 521.96 265.2 521.307 264.707 520.48C264.227 519.653 263.987 518.713 263.987 517.66C263.987 516.593 264.22 515.653 264.687 514.84C265.167 514.013 265.82 513.367 266.647 512.9C267.487 512.433 268.44 512.2 269.507 512.2C270.547 512.2 271.473 512.427 272.287 512.88C273.1 513.333 273.74 513.973 274.207 514.8C274.673 515.627 274.907 516.6 274.907 517.72C274.907 517.827 274.9 517.947 274.887 518.08C274.887 518.213 274.88 518.34 274.867 518.46H265.967V516.8H273.547L272.567 517.32C272.58 516.707 272.453 516.167 272.187 515.7C271.92 515.233 271.553 514.867 271.087 514.6C270.633 514.333 270.107 514.2 269.507 514.2C268.893 514.2 268.353 514.333 267.887 514.6C267.433 514.867 267.073 515.24 266.807 515.72C266.553 516.187 266.427 516.74 266.427 517.38V517.78C266.427 518.42 266.573 518.987 266.867 519.48C267.16 519.973 267.573 520.353 268.107 520.62C268.64 520.887 269.253 521.02 269.947 521.02C270.547 521.02 271.087 520.927 271.567 520.74C272.047 520.553 272.473 520.26 272.847 519.86L274.187 521.4C273.707 521.96 273.1 522.393 272.367 522.7C271.647 522.993 270.82 523.14 269.887 523.14Z" fill="#0E4366"/>
<defs>
<filter id="filter0_d_52_2" x="0.5" y="0.5" width="427" height="605" filterUnits="userSpaceOnUse" color-interpolation-filters="sRGB">
<feFlood flood-opacity="0" result="BackgroundImageFix"/>
<feColorMatrix in="SourceAlpha" type="matrix" values="0 0 0 0 0 0 0 0 0 0 0 0 0 0 0 0 0 0 127 0" result="hardAlpha"/>
<feOffset dy="3"/>
<feGaussianBlur stdDeviation="3.75"/>
<feComposite in2="hardAlpha" operator="out"/>
<feColorMatrix type="matrix" values="0 0 0 0 0 0 0 0 0 0 0 0 0 0 0 0 0 0 0.7 0"/>
<feBlend mode="normal" in2="BackgroundImageFix" result="effect1_dropShadow_52_2"/>
<feBlend mode="normal" in="SourceGraphic" in2="effect1_dropShadow_52_2" result="shape"/>
</filter>
</defs>
</svg>
