<svg xmlns="http://www.w3.org/2000/svg" width="71" height="71" viewBox="0 0 71 71" fill="none">
  <g clip-path="url(#clip0_1121_1217)">
    <g opacity="0.95">
      <path d="M51.2958 25.6528C54.877 30.655 56.4406 36.816 55.6762 42.9133C54.9118 49.0107 51.8753 54.599 47.1692 58.5695C42.463 62.5401 36.4312 64.6027 30.2702 64.3482C24.1092 64.0937 18.2692 61.5407 13.909 57.1957C9.54881 52.8507 6.9869 47.0311 6.73152 40.8916C6.47614 34.7521 8.54595 28.7412 12.5304 24.0515C16.5148 19.3618 22.1226 16.3359 28.2413 15.5742C34.36 14.8124 40.5425 16.3705 45.5623 19.9393L50.5122 14.9876C44.1911 10.1399 36.2556 7.871 28.3169 8.64163C20.3782 9.41226 13.0313 13.1646 7.76788 19.1369C2.50447 25.1091 -0.280979 32.8536 -0.0228433 40.7979C0.235293 48.7422 3.51766 56.2909 9.15775 61.9113C14.7978 67.5317 22.3729 70.8027 30.345 71.0599C38.3172 71.3171 46.0888 68.5415 52.0819 63.2964C58.0751 58.0513 61.8406 50.73 62.6139 42.819C63.3872 34.908 61.1104 27.0001 56.2457 20.7011L51.2958 25.6528Z" fill="#3E3E3E"/>
      <path d="M47.5688 29.2905L43.9185 32.9471C45.5669 35.9635 46.0692 39.4709 45.3337 42.8264C44.5981 46.182 42.6738 49.1611 39.9134 51.2178C37.153 53.2745 33.7413 54.2712 30.3034 54.0252C26.8656 53.7792 23.6318 52.3069 21.1946 49.8782C18.7574 47.4495 17.28 44.2271 17.0331 40.8012C16.7863 37.3753 17.7864 33.9755 19.8504 31.2247C21.9143 28.4739 24.9038 26.5564 28.2711 25.8234C31.6384 25.0904 35.158 25.591 38.185 27.2336L41.8544 23.5769C37.8402 20.9879 33.0065 19.9707 28.2845 20.7215C23.5625 21.4723 19.2864 23.938 16.2801 27.6434C13.2737 31.3489 11.7497 36.0319 12.0018 40.7903C12.2539 45.5487 14.2641 50.0457 17.6453 53.4151C21.0265 56.7845 25.5393 58.7878 30.3144 59.039C35.0895 59.2902 39.7889 57.7716 43.5072 54.7757C47.2256 51.7798 49.6999 47.5186 50.4534 42.8131C51.2068 38.1076 50.1861 33.2907 47.588 29.2905H47.5688Z" fill="#3E3E3E"/>
      <path d="M31.3432 47.9745C35.903 47.9745 39.5994 44.2909 39.5994 39.747C39.5994 35.2031 35.903 31.5195 31.3432 31.5195C26.7834 31.5195 23.0869 35.2031 23.0869 39.747C23.0869 44.2909 26.7834 47.9745 31.3432 47.9745Z" fill="#3E3E3E"/>
      <path d="M71.0192 7.23712L65.4959 5.5802L64.1198 0L54.0097 9.54158L55.0991 14.0553L30.3303 38.7377L32.3753 40.7755L57.469 15.7693L60.8899 16.7977L71.0192 7.23712Z" fill="#3E3E3E"/>
    </g>
  </g>
  <defs>
    <clipPath id="clip0_1121_1217">
      <rect width="71" height="71" fill="white"/>
    </clipPath>
  </defs>
</svg>