<svg xmlns="http://www.w3.org/2000/svg" width="53" height="45" viewBox="0 0 53 45" fill="none">
  <path d="M52.1485 28.3144L43.633 5.15936C42.996 3.43106 41.7838 1.98558 40.2079 1.07513C38.632 0.164683 36.7925 -0.152934 35.0103 0.177694C33.2281 0.508322 31.6163 1.46621 30.4563 2.88422C29.2963 4.30223 28.6616 6.09035 28.6629 7.93659V18.0561H24.2349V7.91923C24.2479 6.06873 23.62 4.27286 22.4619 2.84764C21.3038 1.42242 19.6895 0.459176 17.9033 0.127411C16.117 -0.204354 14.2731 0.116621 12.6961 1.03385C11.1191 1.95109 9.91012 3.40581 9.28179 5.14201L0.766352 28.2971C0.145387 29.993 -0.102995 31.8071 0.0387151 33.6115C0.180425 35.4159 0.708758 37.1666 1.5865 38.7403C2.46425 40.3139 3.67004 41.6722 5.11882 42.7193C6.5676 43.7664 8.22408 44.4768 9.97154 44.8005C11.719 45.1242 13.5149 45.0533 15.2325 44.5927C16.9501 44.1322 18.5478 43.2932 19.9127 42.135C21.2776 40.9768 22.3766 39.5275 23.1323 37.8893C23.8879 36.2511 24.2817 34.464 24.286 32.6538V31.5256H28.714V32.6538C28.7183 34.464 29.1121 36.2511 29.8677 37.8893C30.6234 39.5275 31.7224 40.9768 33.0873 42.135C34.4523 43.2932 36.0499 44.1322 37.7675 44.5927C39.4851 45.0533 41.281 45.1242 43.0284 44.8005C44.7759 44.4768 46.4324 43.7664 47.8812 42.7193C49.33 41.6722 50.5357 40.3139 51.4134 38.7403C52.2912 37.1666 52.8196 35.4159 52.9613 33.6115C53.103 31.8071 52.8546 29.993 52.2336 28.2971L52.1485 28.3144ZM12.0578 40.4647C10.5286 40.4647 9.03364 40.0026 7.76212 39.1367C6.4906 38.2708 5.49957 37.04 4.91435 35.6001C4.32914 34.1601 4.176 32.5756 4.47434 31.047C4.77268 29.5184 5.50912 28.1142 6.59047 27.0121C7.67181 25.91 9.04952 25.1595 10.5494 24.8554C12.0492 24.5514 13.6039 24.7074 15.0167 25.3039C16.4296 25.9003 17.6372 26.9104 18.4868 28.2063C19.3364 29.5022 19.7898 31.0258 19.7898 32.5844C19.7988 33.6274 19.605 34.6618 19.2197 35.628C18.8343 36.5943 18.2649 37.4731 17.5444 38.2139C16.824 38.9546 15.9666 39.5426 15.022 39.9438C14.0774 40.345 13.0642 40.5516 12.0408 40.5515L12.0578 40.4647ZM40.7719 40.4647C39.2426 40.4647 37.7477 40.0026 36.4762 39.1367C35.2047 38.2708 34.2136 37.04 33.6284 35.6001C33.0432 34.1601 32.8901 32.5756 33.1884 31.047C33.4868 29.5184 34.2232 28.1142 35.3045 27.0121C36.3858 25.91 37.7635 25.1595 39.2634 24.8554C40.7633 24.5514 42.318 24.7074 43.7308 25.3039C45.1436 25.9003 46.3512 26.9104 47.2008 28.2063C48.0504 29.5022 48.5039 31.0258 48.5039 32.5844C48.5129 33.6259 48.3196 34.6589 47.9353 35.624C47.551 36.5891 46.9831 37.4672 46.2645 38.2077C45.5458 38.9482 44.6905 39.5365 43.7479 39.9388C42.8052 40.341 41.7938 40.5493 40.7719 40.5515V40.4647Z" fill="#434343"/>
</svg>